<?xml version="1.0" standalone="no"?>
<!DOCTYPE svg PUBLIC "-//W3C//DTD SVG 1.1//EN" "http://www.w3.org/Graphics/SVG/1.1/DTD/svg11.dtd" >
<svg xmlns="http://www.w3.org/2000/svg">
<metadata></metadata>
<defs>
<font id="channel_slanted_2regular" horiz-adv-x="1254" >
<font-face units-per-em="2048" ascent="1536" descent="-512" />
<missing-glyph horiz-adv-x="1280" />
<glyph horiz-adv-x="2048" />
<glyph horiz-adv-x="2048" />
<glyph unicode="&#xd;" horiz-adv-x="1280" />
<glyph unicode=" "  horiz-adv-x="1280" />
<glyph unicode="&#x09;" horiz-adv-x="1280" />
<glyph unicode="&#xa0;" horiz-adv-x="1280" />
<glyph unicode="!" horiz-adv-x="678" d="M159 133q-26 -74 12.5 -125.5t112.5 -48.5t142 56.5t94 127.5t-9 127t-109 50q-79 -3 -148 -58t-95 -129zM502 737q-3 51 13.5 151t73.5 269q56 169 124 345.5t134.5 331.5t129 273t108.5 169q44 49 106.5 65.5t110 -5.5t67 -84.5t-24.5 -172.5q-31 -74 -96 -188 t-147 -248.5t-171.5 -278t-171.5 -278t-144.5 -247t-88.5 -186.5q-20 23 -23 84z" />
<glyph unicode="&#x22;" horiz-adv-x="652" d="M482.5 1219q6.5 23 42.5 51q41 31 48.5 75.5t10.5 82.5q-51 20 -66.5 74t17.5 121q18 36 48.5 66.5t66.5 51t74.5 29.5t74.5 4q74 -13 100 -77q44 41 98.5 63t108.5 14q69 -10 96 -70t-6 -135q-26 -61 -69.5 -121t-89.5 -110t-89.5 -87.5t-69.5 -57.5q-28 -20 -51 -21.5 t-33.5 11.5t-4 36t42.5 51q41 31 48.5 75.5t10.5 82.5q-28 15 -54 44q-31 -49 -68 -92.5t-74 -79t-70.5 -64t-53.5 -43.5q-28 -20 -51 -21.5t-33.5 11.5t-4 36z" />
<glyph unicode="#" d="M223 266q-10 28 13 64q128 -13 258.5 -11.5t250.5 6.5t222.5 9t171.5 -4q69 -5 87 -26.5t4 -44.5t-51 -41t-78 -18h-172t-162.5 1t-163.5 1h-175q-110 0 -154 19.5t-51 44.5zM251 -20q59 131 103.5 262.5t82 250.5t69 218.5t62.5 171.5t95 111.5t126.5 50t103.5 -6.5 t26 -58q-31 -90 -60.5 -171.5t-57.5 -162t-57.5 -164t-62.5 -175.5q-38 -110 -110 -174t-143 -100q-84 -41 -177 -53zM415 771q-10 28 13 64q128 -13 258.5 -12t250.5 6.5t222.5 9.5t171.5 -4q69 -5 87 -27t4 -45t-51 -41t-78 -18h-172t-162.5 1.5t-163.5 1.5h-175 q-110 0 -154 19t-51 45zM707 -20q59 131 103.5 262.5t81.5 250.5t69 218.5t63 171.5t95 111.5t126.5 50t103.5 -6.5t26 -58q-31 -90 -60.5 -171.5t-57.5 -162t-57.5 -164t-62.5 -175.5q-38 -110 -110 -174t-144 -100q-84 -41 -176 -53z" />
<glyph unicode="$" horiz-adv-x="3036" d="M317 366q18 56 56.5 89.5t82 47.5t87 9t71.5 -28q26 -20 24.5 -64t-27 -90t-76.5 -88t-123 -60q10 -46 71.5 -87t151 -74.5t193.5 -52.5t199 -19q156 0 300.5 34.5t254.5 91t171.5 130.5t52.5 154.5t-101 161.5t-289 152q-20 -26 -51 -39.5t-59 -13.5q-41 0 -58 26.5 t-1 67.5l5 13q-195 61 -337 122.5t-225 138.5t-105 177t27 238q49 136 173 238t286.5 172.5t343 109t339.5 46.5q-3 15 5 41q13 33 39.5 54.5t60.5 21.5q33 0 48.5 -21.5t2.5 -54.5q-8 -20 -26 -39q148 -5 258.5 -35.5t181 -80.5t99.5 -114t17 -136q-13 -74 -47.5 -124 t-79.5 -83.5t-93.5 -47.5t-89.5 -14q-64 0 -92 43.5t-8 95.5q20 54 78 97t127 43q26 0 47.5 -9t39.5 -21q20 -13 36 -31q41 102 0 184q-18 33 -54 68t-98.5 60.5t-157.5 42t-228 16.5q-172 0 -338 -36t-295.5 -96t-205 -138t-62.5 -161t130.5 -165t371.5 -151q20 20 45.5 34 t54.5 14q38 0 57 -27t9 -65q161 -46 285.5 -107.5t197.5 -142t91 -185.5t-31 -238q-51 -143 -149.5 -248t-233 -174.5t-297 -102.5t-339.5 -36q10 -18 3 -54q-13 -31 -41.5 -53.5t-61.5 -22.5t-47 23t-1 53q15 36 43 57q-166 8 -307 45t-237 97t-138 142t-7 179z" />
<glyph unicode="%" horiz-adv-x="1280" d="M-41 -51q246 238 486.5 480t457 463.5t402 408t321.5 314.5q131 128 205 189.5t94.5 68t-11.5 -35.5t-109 -119q-164 -164 -314 -315t-299.5 -299.5t-304.5 -302t-326 -322.5q-202 -202 -321.5 -310t-180.5 -156q-74 -59 -100 -64zM581 1518q18 54 56.5 102.5t87 85.5 t105 57.5t110.5 20.5q110 0 161 -78t13 -188q-20 -54 -57.5 -102.5t-86 -85.5t-105 -57.5t-110.5 -20.5q-110 0 -161 78t-13 188zM762.5 1376q25.5 -50 84.5 -50t118 50t87 122q23 72 -2.5 121.5t-84.5 49.5t-118 -49.5t-82 -121.5q-28 -72 -2.5 -122zM801 328 q18 54 56.5 102.5t87 85.5t105 57.5t110.5 20.5q110 0 161 -78t13 -188q-20 -54 -57.5 -102.5t-86 -86t-105 -58t-110.5 -20.5q-110 0 -161 78.5t-13 188.5zM983.5 185.5q25.5 -49.5 84.5 -49.5t117.5 50t86.5 121q23 72 -2.5 122t-84.5 50t-117.5 -50t-81.5 -122 q-28 -72 -2.5 -121.5z" />
<glyph unicode="&#x26;" horiz-adv-x="2465" d="M-17.5 -288q-2.5 193 89.5 413.5t285 456t498 462.5q-79 189 -55 370t117.5 339.5t241 290.5t317.5 226.5t344 147t323 52.5q138 0 223.5 -37t134.5 -94.5t64 -132t10 -150t-24 -143t-40 -116.5q-3 -10 -2.5 -19t-7.5 -22q-15 -46 -47 -85.5t-72 -70.5t-87 -47.5 t-93 -16.5q-92 0 -134.5 64t-11.5 156q18 46 50 87t73 70.5t88 47.5t93 18q51 0 90 -23q15 69 16.5 143t-35.5 133t-119 97.5t-231 38.5q-118 0 -230.5 -60t-211 -157.5t-179 -221.5t-132 -254.5t-69 -253.5t9 -219t103.5 -153.5t213 -52.5q61 0 85.5 -18t16.5 -38.5 t-43.5 -38.5t-89.5 -18q-195 0 -361 -70.5t-299.5 -184t-232 -259.5t-153.5 -298.5t-66.5 -298.5t27 -260t132 -184t244.5 -70q113 0 220 55t203 142t179.5 192t147.5 203.5t106 179t60 116.5q23 54 47.5 78t40 19t14 -39.5t-32.5 -98.5q-20 -41 -72.5 -135.5t-132 -210 t-182 -239.5t-222.5 -226.5t-253 -168t-272 -65.5q-223 0 -384 84.5t-244 229.5t-85.5 338zM1205.5 876.5q-2.5 11.5 6.5 29.5t-1 28q-13 10 15 16.5t83 12t125.5 11.5t142.5 19t134.5 35t103.5 57q120 113 220 201.5t156.5 110t57.5 -45t-76 -260.5q69 -15 134.5 -34.5 t118 -39t89.5 -33.5t50 -14q20 0 38 6.5t33.5 13t28.5 7.5t26 -9q10 -10 5 -24t-36 -39.5t-93.5 -68t-165.5 -106.5q-84 -54 -173.5 -48.5t-179.5 38.5q-28 -95 -52.5 -179.5t-42.5 -156.5q-38 -195 -16.5 -313.5t108.5 -118.5q44 0 109.5 36t126.5 79q72 49 148 115 q18 13 34 23q33 18 48 3q18 -20 0 -35.5t-28 -26.5q-5 -3 -37 -36t-84.5 -77.5t-123 -97t-149.5 -97.5t-165 -74.5t-168 -29.5t-132 37t-74 95t-29 131t3.5 144.5t23 137t29.5 105.5q15 41 60 170.5t106 298.5q-20 5 -75 10t-118 7.5t-116.5 1.5t-69.5 -4 q-92 -26 -124 -24.5t-34.5 13z" />
<glyph unicode="'" horiz-adv-x="0" d="M-24.5 1219q6.5 23 39.5 51q41 31 49 75.5t10 82.5q-51 20 -65 74t17 121q18 36 48.5 66.5t66.5 51t74 29.5t74 4q67 -10 95 -70t-8 -135q-26 -61 -68 -121t-89 -110t-89.5 -87.5t-68.5 -57.5t-48.5 -21.5t-33 11.5t-4 36z" />
<glyph unicode="(" horiz-adv-x="757" d="M178 374q12 144 73 310q61 164 154.5 297t197.5 235t211.5 176.5t197 124.5t152 76.5t78.5 34.5q23 10 46 13t35.5 -2.5t10 -15.5t-30.5 -26q-31 -15 -116.5 -76.5t-192 -174t-216.5 -277.5t-187 -385q-79 -220 -98 -408.5t-7.5 -330.5t37 -231.5t35.5 -110.5 q10 -20 7.5 -39.5t-14 -31t-29.5 -9t-41 23.5q-15 13 -54.5 57.5t-86 115t-90 169t-64 220t-8.5 265.5z" />
<glyph unicode=")" horiz-adv-x="757" d="M-114 -459.5q-4 11.5 7.5 30.5t37.5 40q26 20 113 108.5t197 230.5t222.5 329t189.5 407t83 384t-20.5 276.5t-67.5 174t-59 76.5q-20 15 -16.5 25.5t20 16t39.5 2.5t39 -13q10 -8 53.5 -34.5t97.5 -76.5t107.5 -124.5t85.5 -176.5t32 -234t-54 -296 q-56 -164 -145.5 -308.5t-196 -265t-219 -217.5t-207 -167.5t-166.5 -114t-95 -58.5q-36 -20 -55 -23t-23 8.5z" />
<glyph unicode="*" horiz-adv-x="785" d="M361 668q69 64 134.5 130.5t121.5 129.5t104.5 115.5t84.5 88.5q38 33 79.5 38t69.5 -8t39.5 -37t-11.5 -45q-90 -92 -168 -170t-172 -173q-54 -59 -105.5 -76.5t-89.5 -15.5q-46 3 -87 23zM376 960q79 0 161.5 9t156.5 20.5t138 20.5t108 9q41 3 57.5 -25.5t14 -63 t-19.5 -64t-42 -29.5q-113 -13 -209 -22t-211 -19q-69 -8 -101 16.5t-45 57.5q-13 38 -8 90zM505.5 1052.5q16.5 38.5 47.5 69t63 44.5t44 -4q51 -74 95 -138t103 -138q31 -46 21.5 -93.5t-32.5 -88.5q-28 -46 -69 -92q-31 61 -71.5 115t-79 100t-70.5 85.5t-50 70.5 t-1.5 69.5z" />
<glyph unicode="+" d="M230 678q-15 67 3 157q128 -13 258.5 -12t251 6.5t223 9.5t171.5 -4q69 -5 90.5 -55t11.5 -108t-43.5 -105t-74.5 -47h-171.5t-162 1t-164 1h-175.5q-110 0 -157.5 49t-60.5 107zM389 131q61 131 107.5 262.5t83.5 250.5t69 218.5t63 171.5t94.5 111.5t124 50t101.5 -6.5 t25 -57q-31 -90 -60 -172t-57.5 -162.5t-58 -164t-62.5 -175.5q-38 -110 -110 -174t-143 -100q-84 -41 -177 -53z" />
<glyph unicode="," horiz-adv-x="558" d="M272.5 41q6.5 23 42.5 51q41 31 48.5 75.5t10.5 83.5q-51 20 -66.5 73.5t17.5 120.5q18 36 48.5 67t66.5 51.5t74.5 29.5t74.5 3q69 -10 96 -70t-12 -134q-23 -61 -65 -121.5t-88 -110.5t-89.5 -87t-69.5 -58q-28 -20 -51 -21.5t-33.5 11.5t-4 36z" />
<glyph unicode="-" d="M230 678q-15 67 3 157q128 -13 258.5 -12t251 6.5t223 9.5t171.5 -4q69 -5 90.5 -55t11.5 -108t-43.5 -105t-74.5 -47h-171.5t-162 1t-164 1h-175.5q-110 0 -157.5 49t-60.5 107z" />
<glyph unicode="." horiz-adv-x="537" d="M289 412q13 38 38.5 71.5t59 59t70.5 41t75 15.5q74 3 109 -49.5t14 -127.5q-26 -74 -96 -127.5t-144 -56.5t-113 48.5t-13 125.5z" />
<glyph unicode="/" d="M-172 -340q246 238 487 479.5t457 463t401.5 408.5t321.5 315q131 128 205 189.5t94.5 68t-11.5 -36t-109 -119.5q-164 -164 -313.5 -314.5t-299.5 -299t-303.5 -302.5t-322.5 -323q-200 -202 -320 -309.5t-184 -155.5q-74 -59 -103 -64z" />
<glyph unicode="0" horiz-adv-x="1354" d="M166.5 382.5q2.5 126.5 53.5 272.5t139.5 275.5t197.5 225.5t228 151t234 55t197 -55t124 -151t41 -225.5t-52 -275.5t-141 -272.5t-200 -222.5t-230.5 -151t-235.5 -55t-195.5 55t-121.5 151t-38.5 222.5zM560.5 409.5q2.5 -89.5 29.5 -152t77 -93.5t119 -21 q72 10 145 61.5t139.5 128.5t120 174t84.5 205q28 108 26.5 198.5t-28 153t-76.5 94.5t-122 22q-72 -13 -144.5 -62.5t-139.5 -126.5t-120.5 -177t-84.5 -207q-28 -108 -25.5 -197.5z" />
<glyph unicode="1" horiz-adv-x="1169" d="M317.5 889.5q-5.5 11.5 3.5 29.5t32 33q15 10 59 43.5t101.5 77t122.5 91t128 87t114 65t82 25.5q44 0 83.5 -24t66.5 -64t34.5 -91t-10.5 -102q-13 -33 -43.5 -128t-73 -218t-89.5 -258.5t-93.5 -252t-84.5 -198.5t-59 -97q-36 -23 -93.5 -18t-113.5 28t-93.5 61.5 t-29.5 81.5q5 28 38.5 113t78 195t93.5 229t84.5 218.5t51 165t-5.5 65.5q-33 0 -76.5 -18t-88 -42t-85.5 -50t-67 -44q-28 -18 -44.5 -16.5t-22 13z" />
<glyph unicode="2" horiz-adv-x="1374" d="M64 73q0 55 10 107.5t26 70.5q13 18 41 25.5t88 19t157.5 34.5t248.5 74q115 38 194.5 103.5t125.5 140t60 151.5t1.5 138t-50 99.5t-96.5 38.5q-87 0 -157 -20.5t-125.5 -47.5t-93.5 -53.5t-56 -39.5q-31 -20 -45 -19t-18 12.5t1 27t16 22.5q5 5 47 38.5t106 79.5 t145 96t166.5 88.5t170 57.5t153.5 4t119 -73t68 -175q23 -148 -39.5 -263.5t-171.5 -204t-243.5 -151t-253.5 -105t-201 -65.5t-87 -33t45 -15.5t130.5 -8t176.5 -2.5t180.5 -1t144.5 -3.5t71 -10.5q13 -10 -2.5 -46t-44 -77t-60.5 -79.5t-55 -56.5q-15 -10 -80 -17.5 t-156 -12.5t-193.5 -6.5t-192 -1.5t-155 2.5t-78.5 7.5q-20 5 -29 50t-9 100z" />
<glyph unicode="3" horiz-adv-x="1256" d="M74 187q-5 8 0 20.5t15.5 21.5t24.5 9t29 -18q10 -10 28 -32t51.5 -45t87.5 -39.5t135 -16.5q56 0 120.5 36t115.5 93.5t83 125.5t27 134q-5 31 -23 49t-36 28q-23 10 -46 15q-33 0 -53.5 8t-12.5 23q5 13 29 22t58 9q31 0 59 12.5t51 29.5t41 34.5t28 30.5 q49 64 63 130.5t2.5 121.5t-49 91t-93.5 36q-82 0 -148.5 -16.5t-116.5 -39.5t-83 -45t-51 -32q-28 -18 -41 -18t-17 9t1 23t18 22q5 5 68 51t154 100t199.5 101t206 55t173 -38t103.5 -177q18 -92 -7.5 -167.5t-82 -138.5t-136 -114t-166.5 -89q59 -38 102.5 -89.5 t56.5 -115.5t-15.5 -139.5t-110.5 -167.5q-118 -131 -226.5 -176t-200.5 -36t-166.5 55.5t-128 101.5t-85.5 99.5t-35 52.5z" />
<glyph unicode="4" horiz-adv-x="1587" d="M249.5 679.5q11.5 75.5 57.5 152.5t110 148.5t136 135.5t134.5 112.5t106 77t51.5 33.5q13 10 29.5 11.5t24 -6.5t4 -23t-34.5 -41q-18 -13 -55 -41t-79.5 -73t-84.5 -109t-73 -151q-26 -69 6 -126.5t100 -89.5t161.5 -31t193.5 55q41 108 82 210.5t76.5 183t64 133 t43.5 62.5q31 18 84.5 20.5t103.5 -20.5t82 -72t22 -128q-8 -54 -38.5 -158.5t-74 -232.5t-95 -264t-100 -251t-87 -194.5t-58.5 -94.5q-28 -23 -84.5 -20.5t-113 24t-96 60t-36.5 89.5q3 18 14 61.5t30.5 102.5t45 131t53.5 151q-64 -54 -133 -92.5t-139.5 -56.5 t-143.5 -7.5t-142 53.5q-95 59 -127 129.5t-20.5 146z" />
<glyph unicode="5" horiz-adv-x="1574" d="M152.5 304.5q3.5 15.5 15 27t28.5 11.5t32 -23q8 -13 41 -38.5t85.5 -51t124 -45t158.5 -19.5q59 0 119.5 27t111.5 72t83 100t32 112.5t-37 111.5t-127 92q-64 28 -128 48.5t-121.5 34.5t-102.5 23l-70 14q-13 3 -1.5 41.5t38.5 94.5t62.5 121.5t71.5 121.5t67 96t46 42 q15 3 81.5 5.5t157.5 2.5t193.5 -1t189.5 -6.5t147 -13t68 -17.5q10 -18 15.5 -56.5t2.5 -79.5t-11.5 -75.5t-26.5 -44.5q-15 -10 -96 -13t-186 -4t-215 -2.5t-184 -6.5q-20 0 -47.5 -25.5t-50.5 -56.5t-38 -59t-18 -30q0 -8 41 -15.5t103.5 -22t138 -35t145 -53.5 t122 -80.5t69 -112.5t-14.5 -152.5t-125 -197.5q-136 -156 -260 -209.5t-233 -43.5t-198.5 66.5t-155 120.5t-102.5 117.5t-39 61.5q-5 10 -1.5 25.5z" />
<glyph unicode="6" horiz-adv-x="1500" d="M175 293q-9 101 32 216q54 166 200 305q54 59 145 151t197 197t216 212.5t205 193.5t161.5 141t84.5 57q31 8 62.5 -15t44.5 -68t0 -110t-71 -142q-23 -31 -63 -70.5t-92.5 -87t-115 -102.5t-129.5 -111q100 -15 171.5 -64t110 -122t42.5 -166.5t-32 -198.5 q-41 -115 -121.5 -216t-184.5 -176.5t-224 -119t-238 -43.5t-205 43.5t-137 119t-59 176.5zM576 315q8 -72 41 -122t89.5 -74.5t128.5 -16.5q72 10 142 50t131.5 101.5t107.5 139.5t69 163q20 84 3.5 164.5t-61 141t-110 92.5t-142.5 21q-95 -84 -174 -169 q-67 -74 -128 -162t-82 -173q-23 -84 -15 -156z" />
<glyph unicode="7" horiz-adv-x="1500" d="M130.5 -343q2.5 51 43.5 115q20 33 70 102.5t119.5 161.5t150 199.5t158.5 214t147 206t118 175t68 121.5t-4 46q-82 0 -162.5 -6t-148.5 -7.5t-120.5 5t-77.5 31.5q-28 26 -46 68.5t-19.5 87t12.5 81.5t50 50q23 10 110 14t205 3t249.5 -6.5t247 -13t196 -18t93.5 -22.5 q18 -15 -29.5 -100t-136 -213t-208.5 -285.5t-248 -320t-255 -317t-230.5 -274t-171.5 -192t-78 -72.5q-20 0 -47 20.5t-42.5 57.5t-13 88z" />
<glyph unicode="8" horiz-adv-x="1423" d="M-47 -247q-9 91 27 196q44 138 155 250.5t257 179.5q-97 67 -130.5 179.5t12.5 253.5q36 102 111.5 193t172.5 157.5t208.5 106t221.5 39.5t193.5 -39.5t130.5 -106t56 -157.5t-27 -193q-46 -141 -156 -253.5t-253 -179.5q97 -64 130.5 -178t-18.5 -252 q-36 -105 -111 -196t-171 -159t-207.5 -107.5t-221.5 -39.5q-113 0 -195 39.5t-129 107.5t-56 159zM329 -228q9 -64 39.5 -108.5t83 -66.5t121.5 -14q64 8 131 43.5t123 90.5t98.5 125.5t62.5 147.5q18 74 9 138t-41 109t-84.5 66.5t-121.5 13.5q-67 -8 -132 -43.5 t-121.5 -90.5t-97.5 -124t-59 -146q-20 -77 -11 -141zM630 632q10 -64 42 -108.5t83 -66.5t118 -14q69 8 135.5 43.5t123 90.5t97.5 125.5t61 147.5q18 74 9 138t-41 109t-83 68t-118 15q-69 -8 -135.5 -45t-123 -92t-98.5 -124t-60 -146q-20 -77 -10 -141z" />
<glyph unicode="9" horiz-adv-x="1482" d="M83.5 -308.5q11.5 65.5 70.5 142.5q49 59 156 157.5t243 213.5q-100 15 -171.5 63.5t-110 121.5t-41 166.5t35.5 198.5q38 115 117.5 216.5t183.5 177t224 119t238 43.5t206.5 -43.5t138 -119t58.5 -177t-29 -216.5q-31 -84 -82 -161t-118 -143q-54 -59 -146 -151.5 t-198 -197.5t-217.5 -212.5t-206.5 -193t-161.5 -140.5t-84.5 -58q-28 -8 -58.5 15.5t-44.5 68t-2.5 110zM316.5 544q16.5 -81 61 -141t110 -93.5t142.5 -20.5q92 82 171 167q67 74 129.5 163.5t83.5 174.5q23 84 15 155.5t-41 121.5t-88 74.5t-124 16.5q-74 -10 -146 -49.5 t-133.5 -101t-107.5 -139.5t-69 -163q-20 -84 -3.5 -165z" />
<glyph unicode=":" horiz-adv-x="537" d="M289 412q13 38 38.5 71.5t59 59t70.5 41t75 15.5q74 3 109 -49.5t14 -127.5q-26 -74 -96 -127.5t-144 -56.5t-113 48.5t-13 125.5zM515 1052q13 38 38.5 71.5t58.5 59t70 41t76 15.5q74 3 111 -49.5t12 -127.5q-26 -74 -96.5 -127.5t-144.5 -56.5t-112.5 48.5 t-12.5 125.5z" />
<glyph unicode=";" horiz-adv-x="537" d="M247 41q6 23 42 51q41 31 49 75.5t10 83.5q-51 20 -66 73.5t18 120.5q18 36 48.5 67t66.5 51.5t74 29.5t74 3q69 -10 96 -70t-11 -134q-23 -61 -65.5 -121.5t-88.5 -110.5t-89.5 -87t-69.5 -58q-28 -20 -51 -21.5t-33 11.5t-4 36zM515 1052q13 38 38.5 71.5t58.5 59 t70 41t76 15.5q74 3 111 -49.5t12 -127.5q-26 -74 -96.5 -127.5t-144.5 -56.5t-112.5 48.5t-12.5 125.5z" />
<glyph unicode="&#x3c;" horiz-adv-x="732" d="M266 602q8 20 51.5 74t107.5 121.5t138 139.5t143.5 129.5t123 92t76.5 29.5q33 -8 50 -54t17 -103.5t-15.5 -112.5t-41.5 -86q-18 -18 -56 -47.5t-87 -62.5t-101 -70.5t-98.5 -69.5t-77 -57.5t-35.5 -38.5q-8 -20 21.5 -59.5t64 -84.5t54 -88.5t-6.5 -71.5 q-18 -20 -50 -2.5t-71.5 57t-79.5 93.5t-70.5 106.5t-47 98.5t-9.5 67z" />
<glyph unicode="=" d="M177 525q-15 67 0 156q128 -13 259.5 -11.5t252 6.5t222.5 9t169 -4q69 -5 92.5 -55t14.5 -107.5t-42.5 -105t-74.5 -47.5h-171.5t-162.5 1.5t-164 1.5h-175q-110 0 -159 48.5t-61 107.5zM305 883q-15 67 0 156q128 -13 258.5 -11.5t250.5 6.5t222.5 9t171.5 -4 q69 -5 91 -55t11.5 -107.5t-43.5 -105t-74 -47.5h-170.5t-161 1.5t-162.5 1.5h-174q-110 0 -159 48.5t-61 107.5z" />
<glyph unicode="&#x3e;" horiz-adv-x="732" d="M248 182q-8 28 43.5 71.5t117 88.5t124 84.5t66.5 62.5q8 20 -23 66.5t-70.5 100t-76.5 103.5t-42 78q-5 31 19 87t65 114t89.5 104t89.5 54q26 5 56.5 -31t57.5 -93.5t51.5 -130.5t41 -139.5t23 -121.5t-1.5 -76q-8 -20 -56.5 -66t-117.5 -100t-147 -109t-146 -93.5 t-114 -56.5t-49 3z" />
<glyph unicode="?" horiz-adv-x="1423" d="M330 1830q0 10 5 16q0 15 8 36q18 64 79.5 154.5t166.5 176.5t257 151t350 81q246 20 416 -26t264.5 -147t116.5 -253.5t-29 -346.5q-36 -131 -94 -228t-125.5 -170t-143 -123t-148.5 -84.5t-136 -55t-109 -36.5q-108 -36 -200 -98.5t-159.5 -133t-110 -138t-52.5 -111.5 q-8 -44 -24.5 -63t-29 -19t-19 21t3.5 59q10 31 34.5 103.5t75.5 158.5t135.5 166.5t212.5 123.5q169 59 292 184.5t189.5 279t78 315t-38.5 291t-164 206t-295 63.5q-141 -13 -251 -55t-192 -99.5t-141 -123t-95 -121.5q38 20 90 26q74 8 111 -38.5t19 -112.5 q-23 -72 -85.5 -124.5t-136.5 -60.5q-74 -5 -110 40t-16 116zM333 15q-26 -74 10 -125t115 -49q74 3 142 56.5t94 128.5q26 74 -9 126.5t-114 49.5q-38 0 -75.5 -15t-70.5 -41t-57.5 -59.5t-34.5 -71.5z" />
<glyph unicode="@" horiz-adv-x="2181" d="M206 213.5q-17 198.5 65 426.5q79 228 237 429t359 350.5t431 235.5t458 86q143 0 248 -54t173 -144.5t104 -213.5t42.5 -262.5t-13 -288t-57.5 -292.5h-69q5 15 14 61.5t19 99t18 98.5t10 61q23 192 -2.5 358.5t-107.5 283t-221.5 171.5t-341.5 30q-202 -26 -389 -120.5 t-335.5 -239.5t-246 -324t-120.5 -374q-23 -192 36 -352t178 -268.5t289.5 -160t372.5 -25.5q131 18 255 64t238 117.5t212.5 162.5t174.5 199l-66 -187q-115 -133 -254.5 -243t-294.5 -188.5t-317.5 -122t-321.5 -43.5q-228 0 -398 86t-266 235.5t-113 348zM774.5 422.5 q21.5 112.5 112.5 247t242 254.5q110 84 211 128t188 59q79 15 144.5 10t108 -19t57.5 -32t0 -33q-18 -15 -28 -12.5t-27 10t-47.5 17.5t-89.5 10q-54 0 -120.5 -24t-131.5 -66.5t-124 -98.5t-100 -120q-61 -92 -78 -165t-5.5 -122t43.5 -74.5t68 -25.5q64 0 121.5 38.5 t105 97.5t89.5 126.5t77 125.5t64 95t55 37t33.5 -41t11.5 -104t5 -136t14 -135.5t40 -103.5t80 -41q38 0 78 16.5t71 37.5q36 26 69 56l92 74q3 8 14 13t19 5q26 0 18 -25q0 -3 -55 -56.5t-139.5 -117.5t-189.5 -116.5t-204 -52.5q-69 0 -109 46t-59 102.5t-24.5 105 t-5.5 53.5q-5 -5 -51 -53.5t-115 -105t-153.5 -102.5t-163.5 -46q-131 0 -182 75.5t-29.5 188z" />
<glyph unicode="A" horiz-adv-x="3023" d="M-813 -1092q9 37 53 94q18 23 107.5 136.5t230 291.5t320 404.5t376.5 475.5q-79 5 -139.5 12.5t-103.5 15.5q-192 33 -307.5 96t-181.5 129q-77 74 -110 161q207 -46 496.5 -63.5t611.5 -18.5q123 154 244.5 307.5t237 299.5t221.5 280.5t198 249.5q215 271 410 515 q-2 24 -2.5 48t2.5 46q5 38 15 79.5t39 69.5q28 26 88 47q61 20 127 26q25 2 49 2q39 0 77 -6q60 -10 86 -43q9 -13 9 -63q0 -20 -1 -44q-5 -88 -13 -228q-7 -139 -15 -318q-4 -90 -4 -184q0 -95 4 -195q8 -200 33.5 -408.5t83.5 -405.5q133 5 232 9q40 2 71 1q47 0 76 -3 q131 -8 186 -55q51 -44 51 -99v-8q-4 -60 -56.5 -123t-131.5 -104q-64 -28 -246 -43q64 -121 164 -218q46 -46 50 -90v-8q0 -38 -32 -66q-35 -30 -111 -39q-21 -3 -46 -3q-62 0 -145 17q-82 15 -168 116t-167 268q-200 -5 -426 -7h-123q-163 0 -329 3q-228 4 -444.5 11.5 t-395.5 20.5q-192 -253 -374 -487.5t-330.5 -422.5t-252 -312.5t-139.5 -157.5q-52 -46 -90 -59q-19 -6 -33 -6t-23 6q-12 9 -12 28q0 10 3 22zM707 645q333 5 664 19t618 30q-46 154 -80.5 325t-53.5 354t-21 374v27q0 178 19 353q-33 -41 -140.5 -179t-263.5 -339 t-348 -450.5t-394 -513.5z" />
<glyph unicode="B" horiz-adv-x="2764" d="M-1080 1592q0 8 -1 17q1 65 19 117q20 58 48 71q15 8 34 0q15 -5 36.5 -25.5t50.5 -69.5q49 -64 156 -78q43 -6 92 -6q72 0 156 12q141 20 303.5 66.5t326.5 105.5t316 123t270 120q120 54 263.5 124.5t298.5 132t316 105t315 43.5t294.5 -52.5t258.5 -180.5 q87 -97 121 -192q31 -85 31 -167v-19q-4 -91 -39.5 -172.5t-86.5 -153.5q-121 -167 -328 -315q305 -195 404 -438q41 -105 43 -229q0 -4 1 -9q1 -120 -65 -258q-68 -144 -219 -304t-415 -334q-236 -154 -438 -244.5t-375 -133t-318.5 -42.5t-266 31t-218 83.5t-173.5 116.5 q-61 -184 -116.5 -344.5t-95 -282t-65.5 -199.5t-28 -98q-13 -64 -43.5 -110.5t-57.5 -48.5q-1 0 -2 -1q-25 0 -35 52q-2 13 -3 30q0 56 26 160q8 41 33.5 129t66.5 212t93 278t111 328q-84 92 -134 172.5t-78 111.5q-44 54 -95 110t-88 108.5t-50 97.5q-3 12 -3 23 q0 30 26 53q16 12 37 12q20 0 45 -11q51 -22 117.5 -78.5t148.5 -142t172 -185.5q79 225 162 463.5t164 465t155 433.5t136 376q-151 -67 -298.5 -128t-285.5 -111t-265 -84.5t-234 -49.5q-99 -13 -181 -13q-98 0 -174 18q-140 33 -221.5 97t-115 150t-35.5 162zM220 -300 q112 -92 294 -129q126 -26 266 -26q62 -1 128 5q212 16 436.5 83t424.5 183.5t353.5 278t227.5 368.5q42 119 42 207q0 40 -9 74q-28 108 -120 164q-91 54 -235 66q-58 5 -120 5q-90 0 -190 -10q-166 -17 -341.5 -55t-334.5 -82t-285.5 -84.5t-195.5 -66.5 q-84 -243 -170.5 -493t-170.5 -488zM699 1070q72 10 188.5 39.5t257 73t295.5 101t301 124.5t275 142.5t220 154.5t132 161q24 49 24 97q0 33 -11 65q-19 61 -89 79q-35 9 -79 9t-97 -9q-106 -18 -243 -65.5t-294.5 -114t-333 -144.5t-354.5 -157q-38 -118 -89.5 -259 t-102.5 -297z" />
<glyph unicode="C" horiz-adv-x="2467" d="M180 16q-8 75 -7 152q0 85 9 174q18 170 64 339q49 169 144.5 356t229 372.5t298.5 355.5t353 303.5t393 219t417 100.5q60 5 115 4q100 0 182 -15q126 -24 214 -71.5t140.5 -113t79.5 -134.5q26 -69 28 -138q0 -6 1 -12q0 -62 -15 -113q-3 -23 -13 -47q-3 -5 -2.5 -11 t-4.5 -12q-13 -46 -41 -87t-66.5 -73t-84.5 -52.5t-92 -22.5h-14q-80 0 -124 54q-33 40 -33 94q0 26 7 54q15 46 43 87t66.5 73t83.5 52.5t91 23.5q11 1 20 1q46 0 80 -19q-8 69 -38.5 145.5t-100 138t-185.5 97.5q-86 26 -206 26q-43 0 -92 -3q-143 -10 -286.5 -96 t-279.5 -225.5t-259 -321t-225 -384t-176.5 -413.5t-115.5 -408t-42 -370v-7q0 -169 48 -291q48 -126 148 -195q84 -58 214 -58q24 0 50 2q118 8 230.5 47.5t214.5 94.5t189 120.5t156.5 125.5t115.5 108.5t64 71.5q41 46 73 65.5t46 14t3.5 -34.5t-53.5 -78 q-31 -33 -90 -99.5t-144.5 -148.5t-197 -169t-246 -161.5t-294.5 -127t-339 -65.5q-37 -3 -72 -3q-135 0 -240 40q-133 50 -224 146t-141.5 231t-66.5 291z" />
<glyph unicode="D" horiz-adv-x="2526" d="M-774 2344q6 34 50 50q33 10 160 16q126 8 309 10q92 1 193 1q102 1 213 -1q223 -2 451 -6q535 -10 1190 -28q154 0 298.5 -60t261 -169t194.5 -260t102 -330q9 -67 9 -137q0 -117 -25 -243q-41 -201 -164 -413.5t-338 -427.5t-540 -420q-207 -133 -402 -203.5 t-374 -93.5q-100 -13 -195 -13q-73 0 -145 8q-162 18 -305 61q-13 -31 -36 -49q-22 -17 -42 -16h-3q-22 0 -36 26q-10 18 -10 53q0 14 2 32q-177 72 -316.5 166.5t-236.5 181.5q-115 102 -200 208q10 28 25 43q13 13 31 13t44 -28q15 -20 62.5 -79t129.5 -132t199.5 -150 t276.5 -136q20 79 78 244.5t133.5 376.5t162.5 446.5t167.5 454.5t148.5 401t106 284q-261 0 -545 -9t-589 -9q-79 0 -156 24.5t-141 61.5t-111.5 83t-70.5 90q-18 34 -18 62zM192 -223q108 -31 234.5 -48.5t272.5 -17.5q164 0 327.5 58.5t317.5 158.5t292 234.5 t250.5 285.5t194.5 311q82 161 123 313q35 132 35 250q-1 20 -1 38q-6 136 -67 237q-77 123 -193.5 204t-267.5 128t-334 67.5t-390 25.5q-38 -110 -106 -296.5t-149 -410.5t-166.5 -463.5t-161 -453.5t-132 -379t-79.5 -242z" />
<glyph unicode="E" horiz-adv-x="2132" d="M-18 -288v10q0 190 90 404q92 220 285 455.5t498 462.5q-61 145 -61 285q0 43 6 85q24 181 117.5 339.5t241 290.5t317.5 226.5t344 147t323 52.5q138 0 223.5 -37t134.5 -95t64 -132q11 -56 12 -112q0 -20 -2 -38q-5 -76 -24 -143t-40 -116q-3 -10 -2.5 -19t-7.5 -22 q-15 -46 -47 -85.5t-72 -70.5t-87 -47.5t-93 -16.5q-92 0 -134 64q-25 37 -25 83q0 34 13 73q18 46 50 87t73 70.5t88 47.5t93 18q51 0 90 -23q14 69 16 143q0 3 1 6q0 71 -36 127q-37 59 -119 97.5t-231 38.5q-118 0 -230.5 -60t-211 -157.5t-179 -221.5t-132.5 -255 q-50 -130 -68 -253q-7 -49 -8 -94q0 -68 16 -125q26 -96 104 -154q71 -53 192 -52h21q61 0 85.5 -18t16.5 -38.5t-43.5 -38.5t-89.5 -18q-195 0 -361 -70.5t-299.5 -184t-232 -259.5t-153.5 -299q-54 -152 -66 -298q-3 -34 -4 -65q0 -107 30 -195q38 -114 132 -184t245 -70 q113 0 220 55t203 142t179.5 192t147.5 203.5t106 179t60 116.5q23 54 47.5 78t40 19t14.5 -39.5t-33 -98.5q-20 -41 -72.5 -135.5t-132 -210t-182 -239.5t-222.5 -226.5t-253 -168t-272 -65.5q-223 0 -384 84.5t-244.5 229.5t-85.5 338z" />
<glyph unicode="F" horiz-adv-x="2288" d="M-292 2100q-1 11 -1 22q-1 52 31 102q38 62 124.5 109.5t224.5 54.5q29 2 70 2q90 0 237 -8q215 -11 507 -28t633 -31q342 -15 688 -17h84q300 0 584 16q322 18 576 66q-95 -87 -222 -161q-113 -67 -274.5 -129.5t-376.5 -95.5q-105 -15 -272.5 -29.5t-372.5 -23.5 t-434 -15t-457 -9q-28 -82 -72.5 -207.5t-100 -284t-120.5 -344t-134 -382.5q202 -13 435 -23.5t466 -11t450.5 13t386.5 49.5q-67 -64 -156 -121q-77 -49 -191 -96t-265 -70q-82 -13 -220 -24.5t-306 -19t-352 -10t-358 -2.5q-77 -220 -152.5 -438t-144.5 -420 t-129.5 -378.5t-105 -312.5t-73 -223t-30.5 -107q-13 -64 -43.5 -110.5t-57.5 -48.5q-1 0 -2 -1q-26 0 -36 52q-3 14 -2 33q0 56 23 157q10 44 39.5 138.5t74.5 228.5t101 299.5t120 349.5t133.5 382.5t138.5 398.5q-113 3 -213 6.5t-176.5 10t-125 15.5t-64.5 21 q-35 31 -39 77q0 5 -1 10q0 41 25 81q28 45 88 79.5t155 42.5q16 1 39 0q52 0 138 -4q123 -7 292 -17q69 197 135.5 381.5t124 343t102.5 283t73 203.5q-218 0 -416.5 4t-353 13t-258.5 21.5t-129 33.5q-54 41 -62 103z" />
<glyph unicode="G" horiz-adv-x="2288" d="M148 26v56q0 132 21 274q26 171 74 340q49 169 142.5 356t217.5 369t275 349.5t320 298t349.5 211t364.5 91.5q33 2 65 2q108 0 192 -21q109 -28 186 -77.5t123 -115t68 -137t22 -141t-18 -125.5q-5 -26 -13 -45t-13 -32q-3 -8 -2.5 -16.5t-5.5 -18.5q-18 -46 -48.5 -86 t-70 -69.5t-84.5 -46t-91 -16.5t-80.5 16.5t-54 46t-23.5 69.5v13q0 34 15 73q15 46 46 85.5t71.5 70t87 47.5t92.5 17q59 0 105 -34q-3 69 -24.5 153.5t-79.5 157.5t-161 119q-84 38 -211 38q-30 0 -62 -2q-123 -8 -252 -91t-253.5 -220t-239.5 -317.5t-213.5 -381.5 t-175.5 -410.5t-123 -408t-56 -372.5q-2 -39 -2 -76q0 -127 26 -226q35 -128 116 -200q74 -65 195 -65q14 0 28 1q123 8 239.5 57.5t219.5 119.5q67 246 107.5 434t96.5 318q56 133 128 205t138 89q24 5 46 5q40 0 74 -19q52 -29 70 -98q4 -18 4 -42q0 -38 -9 -92 q-15 -89 -50 -208t-87.5 -261t-113.5 -290.5t-130.5 -298t-138.5 -285.5q-105 -202 -217.5 -341.5t-209.5 -226.5q-113 -102 -220 -164q177 315 286.5 594t178.5 522q-138 -97 -303 -166.5t-357 -81.5q-24 -2 -47 -2q-124 0 -218 45q-111 54 -183 154t-107.5 236.5 t-41.5 293.5z" />
<glyph unicode="H" horiz-adv-x="2342" d="M-1293 694q164 -38 384 -56q221 -18 473 -24q126 -3 256 -2.5t264 2.5q268 6 528 16q118 335 233 654t205 572q105 294 202 558q23 61 52.5 90.5t52.5 29.5t32 -29q3 -10 3 -22q0 -26 -12 -64q-8 -28 -64 -189.5t-143.5 -408.5t-195 -555.5t-219.5 -630.5q225 13 431 23 t378 20q61 177 122.5 352.5t119 340.5t112.5 317.5t101 282.5q110 310 208 584q26 69 58 101q30 31 52 31q1 -1 2 -1q23 -2 32 -33q3 -11 3 -25q0 -28 -12 -68q-5 -20 -34.5 -102t-75.5 -215.5t-106 -307.5t-130.5 -376t-147 -423.5t-153.5 -449.5q128 5 222 9q42 2 75 2 q41 0 66 -3q133 -8 187 -56q50 -44 50 -100v-8q-4 -62 -56.5 -124.5t-136.5 -103.5q-46 -23 -196 -38.5t-367 -22.5q-102 -297 -196 -571t-164 -489t-115 -354.5t-53 -170.5q-13 -69 -46 -120.5t-61 -52.5h-1q-28 0 -38 58q-2 13 -2 31q0 61 28 176q15 59 60 201t113 339 t151 440.5t175 507.5q-184 -4 -385 -6q-46 0 -93 -1q-155 0 -313 4q-97 -274 -183 -523.5t-152.5 -445.5t-107.5 -322.5t-43 -154.5q-13 -67 -45 -113t-60 -48q-1 0 -2 -1q-27 0 -37 53q-3 13 -2 31q0 57 25 162q13 54 54 183t102.5 311t138.5 404.5t164 466.5 q-187 3 -364 10t-330.5 16t-275 20.5t-198.5 24.5q-192 33 -307 96t-182 129q-77 74 -110 162z" />
<glyph unicode="I" horiz-adv-x="1205" d="M-122 -1084q-4 36 -3 77q0 116 30 267q18 102 68 284t120.5 411t157.5 491.5t178 523.5t180.5 507t167.5 442t139.5 327.5t94.5 165.5q64 68 137 98q46 19 84 19q23 0 43 -7q53 -18 75 -88q8 -25 8 -60q0 -59 -24 -144q-20 -67 -80.5 -223t-149 -375t-194.5 -484 t-217.5 -551.5t-219 -579.5t-198.5 -566t-156 -511t-91 -415q-64 61 -102 164q-34 87 -48 227z" />
<glyph unicode="J" horiz-adv-x="2081" d="M-850 2235q-8 9 -8 20.5t8 25.5q15 31 58 33q9 1 19 1q36 0 82 -7q59 -9 126.5 -24.5t134.5 -20.5q253 -20 550 -25q204 -4 411 -4h189q304 3 597 12t536 17q10 23 25.5 52.5t38.5 60.5q13 20 54 44.5t95 47.5t115.5 44.5t115 33t93 11.5t52.5 -15q13 -23 14 -60 q1 -8 1 -16q0 -29 -5 -60q-5 -38 -14 -72.5t-11 -52.5h100q131 -3 196 -17t77 -32q2 -4 2 -8q0 -14 -30 -29q-38 -19 -110 -32q-26 -5 -93.5 -9t-172.5 -9q-23 -113 -69 -310t-119 -442.5t-175.5 -523.5t-235.5 -550.5t-300.5 -521t-372.5 -439t-447 -303t-526 -112.5 q-131 0 -218 34.5t-140.5 90.5t-78 126.5t-29.5 141.5q-2 25 -2 49q0 43 6 84q9 63 22 106q20 64 42 87t37 19t21.5 -29.5t-3.5 -58.5q-5 -20 -12 -57q-4 -28 -4 -58v-24q3 -43 23.5 -86.5t68 -79.5t130.5 -59t214 -23q166 0 318.5 106.5t289.5 284.5t257 409.5t222.5 482.5 t186 505.5t147.5 477.5t106 397t63 263q-179 -5 -372.5 -7.5t-388 -3.5t-380 -1t-347 1t-291 3.5t-211.5 7.5q-87 5 -163.5 11.5t-138.5 14.5q-108 13 -187 23t-126.5 23t-62.5 31z" />
<glyph unicode="K" horiz-adv-x="2260" d="M-347 -1322q-2 12 -2 27q0 57 26 166q10 46 41 147t78.5 243.5t107.5 319t128 373.5t142 407t149 420q261 740 583 1633q23 61 52.5 90.5t52.5 29.5t32 -29q3 -11 3 -26q0 -25 -9 -60q-8 -26 -58 -170.5t-128 -368.5t-178 -506.5t-204.5 -585t-208.5 -603t-193 -561.5 q79 95 188 203.5t249.5 221t313.5 222.5t380 210q251 120 441.5 272.5t331.5 314t238.5 320t160 293t97 232t49.5 135.5q13 38 53 85.5t92.5 97.5t112.5 95t119 77q59 33 109 45q25 6 44 6q20 0 36 -7q26 -11 26 -87q0 -16 -2 -34q-6 -108 -67.5 -280t-189.5 -389.5 t-343 -449.5t-524.5 -458.5t-734.5 -418.5q-56 -23 -109 -47t-104 -50q5 -51 32 -172.5t88.5 -275.5t169 -319t278 -307t409.5 -240.5t565 -116.5q61 -3 125 -4q281 0 625 65q424 79 959 297q92 44 136 50q43 8 51 -8q2 -4 2 -9q0 -15 -17 -39q-23 -32 -64 -63 q-36 -28 -151 -105t-286.5 -173t-388 -198t-454.5 -181q-237 -78 -487 -118q-152 -24 -299 -24q-95 0 -188 10q-237 26 -449.5 135t-377.5 326.5t-272.5 562t-133.5 840.5q-220 -120 -384 -249t-280.5 -253.5t-190.5 -236t-115 -195.5q-61 -184 -99.5 -300.5t-43.5 -144.5 q-13 -67 -45 -113t-59 -48q-1 0 -2 -1q-25 0 -34 53z" />
<glyph unicode="L" horiz-adv-x="1128" d="M-1285 -746q0 60 48.5 124t130.5 110q38 20 144.5 40.5t260 38.5t345.5 33.5t400 28.5q67 192 141 402t149.5 422.5t149.5 418.5t141 393q159 438 312 865q23 60 53 90q29 29 50 29h2q23 -1 33 -31q4 -12 4 -27q0 -24 -9 -56q-8 -23 -51.5 -147t-111 -317.5 t-154.5 -440.5t-182 -517t-192 -546.5t-184 -530.5q238 13 477 21q238 8 450 12q106 2 201.5 1.5t180.5 -1.5q170 -4 270 -15q197 -20 320 -76.5t192 -115.5q82 -69 120 -151q-205 31 -485 33h-46q-260 0 -550 -16q-316 -17 -644 -47.5t-627 -61.5q-84 -253 -139.5 -418 t-60.5 -199q-10 -64 -42 -110t-59 -48q-1 0 -2 -1q-25 -1 -35 51q-2 13 -2 32q0 56 22 158q13 56 56.5 190.5t102.5 326.5q-166 -18 -314.5 -34.5t-269 -29.5t-210 -20.5t-135.5 -7.5q-136 0 -193.5 42.5t-57.5 102.5z" />
<glyph unicode="M" horiz-adv-x="3599" d="M-724 520q-2 7 -3 15q0 18 10 44q8 18 19.5 101t34.5 204.5t60 270t92 302t133 297t183 256t239.5 180.5t306.5 68q148 0 257 -37t187 -97.5t128 -137t78 -156.5q58 -162 58 -361q0 -33 -2 -66q118 238 282 427q69 79 156 156t190.5 137.5t223 97.5t254.5 37 q113 0 169 -88.5t69 -241.5q44 41 104 93.5t130.5 102t144.5 88t144 46.5q90 11 167 11q98 -1 173 -19q133 -34 212.5 -104t115.5 -167t46 -201q7 -69 7 -136q0 -32 -2 -66q-5 -98 -8 -173q0 -56 -24 -178t-65 -284.5t-97.5 -353t-119 -385t-132 -380.5t-138.5 -337 t-133 -254.5t-118 -136.5q-37 -22 -60 -22q-4 0 -8 1q-24 5 -38 31t-23 65.5t-18 84.5t-24.5 88.5t-43.5 73.5q-6 7 -6 24q-1 28 15 85q24 91 74 233t118 322.5t137 379t132 403.5t103 395q40 191 50 355q2 37 2 72q0 119 -28 209q-36 116 -126 172q-63 40 -163 40 q-41 0 -88 -7q-54 -8 -112.5 -36t-113.5 -63.5t-101 -73t-77 -65.5q1 -26 1 -52q0 -131 -20 -289q-24 -190 -69 -399.5t-105 -427t-124 -423.5t-129.5 -390.5t-122 -327.5t-97.5 -233t-59 -107q-41 -43 -92 -43q-4 1 -8 1q-56 4 -100 58q-46 53 -66 158q-9 47 -9 105 q0 70 14 156q256 671 413 1200q67 225 117.5 440.5t67.5 384.5q7 69 7 127q0 83 -14 145q-24 104 -112 104q-177 0 -334 -125.5t-296.5 -330t-261.5 -467t-225.5 -538t-190.5 -540.5t-156 -473.5t-120.5 -340.5t-84.5 -139q-23 -5 -41 -5q-38 1 -54 21q-26 30 -38.5 82.5 t-26.5 115t-58 108.5q-7 8 -7 30q0 39 23 121q36 128 98.5 320t140.5 431.5t144 485.5t110 479q38 205 39 370q0 23 -1 45q-6 182 -76.5 291.5t-229.5 109.5q-138 0 -249.5 -61.5t-197 -163.5t-149.5 -233t-110.5 -269t-76 -273.5t-49.5 -247t-30.5 -187t-18.5 -93.5 q-13 -38 -34.5 -56t-39 -16.5t-25.5 21.5z" />
<glyph unicode="N" horiz-adv-x="2378" d="M-276 1816q-3 4 -3 10q0 20 36 56q31 31 93.5 91t139.5 120t162.5 107.5t167.5 57.5q62 7 116 7q82 0 149 -16q111 -27 190.5 -83.5t128 -134.5t76.5 -162q52 -152 52 -346q0 -58 -5 -120q118 238 281 427q69 79 156 156t189.5 137.5t221.5 97.5t255 37q108 0 166 -82 t74 -223q8 -67 7 -146q0 -86 -9 -184q-18 -189 -59 -401.5t-101 -440.5t-126.5 -444.5t-134.5 -412t-127 -348t-103.5 -250t-62.5 -114.5q-41 -43 -92 -43q-4 1 -8 1q-56 4 -101 57.5t-65 158.5q-9 46 -10 102q0 71 15 159q256 671 412 1200q67 225 118 440.5t67 384.5 q7 68 7 125q-1 85 -15 147q-24 104 -111 104q-177 0 -334 -125.5t-296.5 -330t-261 -467t-225.5 -538t-191 -540.5t-156 -473.5t-120 -340.5t-85 -139q-23 -5 -41 -5q-37 1 -53 21q-26 30 -39 82.5t-27 115t-55 108.5q-6 8 -6 28q-1 28 11 80q20 90 62.5 229t100 318.5 t118 375.5t115.5 399.5t92 392.5q36 189 48 353q3 49 4 94q0 106 -19 189q-27 119 -100 181q-56 48 -147 47q-27 0 -56 -4q-59 -8 -120.5 -38.5t-117.5 -69t-102.5 -78t-74.5 -65.5q-43 -37 -61 -37q-7 0 -10 5z" />
<glyph unicode="O" horiz-adv-x="2787" d="M201 304q9 280 122 600q74 212 184 409t245.5 368.5t289.5 312.5t317.5 242t330 156t325.5 55q238 0 403 -121.5t247 -329.5q74 -188 74 -436q0 -26 -1 -54q-9 -282 -119 -602q-77 -212 -187 -409.5t-244.5 -369t-289.5 -311t-317.5 -240.5t-327.5 -156t-324 -55 q-238 0 -405.5 121.5t-249.5 329.5q-74 188 -74 435q0 27 1 55zM653 362q33 -222 131 -374t256 -222q104 -47 228 -47q63 0 130 12q202 36 398 169t361 333t284 448t170 517q30 163 30 308q0 94 -13 182q-32 222 -130 373t-256 221q-104 47 -228 47q-63 0 -130 -12 q-202 -36 -398 -169t-361 -333t-285.5 -448t-168.5 -517q-31 -162 -31 -307q0 -94 13 -181z" />
<glyph unicode="P" horiz-adv-x="2288" d="M-572 2493q9 41 50 54q31 8 148.5 13t291.5 6q87 1 183.5 1t202.5 -1q212 -2 428 -3q507 -8 1134 -21q195 0 379 -78t312 -214t182 -316q24 -81 25 -166q0 -104 -38 -216q-66 -202 -273.5 -417.5t-596.5 -417.5q-189 -100 -371 -152.5t-352 -68.5q-92 -9 -180 -9 q-75 0 -147 6q-156 14 -297 50q-77 -218 -153.5 -433t-145.5 -412t-128 -367.5t-102.5 -298.5t-69 -207t-28.5 -92q-3 -41 -28.5 -72t-49.5 -32h-1q-23 -1 -39 33q-8 18 -7 49q0 30 7 73q8 44 64.5 211.5t141 416t192 550.5t219.5 614q-169 54 -304.5 123t-232.5 133 q-113 74 -200 151q10 23 23 33t31 10.5t43 -20.5q15 -15 64 -57.5t132 -93.5t201 -107.5t272 -97.5q74 207 147 407t139.5 380.5t123 334t96.5 268.5q-248 8 -513 8h-549q-77 0 -146 33.5t-124 86t-93.5 113.5t-54.5 116q-11 36 -11 65q0 17 3 31zM535 620 q108 -20 231 -33.5t261 -13.5q207 0 409 67t376.5 173t307.5 238q133 133 206 263q72 128 72 239q0 117 -99 190q-100 74 -233 125.5t-292 85t-343 52.5t-387 29q-44 -118 -100 -275t-121 -340.5t-138 -387t-150 -412.5z" />
<glyph unicode="Q" horiz-adv-x="2718" d="M47 162q-1 4 -1 8q0 41 69 114q61 61 161 133q-12 82 -12 170q0 75 8 154q20 173 86 360q67 187 169.5 358.5t230.5 321t275 272.5t306 210t321.5 135.5t320.5 48.5q238 0 411 -106t264 -288t95 -427v-19q0 -238 -96 -506q-97 -276 -269 -516t-387 -424q82 -148 98 -297 q6 -49 6 -93q0 -17 -1 -33q-3 -58 -10.5 -110.5t-19 -93.5t-19.5 -69q-51 -118 -121.5 -177t-129.5 -94q-59 -31 -94.5 -44t-38.5 -13q26 38 52.5 91t47 114.5t31.5 129.5q8 41 8 84q0 26 -3 52q-15 174 -133 331q-159 -87 -319 -134.5t-319 -47.5q-253 0 -431 117.5 t-263 322.5q-51 -13 -90.5 -23t-65.5 -15q-62 -18 -96 -18q-36 0 -41 21zM694 830q2 -106 23 -200q87 20 213 30q46 4 93 4q82 0 167 -11q179 -20 345.5 -90.5t289.5 -183.5q56 -51 105 -118q133 87 248.5 207.5t207.5 262.5t157.5 300.5t93.5 325.5q18 109 18 209 q0 114 -23 217q-44 193 -149 326.5t-266 193.5q-106 40 -229 40q-64 0 -132 -11q-200 -31 -389.5 -147.5t-344 -289t-263.5 -390t-147 -450.5q-18 -107 -18 -205v-20zM888 271q108 -118 260 -171q96 -33 207 -33q65 0 135 12q13 0 28 5q-5 5 -15.5 11.5t-17.5 12.5 q-120 79 -275 118.5t-322 44.5z" />
<glyph unicode="R" horiz-adv-x="2736" d="M-101 2534q9 41 50 54q31 8 148.5 13t290.5 6q86 1 182 1q98 0 204 -1q212 -2 427 -3q507 -8 1131 -21q195 0 379 -78t313.5 -213.5t183.5 -315.5q24 -81 24 -166q0 -104 -36 -216q-65 -204 -272.5 -417.5t-596.5 -418.5q-136 -69 -264 -114t-251 -73l13 -3 q92 -607 451 -967q154 -154 379 -269t545 -147q99 -10 208 -9q243 0 536 48q424 72 969 295q87 41 128 47t49 -9q2 -4 2 -9q0 -14 -16 -36q-20 -30 -58 -60q-33 -26 -144.5 -100t-277 -166t-372.5 -189.5t-436 -171.5q-230 -73 -468 -111q-133 -21 -263 -21q-101 1 -201 13 q-226 30 -427.5 138.5t-357.5 325t-253.5 554t-115.5 826.5q-139 -21 -270 -21q-28 1 -55 1q-156 6 -298 32.5t-268.5 68.5t-231.5 93q-92 -269 -180.5 -521t-156.5 -454t-111.5 -334t-48.5 -157q-8 -59 -38 -100q-28 -42 -54 -44h-3q-24 0 -33 48q-2 12 -2 30q0 51 22 142 q10 54 55 195t113 336.5t151 432.5t173 488q-84 44 -151 87t-110 77q-54 38 -92 74q8 23 20 33q13 10 29.5 10.5t44.5 -20.5q20 -20 88.5 -75.5t190.5 -121.5q61 172 123 343t119.5 331t108.5 303.5t95 261.5h-615q-77 0 -144.5 33.5t-121.5 85.5t-92 114q-37 61 -53 116 q-10 35 -10 64q0 17 3 32zM604 791q156 -72 377.5 -124.5t516.5 -52.5q207 0 409 67t375 173t307.5 238t206.5 262q69 126 69 237q-1 4 -1 8q-2 114 -99 185q-125 92 -300.5 150t-394.5 91t-474 46t-536 15q-44 -123 -96.5 -274t-111 -317t-121.5 -345.5t-127 -358.5z" />
<glyph unicode="S" horiz-adv-x="3036" d="M72 -56q28 84 86 136q57 54 125 74q50 15 98 15q18 -1 35 -3q65 -8 109 -43q37 -30 37 -94q0 -69 -40 -141q-38 -70 -115 -134t-189 -92q15 -69 109.5 -134.5t230.5 -115t296 -79t303 -29.5q184 0 363.5 37t334.5 102t276.5 152.5t192.5 188.5q70 100 79 208q1 13 1 26 q0 95 -60 188q-68 106 -224 203.5t-418 179.5q-220 67 -407 121.5t-335 110t-254.5 116.5t-164 142t-63.5 189q-1 12 -1 24q0 101 48 234q51 148 163.5 269.5t266 219t338 168t375.5 118t379 70.5t352 23q246 0 427.5 -45t297.5 -121q118 -75 166 -176q33 -69 33 -143 q0 -36 -8 -73q-23 -113 -75.5 -191t-119 -127t-142 -70.5t-139.5 -21.5q-97 0 -138 64q-24 38 -24 82q0 30 11 64q15 41 46 79.5t72 69t91 48.5t103 18q36 0 70.5 -15.5t60.5 -33.5q28 -20 54 -46q30 80 30.5 150t-30.5 132q-26 54 -81 103.5t-151 90.5t-239.5 65.5 t-348.5 24.5q-200 0 -400.5 -37t-378.5 -102.5t-321.5 -152.5t-229 -185.5t-99.5 -206.5q-2 -16 -2 -31q0 -91 68 -179q80 -104 266 -200t504 -176q287 -72 519.5 -148.5t381 -184t198.5 -258.5q19 -59 19 -128q0 -110 -48 -246q-77 -223 -230.5 -384t-362.5 -266t-461 -155 t-526 -50t-516 51t-411 144.5t-245 225.5q-43 75 -43 159q0 64 25 132z" />
<glyph unicode="T" horiz-adv-x="1587" d="M-238 2414q154 -36 360 -54t440 -24q117 -2 238.5 -2t247.5 2q252 5 498 14.5t475 22.5t417.5 23t326.5 16q89 4 146 3q31 0 53 -1q122 -8 174 -52q48 -41 48 -94v-8q-4 -58 -54 -118.5t-127 -98.5q-46 -23 -193 -37t-357 -22q-209 -8 -463 -9h-85q-211 0 -422 4 q-38 -108 -105 -298.5t-151.5 -430t-180.5 -512t-190.5 -542.5t-181.5 -522.5t-155 -452t-110 -330t-47 -158.5q-10 -59 -40 -103t-56 -46h-2q-24 0 -33 49q-3 13 -3 30q0 53 23 149q13 56 60.5 202t116.5 348.5t155 448t176.5 504t183 514.5t173 479t143.5 399.5t98 273.5 q-166 3 -322 9.5t-292 15.5t-244.5 18t-177.5 21q-182 31 -292 92.5t-169 122.5q-69 72 -100 154z" />
<glyph unicode="U" horiz-adv-x="2304" d="M86 -261q6 223 51 471t120.5 510.5t157.5 509.5t162.5 464.5t136.5 376.5q13 38 70.5 101t132 124.5t153.5 112.5t137 67q20 6 37 6q30 0 45 -20q10 -12 10 -35q0 -35 -22 -95q-10 -31 -52 -133t-102.5 -254.5t-133.5 -343t-143 -400.5t-131.5 -427.5t-102.5 -421.5 t-54 -383q-4 -56 -4 -108q0 -113 20 -204q28 -133 103.5 -211t213.5 -78t272.5 82t262.5 224t249.5 330t231.5 400.5t208.5 439t183 441.5t152.5 409.5t116.5 343t77 241t33.5 104.5q10 31 24 44t26 11q11 -4 16 -18q2 -6 2 -13q0 -11 -4 -24q-3 -8 -32.5 -109t-80.5 -266 t-125.5 -384t-167.5 -462t-206 -499t-241 -496.5t-270 -455.5t-298 -375t-322.5 -253.5t-340.5 -93.5q-218 0 -344 97q-125 98 -180 264q-49 149 -49 342q0 23 1 47z" />
<glyph unicode="V" horiz-adv-x="2342" d="M134 2306v8q0 37 32 62q34 28 107 38q22 3 47 3q58 0 133 -16q72 -15 147.5 -75t138 -194.5t106 -353.5t51.5 -549q1 -60 2 -124q0 -289 -30 -663q-36 -457 -128 -1064q28 33 106 133t193.5 248.5t258.5 336.5t303 394t326.5 422.5t326.5 422.5t306 391.5t262.5 331.5 t198 243.5t112.5 125.5q46 41 82 53q19 7 32 7q13 1 21 -5q11 -8 11 -27q-1 -9 -3 -19q-8 -34 -48 -88q-15 -18 -72.5 -92.5t-150 -189.5t-212.5 -266t-258.5 -325.5t-289.5 -363.5t-302 -379q-535 -671 -1201 -1510q2 -23 1.5 -45.5t-1.5 -44.5q-5 -36 -14 -77t-37 -66 q-28 -26 -85 -45q-58 -20 -121 -26q-25 -3 -49 -2q-37 0 -70 6q-56 10 -79 44q-6 7 -6 34q-1 34 9 102q16 120 47.5 310.5t66 435t58.5 513.5t32 543q2 60 2 119q0 209 -22 403q-28 248 -97.5 454t-194.5 340q-44 44 -48 86z" />
<glyph unicode="W" horiz-adv-x="2777" d="M-67 -1034q-2 4 -2 16q0 32 15 120q21 120 58 310.5t80.5 435t80.5 513.5t59 543q16 201 16 388q0 68 -2 134q-8 248 -52.5 454t-139.5 340q-35 46 -35 90q0 39 30 66q31 28 93 38q19 3 39 3q49 0 111 -16q59 -15 116.5 -75t101 -194.5t65.5 -353.5q13 -134 13 -309 q0 -112 -5 -240q-14 -330 -72 -787t-170 -1064q33 44 89.5 127t128 190.5t154.5 231.5t167.5 249.5t164 244.5t148.5 214q31 259 60.5 506t52.5 446.5t36 334t13 172.5v12q-1 47 21 88q24 46 64 78t86 48q32 11 62 10q12 0 24 -2q40 -6 66.5 -39.5t29.5 -94.5 q0 -108 -11.5 -229.5t-32 -285t-48.5 -382.5t-61.5 -516t-67 -687.5t-63.5 -897.5q26 33 96 138l175 262.5t235.5 357.5t275 418.5t295.5 449t297 449.5t278 416t238 352t179.5 257.5t101.5 130.5q39 41 69 53q16 7 27 7q11 1 17 -5q9 -7 9 -23q0 -9 -3 -23q-9 -34 -48 -88 q-15 -20 -86.5 -125.5t-184.5 -270.5t-259 -379t-306 -449.5t-329 -482.5t-329 -481t-302 -443t-252 -366t-178 -254.5t-78 -107.5q-23 -26 -73 -45q-51 -20 -103 -26q-21 -3 -40 -2q-30 0 -56 6q-44 10 -63 44q-4 7 -4 38q0 35 5 101q9 124 28.5 320t48.5 445.5t60 516.5 q-125 -177 -270 -378t-270 -378q-146 -205 -292 -409q0 -46 -5 -90q-5 -36 -16.5 -77t-34.5 -66q-23 -26 -72 -45q-49 -20 -101 -26q-20 -3 -40 -2q-30 0 -58 6q-46 10 -65 44z" />
<glyph unicode="X" horiz-adv-x="2229" d="M-218 -741q0 8 52 83q56 79 156 212.5t242 308.5t311 377.5t362 419t398 431.5q-61 248 -116 473t-96 400q-46 202 -87 378q-7 28 -7 50q1 22 7 40q12 36 35 46q9 4 19 4q15 0 31 -9q27 -15 43 -61q5 -20 30.5 -124t65 -265.5t91 -367.5t109.5 -434q238 243 479 462 t467.5 384t430 262.5t364.5 97.5q71 10 120 10q21 1 39 -1q56 -6 69 -28q4 -7 4 -14q-1 -15 -17 -34q-26 -28 -87 -59q-151 -20 -354.5 -148t-437.5 -329t-487.5 -453t-499.5 -519q69 -274 135.5 -537.5t121.5 -473.5t92.5 -348t49.5 -164q22 -43 22 -83q0 -8 -1 -16 q-4 -48 -30 -62q-8 -5 -18 -5q-21 0 -49 22q-41 32 -87 144q-20 49 -57.5 181t-86 318.5t-105 414.5t-112.5 469q-166 -182 -324 -360t-296 -339t-254.5 -299.5t-203.5 -241t-141 -162.5t-66 -68q-38 -24 -90 -30q-32 -4 -63 -4q-19 0 -38 2q-50 4 -87 17q-48 17 -48 32z " />
<glyph unicode="Y" horiz-adv-x="2521" d="M223 -1170q-1 1 -1 3q0 13 34 74q38 69 105 175t152.5 239.5t177.5 271.5q215 323 489 724q-77 553 -143 999q-28 189 -55 373.5t-49 334t-37 248.5t-18 116q-3 14 -3 27q0 21 8 36q13 25 33 33q11 5 22.5 5t23.5 -5q26 -8 44 -39q13 -23 29.5 -116.5t36 -232 t38.5 -307.5t39.5 -344t38.5 -345.5t34.5 -311t29.5 -236.5t20 -124q251 422 477.5 731.5t425 528.5t367.5 357.5t307.5 220.5t243.5 116.5t174 44.5q71 10 120 10q21 0 39 -1q56 -7 70 -28q5 -7 5 -15q0 -15 -17 -33q-25 -28 -87 -59q-125 -15 -279 -121t-325.5 -276.5 t-357 -392t-369.5 -467t-364.5 -504t-343 -503t-303.5 -462.5t-247.5 -384t-173 -266t-81.5 -110q-38 -23 -91 -29q-32 -5 -64 -5q-19 0 -38 2q-50 4 -90 16.5t-47 30.5z" />
<glyph unicode="Z" horiz-adv-x="2132" d="M-776 -1249q187 154 410 362.5t461 447.5t483.5 499t481 516t454.5 496.5t403.5 444t325 357.5t222.5 235q-46 -13 -101 -28t-114 -28q-192 -46 -425 -82t-468 -51q-178 -11 -344 -11q-55 0 -109 1q-215 5 -379 25q-167 19 -263 39q-78 16 -88 16q-3 0 -2 -1 q-28 8 -33.5 27t5 41t31 37t45.5 13q10 0 114 -19.5t280 -34.5t394 -17q14 0 30 1q204 0 424 19q236 20 463.5 60t411.5 88q161 38 272.5 76.5t147.5 51.5q5 5 18 8q18 13 41 13q25 6 46 6q58 -1 80 -49q10 -23 11 -52q0 -54 -35 -128q-20 -49 -138 -187t-298.5 -335 t-408 -436.5t-469.5 -488t-482.5 -489t-448.5 -440.5q20 -92 62.5 -218.5t118 -265t192 -273t284.5 -242t394 -173.5q222 -65 509 -66h13q294 2 663.5 81.5t825.5 263.5q87 41 129 47q42 8 50 -8q2 -4 2 -9q0 -14 -16 -35q-22 -28 -60 -59q-33 -26 -138 -96.5t-264 -160 t-357 -185.5t-419 -170q-222 -75 -454 -117q-170 -31 -334 -31q-60 1 -120 5q-222 16 -423.5 104t-364 273.5t-272.5 481t-151 728.5q-115 -108 -206 -192.5t-158 -143.5q-218 -187 -393 -294t-301 -164q-146 -67 -261 -84z" />
<glyph unicode="[" horiz-adv-x="1305" d="M-9889.5 -1957q2.5 32 25.5 78q13 23 55.5 102.5t139.5 188t257 233t408.5 235.5t594 197t812.5 118t1067.5 -5t1355.5 -168q1021 -179 1834 -227.5t1445.5 -7.5t1099.5 152t798 255q778 335 1085 883q28 84 20.5 180t-51 178t-121.5 138.5t-189.5 66.5t-252.5 -40 t-312 -180q-59 -46 -74.5 -47.5t-10.5 15t11 28.5l20 35q87 72 184 128q82 49 187 89.5t220 40.5q74 0 159 -10t161.5 -38.5t139.5 -81t96 -137t28 -203.5t-64 -285q-44 -123 -164 -284.5t-323.5 -334t-494 -343t-672 -315t-860.5 -248t-1057.5 -142t-1262 2.5t-1476.5 184 q-1119 202 -1944.5 275t-1395 26t-901.5 -208.5t-465 -425.5q-36 -77 -61.5 -107.5t-39.5 -26.5t-11.5 36z" />
<glyph unicode="\" d="M560.5 1575.5q7.5 19.5 29.5 -11.5t45 -107q54 -161 105 -308.5t101 -293.5t101 -295.5t105 -316.5q67 -200 95 -316t33 -178q8 -72 -8 -100q-74 241 -154.5 478t-156 450.5t-140 395t-102.5 312.5t-49.5 201t-4 89.5z" />
<glyph unicode="]" horiz-adv-x="1305" d="M-8553 -1957q3 32 26 78q13 23 55 102.5t138 187t256 230.5t407 234t594 195.5t814 116.5t1067.5 -2.5t1358.5 -162.5q840 -143 1496.5 -174t1159.5 18t866.5 156.5t616.5 242.5q591 315 786 812q28 84 20.5 180t-51 178t-121.5 138.5t-189.5 66.5t-252.5 -40t-312 -180 q-59 -46 -74.5 -47.5t-10.5 15t11 28.5l20 35q87 72 184 128q82 49 187 89.5t220 40.5q74 0 159 -10t161.5 -38.5t139.5 -81t96 -137t28 -203.5t-64 -285q-44 -123 -142.5 -274t-259.5 -307t-386.5 -306t-520 -273t-661.5 -207.5t-814 -110t-973 20.5t-1140 182 q-701 156 -1303 226.5t-1103.5 69t-902.5 -65.5t-699 -176.5t-492.5 -263.5t-281.5 -328q-36 -77 -61.5 -107.5t-40 -26.5t-11.5 36z" />
<glyph unicode="^" horiz-adv-x="1323" d="M681 1492q-15 10 15.5 50t89.5 92.5t133 111.5t144.5 109t128 82t78.5 32q20 0 65 -26t98.5 -65.5t107.5 -88t95 -97t61 -91t5 -68.5q-23 -36 -79 -67.5t-120 -52t-121.5 -26t-81.5 12.5q-23 15 -53.5 69t-62.5 113t-61.5 105t-49.5 46t-75.5 -43.5t-118 -93.5 t-119 -85.5t-79.5 -18.5z" />
<glyph unicode="_" d="M15 -31q128 -13 260 -11.5t252.5 6.5t222.5 9t169 -4q69 -5 92 -55t14 -107.5t-42 -105t-74 -47.5h-172t-162.5 1.5t-163.5 1.5h-175q-110 0 -157.5 48.5t-60.5 107.5q-15 67 -3 156z" />
<glyph unicode="`" horiz-adv-x="1707" d="M773 1817.5q-26 48.5 15 97.5q59 67 125.5 72t134.5 -27t132 -91t120.5 -123t98.5 -123t65 -90q13 -18 10.5 -42t-14 -43.5t-29.5 -24.5t-36 16q-13 15 -73 42t-142 64t-167.5 82t-149.5 93.5t-90 97z" />
<glyph unicode="a" horiz-adv-x="1822" d="M119 337q19 101 76.5 212t153.5 225t230 219q141 113 272.5 169.5t246.5 76.5q75 13 141 13q24 0 46 -2q85 -6 138.5 -24t75.5 -42t4 -42q-23 -20 -37 -18t-37.5 13.5t-64 24.5t-117.5 13q-72 0 -156.5 -32t-167.5 -87t-158.5 -129.5t-129.5 -155.5q-82 -123 -104 -217 q-13 -56 -14 -102q1 -30 7 -56q14 -66 55 -99t87 -33q84 0 158.5 51t138.5 126.5t117.5 164t99.5 164t84.5 125.5t71.5 50t43.5 -55t14.5 -136t6.5 -177t18 -176.5t51 -135.5t104.5 -55q51 0 102.5 21.5t95.5 50.5q46 31 92 71l115 100q17 23 43 23q27 0 27 -25q0 -5 -1 -11 q-3 -3 -35 -36t-88 -83t-130.5 -107.5t-160 -106t-175 -82t-176.5 -33.5q-92 0 -145 60.5t-78.5 134.5t-32 137t-6.5 70q-8 -8 -68 -70.5t-149.5 -136.5t-198 -134.5t-213.5 -60.5q-113 0 -179.5 45t-89.5 122q-13 42 -13 92q0 40 9 86z" />
<glyph unicode="b" horiz-adv-x="1694" d="M-4 -198q8 86 39.5 224t87.5 319.5t133 384t171.5 415t204.5 413.5t235.5 379t260 311t279 211t295.5 78q108 0 112 -83v-9q0 -81 -64 -210q-68 -136 -189.5 -307.5t-265 -350.5t-290.5 -349.5t-265 -300.5q-36 -102 -65.5 -197t-54.5 -177q69 102 162.5 216t203.5 210 t234 157.5t260 61.5q143 0 222.5 -52.5t106.5 -135.5q15 -46 15 -98q0 -43 -10 -90q-22 -105 -81 -210t-151 -200t-205 -159q-136 -77 -276.5 -115t-266.5 -54q-115 -14 -211 -14h-19q-102 2 -161 7q-51 -100 -106 -177t-111.5 -126.5t-111.5 -67.5q-26 -9 -51 -9 q-28 0 -55 11q-15 6 -15 53q1 18 3 41zM489 187q31 -13 78 -22t107.5 -9t129.5 16.5t146 57.5q74 38 147 107.5t134.5 150t105 166.5t59.5 162q7 33 6 62q0 36 -10 66q-20 54 -86 72q-20 6 -42 6q-38 0 -78 -16q-66 -26 -134.5 -77t-139 -119t-134.5 -138t-116.5 -137 t-85.5 -113q-26 -77 -47.5 -137t-39.5 -98zM809 1108q123 141 251 294.5t240.5 301t204.5 279.5t146 233t62 160q1 8 1 14q0 45 -47 45q-79 0 -157.5 -55.5t-154 -150t-149.5 -222.5t-142 -275t-132 -307t-123 -317z" />
<glyph unicode="c" horiz-adv-x="1336" d="M147 410q4 110 40 207q33 100 112.5 215t189.5 213.5t245.5 164t281.5 65.5q82 0 141 -25.5t96 -67.5t49 -96q5 -23 5 -48q0 -31 -9 -63q-13 -41 -32 -82t-44.5 -76.5t-57.5 -62.5t-71 -42q-36 -18 -77 -18q-58 0 -84 40q-14 22 -14 49q0 23 9 49q20 59 76.5 100 t115.5 41q54 0 77 -36q8 25 12 69l2 22q0 33 -11 64q-14 42 -56 74t-132 32q-87 0 -167.5 -75.5t-140.5 -189.5t-92 -247q-24 -101 -24 -192q0 -28 2 -55q10 -114 70 -189.5t186 -75.5q74 0 174 31q84 28 205.5 88t275.5 183q26 23 41 25.5t21 -7.5q4 -6 5 -15q1 -5 -1 -11 q-4 -16 -15 -25q-8 -8 -57.5 -45t-129 -87t-179.5 -106.5t-210 -103.5t-220 -78t-210 -31q-151 0 -238 62t-125 154q-35 84 -35 181v21z" />
<glyph unicode="d" horiz-adv-x="1817" d="M116 337q20 101 77.5 212t153.5 225t229 219q131 105 253.5 160t230.5 78q3 0 25.5 4t28.5 -14q3 -20 -29 -38q-61 -26 -126.5 -68t-128 -96t-117.5 -113t-93 -118q-78 -123 -102 -220q-15 -61 -15 -110q0 -29 5 -55q14 -68 57.5 -103.5t97.5 -35.5q97 0 178 64t152 153 q3 92 28.5 211.5t79.5 272.5q108 307 256 591.5t323.5 502t371.5 348t400 130.5q82 1 99 -47q6 -17 7 -40q0 -38 -20 -90q-30 -82 -100 -192t-163.5 -238t-205 -265t-221.5 -272.5t-215 -262t-184 -234.5q-44 -133 -49 -243q-2 -42 -2 -78q0 -58 5 -99q5 -20 6.5 -37 t6.5 -32v-8q0 -3 2 -2v-3q13 -82 49 -133t105 -51q51 0 102 21.5t95 50.5q49 31 95 71l112 100q18 23 44 23q33 0 25 -36q-3 -3 -34.5 -36t-88 -83t-130.5 -107.5t-160 -106t-175.5 -82t-176.5 -33.5q-79 0 -128 46t-77 108q-33 44 -53.5 96t-28.5 127q-31 -33 -93.5 -96 t-145.5 -126t-178 -109t-187 -46q-113 0 -179.5 45t-89.5 122q-12 42 -12 90q-1 42 8 88zM1544 1111q115 156 240.5 315t240.5 306t211 275t155 222.5t69 150.5q2 9 2 16q0 39 -45 39q-79 0 -157.5 -55.5t-156.5 -150t-153.5 -222.5t-146 -275t-137 -306t-122.5 -315z" />
<glyph unicode="e" horiz-adv-x="1336" d="M150 410q4 110 39 207q33 100 112.5 215t190 213.5t246 164t281.5 65.5q118 0 178 -35q61 -34 77 -88q8 -27 8 -56.5t-8 -61.5q-16 -64 -48 -123q-38 -64 -111 -139.5t-161.5 -149.5t-179 -143t-165.5 -121q26 -82 81 -133t157 -51q74 0 174 31q84 28 206 88t276 183 q26 23 41 26q16 2 22 -8q4 -6 4 -14q0 -6 -2 -12q-4 -16 -14 -25q-8 -8 -58 -45t-129 -87t-179 -106.5t-210 -103.5t-220 -78t-210 -31q-151 0 -238 62q-88 62 -126 154q-35 84 -34 181v21zM594 430q72 46 156.5 106t163.5 125.5t143 131t92 121.5q41 79 45 134q1 9 1 17 q1 43 -17 71q-20 34 -63 49.5t-94 15.5q-87 0 -168.5 -78.5t-143 -193.5t-95.5 -249q-24 -97 -24 -184q0 -34 4 -66z" />
<glyph unicode="f" horiz-adv-x="1167" d="M-208 -772q11 101 53 269t111.5 386.5t160 464.5t201 503t235.5 500.5t262 458.5t283 376.5t296 256t301 94.5q97 0 109 -68q2 -13 2 -28q0 -62 -38 -151q-48 -111 -145 -258.5t-217.5 -306t-255 -320t-254.5 -299.5q28 20 57.5 35.5t57.5 30.5q44 23 93 23q23 0 46 -5 q76 -15 144 -45.5t119 -61.5t67 -33q15 0 26.5 6t22 12.5t18 8t12.5 -8.5q8 -10 2.5 -24.5t-28.5 -40t-67.5 -68t-121.5 -106.5q-51 -44 -98 -46h-10q-42 0 -83 17q-45 19 -88.5 51t-84 61.5t-78.5 47.5q-21 10 -43 10q-15 0 -30 -5q-61 -23 -97 -59q-90 -236 -166.5 -457 t-138 -404t-102.5 -310t-59 -168q-54 -115 -112.5 -208.5t-120 -153.5t-120.5 -85q-30 -12 -60 -12q-27 0 -53 11q-13 5 -13 48q0 24 5 61zM817 1129q123 141 248 292t236.5 295.5t201 275t142 229t60.5 156.5q1 7 1 14q0 44 -47 44q-100 0 -206 -109t-213.5 -291 t-215.5 -417.5t-207 -488.5z" />
<glyph unicode="g" horiz-adv-x="1433" d="M-252 -618q14 70 64 147t125.5 155t171.5 157.5t201 155.5q-136 23 -181 125q-25 56 -25 125q0 57 18 123q37 145 152 311t299 312q138 113 270 169.5t248 76.5q75 13 140 13q24 0 47 -2q84 -6 139 -24t77 -42q12 -13 12 -25q0 -9 -8 -17q-26 -20 -40 -18t-37 13.5 t-64 24.5t-118 13q-72 0 -156.5 -32t-167.5 -87t-158.5 -129.5t-129.5 -155.5q-79 -123 -102 -217q-14 -58 -14 -105q0 -29 5 -53q14 -66 55 -99t87 -33q87 0 161 51t138 126.5t118 164t100 164t84.5 125.5t71.5 50q23 0 34.5 -32t11.5 -83.5t-6.5 -118t-16.5 -135.5 q-25 -161 -74 -366q-38 -297 -131.5 -511t-218 -354.5t-270 -215t-288.5 -95.5q-62 -8 -122 -8q-79 0 -154 15q-132 27 -227 91q-79 51 -107 115q-19 43 -19 88q0 23 5 47zM-94 -556v-14q0 -57 46 -93q53 -41 184 -41q202 0 341.5 96t239.5 252t169 353.5t130 399.5 q-69 -79 -148 -151q-67 -61 -152.5 -123t-177.5 -97l-6 -6q-113 -44 -221.5 -115t-196.5 -150.5t-144.5 -161.5t-63.5 -149z" />
<glyph unicode="h" horiz-adv-x="1774" d="M-30 -254q18 128 72.5 329t144 454.5t207.5 516t261.5 513.5t306 447t340.5 315t367 119q107 0 111 -84v-8q0 -82 -64 -210q-68 -134 -189.5 -306.5t-264.5 -352t-289 -349.5t-264 -301q-38 -108 -74 -207t-64 -189q69 90 148.5 189.5t161.5 194t162.5 180.5t149.5 151 t124 103.5t88 38.5q41 0 58 -46t17 -123t-10.5 -173t-23 -198t-20.5 -198q-5 -59 -5 -111q0 -32 2 -62q5 -77 29.5 -123t75.5 -46t102.5 21.5t94.5 50.5q46 31 93 71q31 26 56 49q20 20 38 35.5t21 15.5q5 10 18 16.5t25 6.5q27 0 27 -25q0 -5 -1 -11q-3 -3 -35 -36t-88 -83 t-130.5 -107.5t-160 -106t-175 -82t-177.5 -33.5q-95 0 -144.5 58t-69.5 145q-19 81 -20 175v14q2 102 8 189t10 146q1 12 1 22q0 37 -12 40h-6q-30 1 -80 -47q-55 -52 -118 -135.5t-129.5 -183.5t-122.5 -188.5t-94.5 -152.5t-46.5 -77q-51 -105 -106 -185.5t-111.5 -133 t-111.5 -71.5q-27 -9 -52 -9q-26 0 -51 10q-17 6 -17 57q0 32 7 81zM771 1011q123 141 250.5 293.5t240.5 299.5t205 280t146 233q53 100 61 159q1 7 1 14q0 45 -47 45q-79 0 -156 -55t-153.5 -150t-149.5 -223t-142.5 -275t-134.5 -306t-121 -315z" />
<glyph unicode="i" horiz-adv-x="1221" d="M84 376.5q0 12.5 21 30.5q151 141 280.5 296t242 285.5t213.5 216t198 85.5q41 0 47 -46q1 -11 1 -24q0 -40 -13 -99q-17 -77 -50 -173t-69 -198t-66.5 -198t-42.5 -173q-6 -37 -5 -67q1 -32 7 -56q12 -46 63 -46t112.5 21.5t115.5 50.5q64 31 126 71l112 100 q18 23 44 23q27 0 27 -23q0 -6 -2 -13q0 -3 -35.5 -36t-96 -83t-138.5 -107.5t-166 -106t-180.5 -82t-179.5 -33.5q-95 0 -143.5 37.5t-64.5 98.5q-11 39 -11 87q0 25 3 53q9 80 30.5 160.5t51 160t54 141t36 98.5t1.5 37q-54 -64 -128.5 -146t-141 -154.5t-117.5 -126.5 t-59 -62q-18 -18 -35.5 -21.5t-29.5 3t-12 19zM924 1702q15 44 44.5 82.5t68 66.5t83.5 44.5t88 16.5q90 0 131 -62q23 -35 23 -78q0 -33 -13 -70q-15 -44 -46 -83t-70.5 -67.5t-84 -45t-88.5 -16.5q-90 0 -128 62q-21 34 -22 76q0 34 14 74z" />
<glyph unicode="j" horiz-adv-x="1218" d="M-361 -642q-6 32 -6 64q0 97 53 202q71 140 218 282.5t344 267.5q51 33 107.5 56t113 41t107.5 33.5t92 30.5q69 189 120 341q23 64 42.5 125.5t33.5 110t20.5 78t-1.5 29.5q-36 -44 -94.5 -102.5t-129 -124t-147.5 -134.5t-150 -129.5t-138 -109t-109 -73.5 q-28 -18 -49.5 -23.5t-29.5 2.5t3.5 26t50.5 43q95 59 196 148.5t203 189.5t202 200t193.5 179t176.5 129t155 50q84 0 93 -70q1 -12 1 -26q0 -70 -38 -198q-46 -154 -137 -398t-206 -595q-118 -351 -257.5 -562.5t-287.5 -307.5q-139 -90 -278 -90q-9 0 -18 1 q-149 6 -283 96q-143 92 -166 218zM-168 -448q-4 -27 -4 -52q0 -55 21 -99q31 -64 110 -87q23 -7 46 -7q67 0 139 54q97 73 189 210t175 319t142 374h-2q-187 -56 -333 -142t-248.5 -183.5t-161.5 -198.5t-73 -188zM950 1702q15 44 44.5 82.5t68 66.5t83 44.5t88.5 16.5 q87 0 128 -62q23 -35 23 -78q0 -33 -13 -70q-15 -44 -46 -83t-69 -67.5t-83 -45t-89 -16.5q-90 0 -128 62q-21 33 -21 76q0 34 14 74z" />
<glyph unicode="k" horiz-adv-x="1564" d="M-18 -169q18 128 73 329t144.5 454.5t207.5 516t261.5 512t306 445.5t340 315t367.5 119q108 0 112 -84v-8q0 -82 -65 -210q-68 -134 -189.5 -306.5t-264.5 -352t-289 -349.5t-264 -301l-21 -59q64 69 146 143.5t173 140t188 114t197 63.5q57 10 103 10q86 -1 132 -35 q67 -50 66 -135v-10q-4 -93 -71.5 -211t-182.5 -220q-92 -79 -197.5 -132t-211.5 -79.5t-206 -30.5q-18 -1 -36 -1q-79 0 -143 15q3 -51 23 -138t74 -182t154 -182q100 -88 261 -136q146 -44 353 -44q21 0 43 1q236 5 561 92q46 26 66.5 29.5t24.5 -5.5q1 -2 1 -5 q-1 -8 -9 -22q-12 -18 -31 -35q-20 -20 -101 -79.5t-199 -129.5t-261 -133t-289 -90q-74 -14 -147 -14q-70 0 -138 13q-138 26 -245.5 133.5t-174 314.5t-68.5 545q-33 -100 -57.5 -172.5t-40.5 -106.5q-51 -115 -110 -208.5t-120.5 -152.5t-121.5 -83q-31 -12 -60 -12 q-28 0 -54 11q-17 6 -17 56q0 32 7 82zM604 561l21 -3q18 -4 42 -5q29 -1 67 7q68 12 143 44.5t146.5 83t120.5 111.5t77 127q25 59 25 103v10q-4 47 -46 61q-11 4 -26 3q-41 0 -109 -30q-67 -31 -133.5 -88.5t-124 -121.5t-103.5 -127t-77 -106q-8 -18 -11.5 -34.5 t-11.5 -34.5zM788 1093q123 141 251 294.5t241 301t205 279t145.5 232.5t61.5 160q1 8 1 14q0 45 -47 45q-79 0 -156 -55t-153.5 -149.5t-149.5 -222.5t-142.5 -275.5t-134.5 -307.5t-122 -316z" />
<glyph unicode="l" horiz-adv-x="980" d="M163 439q9 129 35.5 270t67.5 282t85 261q159 358 356 642q84 120 182.5 235.5t210 206.5t235.5 146t255 55q132 1 144 -89q2 -13 1 -29q1 -83 -59 -207q-70 -146 -205 -331.5t-293 -380.5q-374 -458 -940 -1037l-64 21q515 543 868 970q151 182 280.5 357.5t205.5 312.5 q76 136 84 220q1 6 1 11q0 72 -87 72q-95 0 -200 -95t-207.5 -251t-197 -355.5t-169 -407t-122.5 -406.5q-48 -200 -60 -356q-3 -41 -4 -79q0 -103 24 -173q32 -94 119 -94q7 -1 14 -1q37 0 91 21q54 20 133.5 73t191.5 160q15 13 28 14.5t22 -5t11.5 -19.5t-7.5 -25 q-8 -10 -43.5 -45t-93.5 -83.5t-131 -102.5t-157 -100t-174 -75.5t-177 -29.5q-105 0 -163 59q-56 59 -78 159q-15 70 -16 155q0 36 3 74z" />
<glyph unicode="m" horiz-adv-x="2803" d="M136 387q2 173 51 396q36 141 105 254q31 49 70.5 95t92 81.5t119 57.5t148.5 22t106 -36q15 -22 15 -53q0 -19 -6 -42q-15 -59 -65 -137t-116.5 -161t-142 -166.5t-144.5 -153.5t-123 -124l-77 -77q-13 5 -13 14t1.5 19.5t2.5 22t-9 21.5q46 36 125.5 110t162.5 165 t160 187t121 174q42 75 42 125q0 53 -73 53q-72 0 -108 -66q-36 -68 -46 -166q-5 -46 -5 -95q0 -57 6 -119q12 -116 36 -214t55 -164.5t62 -66.5t88.5 70.5t129 175.5t153.5 228t160 227.5t147 175t118 70.5h2q5 0 10.5 -1t10.5 -1q49 -13 68 -80q20 -66 22 -160 q1 -26 0 -53q0 -69 -4 -147q-6 -108 -12 -208q-3 -52 -2 -99v-16q0 -54 5 -93.5t17.5 -64t35.5 -24.5h6q28 5 70 52.5t86 103.5q49 64 105 144l56 89q64 97 128 197t125.5 180.5t117.5 130.5t103 50q41 0 57.5 -46t16.5 -123t-10.5 -173t-23 -198t-20.5 -198q-5 -57 -4 -107 q-1 -35 1 -66q6 -77 30 -123t75 -46t102.5 21.5t95.5 50.5q46 31 92 71l112 100q18 23 46 23q25 0 25 -23q0 -6 -2 -13q0 -3 -33 -36t-89.5 -83t-130.5 -107.5t-158.5 -106t-174 -82t-176.5 -33.5q-95 0 -142.5 56.5t-63.5 139.5q-11 58 -10 125q0 29 2 57q6 98 16.5 181.5 t17 140t-9.5 56.5q-15 0 -56 -56.5t-100 -140t-130.5 -182t-148.5 -181.5t-153.5 -139.5t-146.5 -56.5h-23h-2h-18q-87 0 -129.5 58t-54.5 145q-7 51 -6 108q0 39 3 81q8 102 19.5 189t16.5 145t-10 58q-18 0 -56.5 -58t-93.5 -145t-125.5 -189t-150 -189t-166.5 -145 t-176 -58q-72 0 -117 33.5t-71.5 90t-35.5 126.5t-9 145z" />
<glyph unicode="n" horiz-adv-x="1843" d="M128 387q3 174 51 396q36 141 105 254q31 49 70.5 95t92 81.5t119 57.5t148.5 22q97 0 114 -50q5 -16 5 -35q0 -42 -24 -96q-36 -80 -111.5 -178.5t-162.5 -198.5q10 -77 25.5 -147.5t36 -124t42 -87t42.5 -33.5q23 0 78 70.5t128 175.5t156 228t164 227.5t152.5 175 t117.5 70.5q41 0 57.5 -46t16.5 -123t-10 -173t-23 -198q-12 -102 -20 -198q-4 -58 -5 -108q0 -34 2 -65q5 -77 29.5 -123t75.5 -46t102.5 21.5t94.5 50.5q46 31 92 71l115 100q18 23 44 23q27 0 27 -25q0 -5 -1 -11q-3 -3 -35 -36t-88.5 -83t-130.5 -107.5t-160 -106 t-175.5 -82t-176.5 -33.5q-95 0 -142 56q-46 57 -62 140q-11 58 -11 125q-1 29 1 57q6 98 16.5 181.5t18.5 140t-8 56.5q-23 0 -67.5 -56.5t-106 -140t-133.5 -182t-150 -181.5t-156 -139.5t-150 -56.5q-69 0 -115 33.5t-71.5 90t-34.5 126.5t-9 145zM536 968q-3 -34 -2 -68 q0 -43 4 -88q69 79 126.5 155.5t87.5 135.5q24 47 25 80q1 8 -1 15q-8 36 -69 36q-51 0 -87 -36t-57 -95t-27 -135z" />
<glyph unicode="o" horiz-adv-x="1359" d="M142 372q-1 13 -1 27q0 102 41 218q46 131 133 244.5t197 198t234 134.5t247 50t214 -50t142 -134t57 -198q1 -14 1 -29q0 -101 -40 -216q-46 -131 -133 -244.5t-197 -198t-235.5 -134.5t-248.5 -50t-212.5 50t-141 134t-57.5 198zM573 589q-5 -37 -5 -72q0 -56 13 -106 q21 -81 65 -133q42 -53 108 -76q37 -13 78 -13q32 0 67 8q77 18 151 70.5t134 128t100 169t52 190.5q3 32 3 63q0 62 -13 114q-20 80 -66 134q-47 52 -112 74q-35 12 -74 12q-33 0 -68 -8q-79 -18 -152 -70.5t-132 -126.5t-98.5 -167.5t-50.5 -190.5z" />
<glyph unicode="p" horiz-adv-x="1367" d="M-348 -986q-5 8 -5 28q0 23 7 62q11 72 37.5 178t65 233t82 255t89.5 243t87 197q61 123 125.5 253.5t124.5 238t116.5 175.5t104.5 68q33 0 36 -50q1 -16 1 -34q0 -40 -5 -91q-6 -76 -15 -164q-4 -41 -4 -79q0 -45 5 -85q11 -76 48 -127t124 -51q46 0 110 33t124 98.5 t103.5 159t51.5 216.5q1 13 1 27q0 67 -22 129q-25 74 -71 129t-109 87t-134 32q-77 0 -127 -13t-80.5 -24.5t-46 -14t-25.5 18.5q-8 18 31.5 42t107.5 42t158 24q23 2 47 2q66 0 134 -13q97 -20 189.5 -76.5t156.5 -169.5q59 -105 74 -219q6 -49 6 -97q0 -65 -11 -128 q-20 -111 -71.5 -212t-129.5 -178t-176.5 -122t-211.5 -45q-110 0 -176.5 63t-102.5 140q-44 87 -64 202q-82 -202 -128 -375t-76.5 -310t-56 -233t-69.5 -142q-33 -36 -98.5 -102.5t-134.5 -125.5t-125 -92q-30 -17 -48 -17q-17 0 -24 14z" />
<glyph unicode="q" horiz-adv-x="1635" d="M80 337q20 101 77.5 212t153.5 225t229 219q141 113 273 169.5t247 76.5q75 13 140 13q24 0 46 -2q85 -6 140 -24t77 -42t4 -42q-26 -20 -40 -18t-37 13.5t-64 24.5t-118 13q-72 0 -156 -32t-167.5 -87t-159 -129.5t-129.5 -155.5q-82 -123 -104 -217q-13 -56 -13 -102 q0 -31 6 -56q14 -66 55 -99t87 -33q84 0 158.5 51t138.5 126.5t118 164t100 164t84.5 125.5t71.5 50q49 0 56 -68q3 -22 3 -49q0 -54 -11 -126q-15 -108 -43 -238.5t-54 -253.5q-5 -15 -10 -36q154 54 303.5 133.5t264.5 196.5q8 10 23.5 16.5t27 4t11.5 -15t-21 -38.5 q-18 -20 -83 -84t-160 -143.5t-208.5 -164t-226.5 -146.5q-46 -138 -106 -291.5t-116.5 -286.5t-102.5 -227t-69 -114q-18 -15 -36 -15q-19 0 -37 17q-35 34 -63 93t-47.5 125.5t-26.5 102.5q-3 11 -3 24q0 53 43 144q52 114 131 277q-67 -15 -118 -22q-17 -2 -31 -2 q-28 0 -43 9q-26 15 -9 52.5t51.5 79.5t74 80.5t62.5 51.5q8 5 45 15t94 23q33 77 62.5 159t57.5 169q-102 -115 -207 -202q-46 -38 -97.5 -74.5t-105 -65.5t-110 -46t-110.5 -17q-113 0 -179 45t-90 122q-12 42 -12 91q0 41 8 87z" />
<glyph unicode="r" horiz-adv-x="1758" d="M86 382q6 18 32 43q161 154 264.5 267.5t167.5 194.5t93.5 128t42.5 68q-36 13 -66.5 23t-38.5 23q-25 20 -33 52q-2 10 -3 22q0 24 11 54q23 61 79 104.5t118 43.5q57 1 87 -35q22 -25 21 -59q0 -13 -3 -28q-3 -13 -6 -23q-5 -23 -15 -54q49 -15 136 -21.5t175 -13 t158.5 -19.5t83.5 -44q7 -18 7 -48q1 -28 -5 -66q-12 -80 -28 -180t-32 -206q-13 -91 -14 -170v-24q2 -88 30.5 -146t97.5 -58q51 0 112.5 21.5t115.5 50.5q64 31 126 71l112 100q18 23 44 23q27 0 27 -23q0 -6 -2 -13q0 -3 -35.5 -36t-96 -83t-138.5 -107.5t-166 -106 t-180.5 -82t-179.5 -33.5q-136 0 -201 65.5t-83 166.5q-10 54 -10 114q-1 52 7 108q16 122 39 232t42 194q12 52 12 83q0 20 -5 31q-8 20 -35 31.5t-59 18t-66.5 11.5t-57.5 13q-10 0 -26 8q-33 -61 -103.5 -155t-155 -192.5t-172.5 -190.5t-160 -154q-20 -18 -38 -23t-26 3 q-4 4 -4 12q0 6 3 14z" />
<glyph unicode="s" horiz-adv-x="1036" d="M-92 -77q-3 12 -3 21q-1 12 5 20q10 13 25.5 15.5t30 -5t14.5 -23.5q10 -82 46 -111q36 -28 78 -30q4 0 7 -1q37 1 73 15q38 16 52 25q13 10 46 32t69 63t64 103.5t30 152.5q1 12 1 23q0 85 -33 159q-37 84 -80 161l-121 -121q-13 -13 -29.5 -15.5t-26.5 5.5 q-8 10 -8 24.5t13 26.5l141 136q-28 46 -51 92t-31 92q-5 30 -5 65q1 40 7 88q12 88 68 167.5t166 134.5t299 55q103 0 131 -36q15 -19 15 -46q1 -23 -11 -51q-24 -62 -91 -146.5t-154 -184.5q28 -46 55 -95.5t52.5 -98.5t46.5 -91t36 -73q13 -31 25 -105q5 -28 6 -59 q0 -51 -14 -110q-20 -95 -89 -201t-220 -201q-147 -95 -259 -110q-36 -5 -68 -5q-68 0 -121 22q-77 32 -123 96t-64 125zM566 1012q5 -60 41 -121q72 74 121.5 137t69.5 109q10 25 10 43q0 16 -8 28q-17 26 -78 26q-51 0 -89.5 -31t-54.5 -81q-13 -38 -14 -82z" />
<glyph unicode="t" horiz-adv-x="908" d="M-3 1027q-12 9 -12 21q1 15 19 36q32 37 100 79.5t158.5 84.5t182.5 76q56 161 116.5 326t115.5 302t98.5 233t66.5 122q44 44 115.5 109t143 121t127.5 87q32 18 51 18q13 0 19 -10q1 -3 1 -7q0 -18 -15 -65q-19 -59 -56.5 -153.5t-88.5 -219t-107.5 -265t-116.5 -293 t-116 -300.5q69 -15 134 -34.5t119 -39t91 -33.5t53 -14q20 0 38 6.5t32 13t25.5 7.5t24.5 -9q7 -7 7 -16q0 -4 -1 -8q-4 -14 -34.5 -39.5t-92 -68t-163.5 -106.5q-76 -49 -157 -49q-8 1 -17 1q-90 6 -180 38q-33 -95 -57.5 -179.5t-36.5 -155.5q-29 -130 -29 -226 q0 -48 7 -88q22 -119 109 -119q44 0 110 36t128 79q72 49 151 115q18 13 33 23q33 18 49 3q18 -20 -2.5 -35.5t-31.5 -26.5l-37 -37t-84.5 -76.5t-122.5 -97t-149.5 -97.5t-165.5 -74.5t-168 -29.5q-84 0 -132.5 37.5t-73 95t-28.5 130.5q-1 25 -1 49q0 48 5 96 q8 72 24.5 137t31.5 106q13 41 58 170t104 298q-38 13 -73 17q-12 1 -23 1q-23 0 -45 -5q-56 -13 -94.5 -34.5t-63 -39.5t-41.5 -27t-32 4z" />
<glyph unicode="u" horiz-adv-x="1766" d="M152 343v15q0 94 18 198q19 112 52.5 224.5t77.5 212.5q41 92 104.5 161.5t119.5 105.5q53 33 88 33q2 -1 5 -1q36 -2 18 -48q-28 -82 -53.5 -181.5t-42.5 -201t-23 -195.5q-3 -47 -3.5 -89.5t3.5 -78.5q6 -73 29 -118t67 -45q82 0 164 70.5t158.5 177t147 230.5 t130.5 230t107.5 176.5t80.5 70.5q41 0 58 -46t17 -123t-11.5 -173t-23.5 -198t-20 -198q-5 -60 -6 -113q0 -31 2 -60q5 -77 29 -123t76 -46q51 0 103.5 21.5t95.5 50.5q49 31 92 71l113 100q18 23 46 23q25 0 25 -23q0 -6 -2 -13q0 -3 -33 -36t-89.5 -83t-130.5 -107.5 t-158.5 -106t-174.5 -82t-177 -33.5q-95 0 -142 46t-63 116q-13 53 -13 112q0 18 1 36q5 79 14 148.5t15.5 115.5t-9.5 46q-102 -174 -207 -310q-46 -59 -97.5 -114t-105 -98.5t-110 -70.5t-110.5 -27q-90 0 -143.5 46t-80 124.5t-28.5 180.5z" />
<glyph unicode="v" horiz-adv-x="1208" d="M151 387q3 174 51 396q36 141 105 254q31 49 70.5 95t92 81.5t119 57.5t148.5 22q97 0 115 -50q6 -16 6 -36q0 -41 -25 -95q-37 -80 -111 -178.5t-161 -198.5q8 -77 24.5 -147.5t35.5 -124t41 -87t42 -33.5t67.5 48.5t111.5 126.5t138.5 177t146 196t137 184t111.5 144 q29 29 56 29q4 0 8 -1q17 -3 17 -16q0 -11 -12 -30q-41 -61 -96 -141t-106 -149l-123 -163q-156 -212 -300 -379q-61 -72 -126.5 -140t-129.5 -120.5t-120 -84.5t-100 -32q-72 0 -118 33.5t-71.5 90t-34.5 126.5t-9 145zM549 962q-1 -26 -1 -51q0 -52 5 -107q69 79 124 157 q55 79 82 139q20 45 20 77q0 11 -2 20q-9 37 -70 37q-54 0 -87.5 -37t-50 -98t-20.5 -137z" />
<glyph unicode="w" horiz-adv-x="1948" d="M141 387q3 174 51 396q36 141 105 254q31 49 70.5 95t92 81.5t119 57.5t148.5 22q97 0 114 -50q5 -16 5 -34q0 -41 -26 -97q-38 -80 -111.5 -178.5t-160.5 -198.5q10 -77 25.5 -147.5t36 -124t42 -87t42.5 -33.5q26 0 98.5 82t167.5 205q20 95 49.5 188t68.5 175 q41 92 105 161.5t120 105.5q52 33 87 33q2 -1 5 -1q36 -2 18 -48q-28 -82 -53.5 -181.5t-42.5 -201t-23 -195.5q-3 -47 -3 -89.5t3 -78.5q6 -73 29.5 -118t66.5 -45q61 0 130.5 58t133.5 136t115 156t77 119q23 38 56 97t65 120.5t60.5 114t43.5 80.5t33 41t33.5 13 t20.5 -14q2 -5 2 -11q0 -12 -7 -29q-8 -18 -33.5 -65.5t-61.5 -111.5t-79.5 -139.5t-85.5 -148.5t-80.5 -137t-66.5 -107q-44 -67 -108 -155t-138 -167.5t-156 -136t-161 -56.5q-82 0 -134.5 38.5t-80.5 105t-36 153.5q-4 39 -4 80q0 52 6 107q-67 -82 -143.5 -167.5 t-153 -156t-146 -115.5t-120.5 -45q-69 0 -115 33.5t-71.5 90t-34.5 126.5t-9 145zM539 962q-1 -26 -1 -51q0 -52 5 -107q69 79 124 157q55 79 82 139q19 44 19 74q0 12 -2 23q-10 37 -72 37q-54 0 -86 -37t-48.5 -98t-20.5 -137z" />
<glyph unicode="x" horiz-adv-x="1413" d="M-430 -436q0 16 14 34t42 31q15 8 62.5 27t132 71.5t209 146t295.5 251.5q-44 41 -73 92.5t-47 105t-24.5 108.5t-6.5 107v21q0 110 28 224q33 141 103 254q31 49 70.5 95t92 81.5t119 57.5t148.5 22q97 0 115 -50q6 -16 6 -36q0 -41 -25 -95q-37 -80 -111.5 -178.5 t-161.5 -198.5q8 -67 32 -142.5t63 -147.5q143 146 308 324t357 403q33 38 56.5 50t33.5 4.5t3.5 -31t-34.5 -53.5q-15 -15 -71.5 -85.5t-146 -175.5t-207 -235.5t-256.5 -269.5q56 -74 132 -120t176 -46q110 0 194.5 21.5t142.5 50.5q67 31 118 71l113 100q18 23 43 23 q27 0 27 -25q0 -5 -1 -11q-3 -3 -33.5 -36t-89.5 -83t-141 -107.5t-183 -106t-218.5 -82t-248.5 -33.5q-115 0 -198.5 22t-141.5 63q-189 -169 -379 -308.5t-374 -221.5q-21 -8 -35 -8q-7 1 -13 3q-16 8 -16 22zM548 962q-1 -26 -1 -51q0 -52 3 -107q69 79 124 157 q56 79 82 139q20 45 20 77q0 11 -2 20q-9 37 -70 37q-54 0 -86 -37t-50 -98t-20 -137z" />
<glyph unicode="y" horiz-adv-x="1461" d="M-188 -508q-9 30 -9 62q0 50 21 103q33 87 113.5 180.5t189.5 188t238 187t262 176.5q72 46 113 68t59 28.5t16.5 0t-14.5 -22.5q-28 -33 -115 -105l174 95q8 3 -33 -30.5t-95 -74.5l-143 -107q-110 -46 -219 -116.5t-197.5 -151.5t-144.5 -162.5t-62 -146.5 q-1 -8 -1 -15q0 -56 45 -92q51 -41 182 -41q202 0 343 96t239.5 252t167.5 353.5t131 399.5q-102 -115 -208 -205q-46 -38 -97 -74t-105 -65.5t-110 -46t-110 -16.5q-169 0 -233 82q-48 61 -48 152q0 31 6 64q21 135 120 302.5t260 341.5q61 64 106 88q29 17 47 17 q10 0 16 -5q10 -8 10 -27q0 -14 -5 -35q-13 -48 -67 -130q-108 -159 -128 -269q-9 -48 -9 -89q0 -51 14 -89q26 -68 82.5 -98.5t102.5 -30.5q84 0 159.5 55t141 138t122 180.5t105 180.5t88 138t72.5 55q23 0 33.5 -34.5t10.5 -90.5t-7.5 -129t-20.5 -148q-28 -176 -82 -399 q-38 -297 -131.5 -510.5t-218 -354.5t-270.5 -215t-289 -94q-62 -9 -122 -9q-78 0 -152 15q-130 26 -228 90q-95 61 -116 140z" />
<glyph unicode="z" horiz-adv-x="801" d="M-128 -579q0 90 48.5 173t130.5 164t189.5 163t224 166.5t234.5 175t223 190.5q13 15 30.5 19t28 0t10.5 -18t-23 -37t-93.5 -83t-147.5 -124q-90 -74 -195 -161q-172 -110 -302 -215q-56 -46 -108.5 -95t-91 -96t-60.5 -93q-16 -35 -16 -66q0 -10 2 -19q8 -56 42 -74 q32 -17 67 -17h5q38 1 71 16.5t46 23.5q13 10 47.5 33t69 64t62.5 103.5t31 152.5q1 13 1 26q0 75 -26 142q-30 78 -69 148.5t-76.5 135.5t-47.5 132q-6 28 -6 64q0 14 1 28q3 54 17 111.5t43.5 112.5t75.5 98q23 26 88 86t142 124t150 115.5t111 58.5q-33 -3 -83 -5 q-22 -1 -44 -1l-56 1q-50 2 -93.5 14t-64 33.5t-11.5 56.5t66 88q100 100 165 141q64 41 98 46q6 1 12 1q23 0 27 -18q5 -22 -11 -49q-8 -15 -40 -57q-32 -41 -52 -82q-14 -28 -13 -49q0 -11 3 -20q8 -22 56 -22q14 0 31 2q77 8 155 16.5t144 11.5q21 1 39 1q39 0 69 -4 q44 -6 54 -28q2 -3 2 -6q0 -14 -25 -34q-31 -26 -84.5 -62t-120.5 -79.5t-132 -86t-121.5 -83t-86.5 -71.5q-46 -49 -84 -92q-36 -44 -52 -90q-10 -29 -10 -62q0 -19 3 -39q9 -55 55 -124q31 -67 86 -147.5t104 -213.5q23 -60 24 -135q0 -9 -1 -17q-3 -86 -38.5 -177 t-110 -182t-192.5 -162q-128 -83 -236 -117q-87 -28 -157 -27q-17 -1 -33 1q-80 8 -125 58.5t-45 142.5z" />
<glyph unicode="{" horiz-adv-x="1305" d="M-11366.5 -1957q2.5 32 25.5 78q13 23 52.5 97t132 174t248.5 214t400.5 219t589 188t815.5 119t1077.5 14t1374.5 -124q911 -123 1683 -187t1420 -78t1180 14t962.5 87t765.5 142.5t591 180.5q901 340 1137 896q28 84 20.5 180t-51 178t-121.5 138.5t-189.5 66.5 t-252.5 -40t-312 -180q-59 -46 -74.5 -47.5t-10.5 15t11 28.5l20 35q87 72 184 128q82 49 187 89.5t220 40.5q74 0 159 -10t161.5 -38.5t139.5 -81t96 -137t28 -203.5t-64 -285q-36 -100 -100 -228t-175.5 -269t-280 -286.5t-412 -281.5t-570 -252.5t-755 -198.5 t-967.5 -120t-1207 -16.5t-1473.5 108.5t-1767.5 259q-1124 200 -1962.5 240.5t-1421 -41t-925.5 -272.5t-476 -455q-36 -77 -61.5 -107.5t-39.5 -26.5t-11.5 36z" />
<glyph unicode="|" d="M399 -550q110 289 212.5 578t193.5 550.5t169.5 483t139.5 377.5q56 156 95.5 235.5t56.5 93.5t9 -29.5t-41 -135.5q-69 -197 -133 -376.5t-128 -357.5t-130.5 -359.5t-138.5 -384.5q-44 -120 -79.5 -213.5t-65 -162.5t-52.5 -119t-41 -83q-44 -79 -67 -97z" />
<glyph unicode="}" horiz-adv-x="1305" d="M-5235.5 -1962q2.5 32 28.5 78q10 23 48.5 97t115.5 176.5t201 218t308.5 221.5t436.5 189t586 119t755 11.5t946 -131.5q471 -97 845 -105t663 48.5t500.5 160t362.5 226.5q351 289 483 725q31 84 23.5 180t-51 178t-121.5 138.5t-188.5 66.5t-252.5 -40t-311 -180 q-59 -46 -75.5 -47.5t-12.5 15t11 27.5l18 35q87 72 187 128q84 49 189.5 90t220.5 41q74 0 158.5 -10t161.5 -38.5t139.5 -81t94.5 -137t27 -204.5t-61 -284q-59 -166 -174.5 -349.5t-289.5 -353.5t-408 -314.5t-528.5 -230.5t-654 -101.5t-782.5 74.5 q-425 87 -824.5 130.5t-756.5 43.5t-665.5 -46t-554 -135.5t-421 -221.5t-262.5 -309q-36 -77 -63 -107.5t-41 -26.5t-11.5 36z" />
<glyph unicode="~" horiz-adv-x="1707" d="M753.5 1561.5q-11.5 7.5 9 30.5t89.5 64q148 87 260 111.5t195 13t146 -46t111.5 -65.5t89.5 -45t84 17q18 15 47.5 21.5t45 1.5t5 -23t-66.5 -51q-113 -74 -191 -94.5t-138 -12t-107.5 36.5t-96.5 54q-105 49 -197 62t-166 -39q-38 -26 -73 -34.5t-46.5 -1z" />
<glyph unicode="&#xa1;" horiz-adv-x="678" d="M-175.5 -907.5q-19.5 62.5 24.5 172.5q31 74 96 188t147 248.5t171.5 278t171.5 278t144.5 247t88.5 186.5q20 -23 23 -84q3 -51 -13.5 -151t-73.5 -269q-56 -169 -124 -345.5t-134.5 -331.5t-129 -273t-108.5 -169q-44 -49 -106.5 -65.5t-110 5.5t-67 84.5zM673 1201 q-26 -74 9 -127t109 -50q79 3 148 58t95 129t-12.5 125.5t-112.5 48.5t-142 -56.5t-94 -127.5z" />
<glyph unicode="&#xa2;" horiz-adv-x="1336" d="M147 410q4 110 40 207q33 95 106 203.5t175.5 204.5t229 165.5t265.5 81.5q3 5 2.5 11.5t4.5 14.5q13 28 38.5 48.5t53.5 20.5t42.5 -20.5t1.5 -48.5q-5 -8 -9 -15.5t-9 -12.5q64 -13 109 -41t71.5 -69t34.5 -88.5t-5 -96.5q-13 -41 -32 -82t-44.5 -76.5t-57.5 -62.5 t-71 -42q-36 -18 -77 -18q-59 0 -84.5 39.5t-4.5 98.5q20 59 76.5 100t115.5 41q54 0 77 -36q5 23 11 61.5t-2.5 78t-39.5 73t-97 43.5l-6 -5q-8 -26 -32 -42.5t-50 -16.5t-36 15.5t-2 38.5q-61 -23 -117.5 -82t-102.5 -138.5t-79.5 -171.5t-46 -184t-5 -175.5t43.5 -144.5 q38 33 79 33q33 0 47.5 -23t1.5 -56q-5 -20 -28 -44q46 -23 110 -23q74 0 174 31q84 28 206 88t275 183q26 23 41 25.5t21.5 -7.5t3 -25.5t-14.5 -25.5q-8 -8 -48.5 -38.5t-106 -73t-150 -92.5t-179 -96t-195.5 -83t-196 -55q0 -5 1 -11.5t-4 -13.5q-8 -28 -33.5 -47.5 t-53.5 -19.5t-39.5 19t-3.5 48l5 12h-3q-151 0 -238 61.5t-125.5 154t-34.5 202.5z" />
<glyph unicode="&#xa3;" horiz-adv-x="1128" d="M-1116 -265q0 60 48.5 124t130.5 110q38 20 144.5 41t260 39t345.5 33t399 28q136 538 282 914t292 623t286.5 383t266.5 197q294 141 578 -36q59 -46 65.5 -84.5t-16.5 -60t-62.5 -21.5t-73.5 33q-72 69 -164 100t-202 -10t-236.5 -166.5t-265 -365t-288 -606.5 t-305.5 -892q236 13 473.5 20.5t449 11.5t381.5 0t270 -14q197 -20 320 -76.5t192 -115.5q82 -69 120 -151q-205 31 -485 32t-596 -15.5t-644 -47.5t-627 -62q-87 -253 -142 -418t-61 -198q-10 -64 -40.5 -110.5t-59 -49t-38.5 51.5t21 189q13 56 56.5 191t107.5 327 q-166 -18 -316 -35t-270.5 -29.5t-210 -20.5t-135.5 -8q-136 0 -193.5 42.5t-57.5 102.5zM479 1190q-15 67 0 157q128 -13 258.5 -12t250.5 6.5t222.5 9.5t171.5 -4q69 -5 92.5 -55t14.5 -108t-42.5 -105t-74.5 -47h-171.5t-162.5 1t-164 1h-175q-110 0 -158.5 49t-61.5 107 z" />
<glyph unicode="&#xa4;" horiz-adv-x="1707" d="M499 484q13 38 41 71.5t62 53.5q-41 156 28 343q36 92 87 176.5t123 159.5q-61 54 -23 151q10 38 35.5 70t59 56.5t70.5 38.5t75 14q51 0 82 -25.5t39 -69.5q67 28 132 42.5t131 14.5q108 0 190 -36t135 -103l6 18q20 59 76.5 100t115.5 41t84.5 -41t4.5 -100 q-20 -59 -76.5 -100t-115.5 -41q-23 0 -33 3q28 -77 26.5 -170.5t-39.5 -198.5q-31 -92 -84.5 -176.5t-125.5 -158.5q38 -5 57.5 -38.5t4.5 -76.5q-15 -49 -63 -82t-96 -33q-41 0 -63 21.5t-17 57.5q-100 -67 -210 -104t-217 -37q-146 0 -248 72q-33 -31 -74.5 -49 t-82.5 -18q-67 0 -93.5 43.5t-3.5 110.5zM1021 924q-13 -97 8 -177.5t64.5 -133t109 -76t144.5 -5.5q77 18 151 70.5t134 128t100 169t52 191.5q10 97 -10 176.5t-65 133t-110.5 75.5t-144.5 4t-152 -70.5t-132 -127t-98.5 -168t-50.5 -190.5z" />
<glyph unicode="&#xa5;" horiz-adv-x="1896" d="M346 -476q-5 8 26.5 63t85.5 142t124.5 194.5t144.5 219.5q174 261 397 589q-67 451 -118 812q-23 154 -44.5 303.5t-39.5 269.5t-29.5 201t-14.5 96q-8 31 2.5 51.5t27 27t37 -1.5t35.5 -31q10 -20 25.5 -95.5t31 -187t31 -250t32 -280.5t30.5 -280t27 -252t23 -192 t16 -101q205 343 389 594t345.5 428.5t299.5 290.5t249.5 179.5t196 94.5t140.5 36q84 13 130.5 7.5t58 -22t-10.5 -39.5t-70 -49q-102 -13 -228 -98.5t-265.5 -223.5t-289 -317.5t-299.5 -380.5t-296 -411t-279 -408t-247 -375t-199.5 -312.5t-139.5 -216t-67 -88.5 q-33 -18 -76.5 -24.5t-84.5 -2.5t-71.5 14t-35.5 26zM594 297q-13 56 2 128q102 -10 210 -9t205 5t180.5 6.5t139.5 -2.5t73 -46t9 -87t-34.5 -84.5t-60.5 -38.5q-146 0 -272.5 1.5t-274.5 1.5q-90 0 -128.5 38t-48.5 87zM696 589q-13 56 3 128q102 -10 209.5 -9t205 5 t181 6.5t139.5 -2.5t72.5 -46t9 -87t-34.5 -84.5t-60 -38.5q-146 0 -273 1t-275 1q-90 0 -128 38.5t-49 87.5z" />
<glyph unicode="&#xa6;" horiz-adv-x="266" d="M0 -243q51 123 94.5 245.5t82 234t70.5 206t63 161.5q26 67 51.5 100t40.5 39.5t19 -12.5t-11 -58q-59 -166 -115.5 -312t-120.5 -317q-36 -102 -68 -160t-55 -86q-28 -33 -51 -41zM387 829q51 123 95.5 246t83 234.5t70.5 206t63 161.5q26 67 51.5 100t40.5 39.5t19 -13 t-11 -57.5q-61 -166 -116.5 -312t-119.5 -318q-36 -102 -66.5 -159.5t-56.5 -86.5q-28 -33 -53 -41z" />
<glyph unicode="&#xa7;" horiz-adv-x="1059" d="M-69 -389q-8 28 2.5 41t24.5 15.5t26.5 -5.5t15.5 -23q10 -82 47 -111.5t79.5 -30.5t81 14t51.5 26q10 10 42 31.5t67.5 62.5t65 104t34.5 152q5 97 -34.5 182t-82.5 161l-31 57q-28 46 -48.5 92t-28.5 92q-10 61 0 145.5t57.5 161.5t146 133.5t265.5 66.5 q-15 26 -33.5 63t-33.5 74t-28 71.5t-15 57.5q-10 64 1 152.5t66 168t164 134.5t299 55q102 0 131.5 -36t5 -97.5t-92.5 -146t-155 -184.5q31 -46 59 -96t52.5 -98.5t46.5 -90.5t37 -73q13 -31 25.5 -105t-8 -169t-89.5 -201t-220 -201q-23 -15 -46 -28t-43 -23 q2 -13 17 -46q15 -31 28 -105t-7.5 -169t-89.5 -201t-217 -201t-261 -110.5t-191 16.5t-123 96t-60 126zM586 716.5q0 -84.5 33.5 -174t94.5 -150.5q41 41 74.5 106t38.5 162q5 84 -13 141t-51 118q-8 3 -18 3q-82 0 -120.5 -60.5t-38.5 -145zM947 1473q5 -60 41 -121 q69 74 119 136.5t69.5 109t3.5 72t-77 25.5q-51 0 -89.5 -31t-55 -81t-11.5 -110z" />
<glyph unicode="&#xa8;" horiz-adv-x="1707" d="M927 1654q13 38 38.5 71.5t58.5 59t70.5 41t75.5 15.5q74 3 111 -50t12 -127q-26 -74 -93.5 -128t-147.5 -56q-74 -3 -109.5 48.5t-15.5 125.5zM1385 1654q13 38 38.5 71.5t59 59t70.5 41t75 15.5q74 3 111.5 -50t11.5 -127t-93.5 -128t-147.5 -56q-74 -3 -109.5 48.5 t-15.5 125.5z" />
<glyph unicode="&#xa9;" horiz-adv-x="2787" d="M112.5 47.5q7.5 280.5 117.5 600.5q74 212 185.5 409t246 368.5t289.5 312.5t317.5 242t329 156t325.5 55q238 0 404 -121.5t248 -330t73 -490t-121 -601.5q-74 -212 -184.5 -409.5t-246 -369t-289 -311t-317.5 -240.5t-329 -156t-324 -55q-238 0 -403 121.5t-247 330 t-74.5 489zM561 106.5q33 -221.5 133 -374t256 -223t356 -34.5q202 36 398 169t361 333t284 448t170 517t19 490.5t-130.5 372.5t-257 221.5t-358.5 34.5t-394.5 -169t-359.5 -333t-286.5 -448t-172.5 -517q-51 -266 -18 -487.5zM792 410q4 110 40 207q33 100 112.5 215 t189.5 213.5t246 164t281 65.5q82 0 141 -25.5t96 -68t48.5 -96t-3.5 -110.5q-13 -41 -32 -82t-44.5 -76.5t-57.5 -62.5t-71 -42q-36 -18 -77 -18q-59 0 -84.5 39.5t-4.5 98.5q20 59 76.5 100t115.5 41q54 0 77 -36q8 26 13 69.5t-9.5 85.5t-56.5 74t-132 32 q-87 0 -167.5 -75.5t-140.5 -189.5t-92 -247t-22 -247t70 -189.5t186 -75.5q74 0 174 31q84 28 205.5 88t275.5 183q26 23 41.5 25.5t21.5 -7.5t2.5 -25.5t-14.5 -25.5q-8 -8 -57.5 -45t-129 -87t-179 -106.5t-210 -103.5t-220.5 -78t-210 -31q-151 0 -238 61.5t-125.5 154 t-34.5 202.5z" />
<glyph unicode="&#xaa;" horiz-adv-x="1822" d="M439 1100q19 101 76.5 212t153.5 225t230 219q141 113 272.5 169.5t246.5 76.5q102 18 187 11.5t138.5 -24.5t75.5 -42t4 -42q-23 -20 -37 -18t-37.5 13.5t-64 24.5t-117.5 13q-72 0 -156.5 -32t-167.5 -87t-158.5 -129.5t-129.5 -155.5q-82 -123 -104 -216.5t-7.5 -159 t55.5 -98.5t87 -33q84 0 158.5 51t138.5 126.5t117.5 164t99.5 164t84.5 125.5t71.5 50t43.5 -55t14.5 -136t6.5 -177t18 -176.5t51 -135.5t104.5 -55q51 0 102.5 21.5t95.5 50.5q46 31 92 71l115 100q17 23 43 23q33 0 26 -36q-3 -3 -35 -36t-88 -83t-130.5 -107.5 t-160 -106t-175 -82t-176.5 -33.5q-92 0 -145 60.5t-78.5 134.5t-32 137t-6.5 70q-8 -8 -68 -70.5t-149.5 -136.5t-198 -134.5t-213.5 -60.5q-113 0 -179.5 45t-89.5 122t-4 178z" />
<glyph unicode="&#xab;" horiz-adv-x="977" d="M266 602q8 20 51.5 74t107.5 121.5t138 139.5t143.5 129.5t123 92t76.5 29.5q33 -8 50 -54t17 -103.5t-15.5 -112.5t-41.5 -86q-18 -18 -56 -47.5t-87 -62.5t-101 -70.5t-98.5 -69.5t-77 -57.5t-35.5 -38.5q-8 -20 21.5 -59.5t64 -84.5t54 -88.5t-6.5 -71.5 q-18 -20 -50 -2.5t-71.5 57t-79.5 93.5t-70.5 106.5t-47 98.5t-9.5 67zM522 602q8 20 51.5 74t107.5 121.5t138 139.5t143.5 129.5t123 92t76.5 29.5q33 -8 50 -54t17 -103.5t-15.5 -112.5t-41.5 -86q-18 -18 -56 -47.5t-87 -62.5t-101 -70.5t-98.5 -69.5t-77 -57.5 t-35.5 -38.5q-8 -20 21.5 -59.5t64 -84.5t54 -88.5t-6.5 -71.5q-18 -20 -50 -2.5t-71.5 57t-79.5 93.5t-70.5 106.5t-47 98.5t-9.5 67z" />
<glyph unicode="&#xac;" horiz-adv-x="1052" d="M230 678q-15 67 3 157q128 -13 258.5 -12t251 6.5t223 9.5t171.5 -4q46 -3 61 -48t11.5 -106t-23 -129t-43.5 -122t-47 -82t-34 -8q-54 87 -121.5 125.5t-147 51.5t-166.5 9t-179 -4q-110 0 -157.5 49t-60.5 107z" />
<glyph unicode="&#xad;" horiz-adv-x="1134" d="M353 704l41 115h912l-41 -115h-912z" />
<glyph unicode="&#xae;" horiz-adv-x="2787" d="M129 98.5q9 280.5 122 600.5q74 212 184 409.5t246 369t289.5 312t317.5 241.5t330 156.5t325 55.5q238 0 403 -122t247 -330.5t73 -490t-119 -601.5q-77 -212 -187 -409.5t-245.5 -369t-290.5 -311t-319 -240.5t-329 -156t-324 -55q-238 0 -403 121.5t-247 330t-73 489z M535 381.5q-5 -17.5 2.5 -25.5t25.5 -3t39 23q72 61 160 153.5t172.5 191t155 192t103.5 155.5q15 -8 26 -8q23 -8 57.5 -13t66.5 -11.5t58.5 -18t34.5 -31.5q13 -28 -6 -113t-42.5 -195t-38.5 -231.5t3 -222.5t83 -166.5t201 -65.5q87 0 179 33.5t180.5 82t166.5 106 t138 107.5t94.5 83.5t37.5 35.5q7 36 -26 36q-26 0 -43 -23l-113 -100q-61 -41 -125 -71q-54 -28 -115.5 -50t-112.5 -22q-69 0 -97 57.5t-31 146t12.5 194.5t32 206t27 180.5t0.5 113.5q-13 31 -83.5 44t-159 19.5t-175.5 12.5t-135 22q10 31 15 54q3 10 5 23 q13 51 -17.5 86.5t-87.5 35.5q-61 0 -117.5 -43.5t-79.5 -104.5q-15 -44 -7.5 -76t33.5 -52q8 -13 38.5 -23t66.5 -23q-13 -20 -42.5 -67.5t-93.5 -128.5t-167.5 -194.5t-265.5 -267.5q-28 -26 -33 -43.5zM581 157.5q33 -221.5 132 -374t256 -223t357 -34.5q202 36 398 169 t361 333t284 448t171 517q49 269 16.5 490.5t-132.5 372.5t-256 221.5t-356 34.5q-202 -36 -397.5 -169t-361 -332.5t-285.5 -448t-169 -517.5q-51 -266 -18 -487.5z" />
<glyph unicode="&#xaf;" d="M727 1687q125 -13 256 -11.5t252.5 6.5t224 9t171.5 -4q69 -5 92 -44.5t15.5 -83t-39.5 -79.5t-73 -36h-172t-162.5 1t-164 1h-175.5q-110 0 -158.5 37.5t-63.5 83.5q-18 51 -3 120z" />
<glyph unicode="&#xb0;" horiz-adv-x="778" d="M701 1692q18 54 56.5 102.5t87 85.5t105 57.5t110.5 20.5q110 0 161 -78t13 -188q-20 -54 -57.5 -102.5t-86 -85.5t-105 -57.5t-109.5 -20.5q-110 0 -161.5 78t-13.5 188zM883.5 1550q25.5 -50 84.5 -50t117.5 50t86.5 122q23 72 -2.5 121.5t-84.5 49.5t-117.5 -49.5 t-81.5 -121.5q-28 -72 -2.5 -122z" />
<glyph unicode="&#xb1;" d="M148 -67q-15 67 3 157q125 -13 256 -12t252.5 6.5t224 9.5t171.5 -4q69 -5 90.5 -55t11.5 -108t-43.5 -105t-74.5 -47h-171.5t-162 1t-164 1h-175.5q-110 0 -157.5 49t-60.5 107zM410 678q-15 67 2 157q128 -13 258.5 -12t251 6.5t223 9.5t171.5 -4q69 -5 90.5 -55 t11.5 -108t-43.5 -105t-74.5 -47h-171.5t-162 1t-164 1h-175.5q-110 0 -157.5 49t-59.5 107zM568 131q61 131 107.5 262.5t83.5 250.5t69 218.5t63 171.5t95 111.5t124 50t101 -6.5t25 -57q-31 -90 -60 -172t-57 -162.5t-57.5 -164t-63.5 -175.5q-38 -110 -109.5 -174 t-143.5 -100q-84 -41 -177 -53z" />
<glyph unicode="&#xb2;" horiz-adv-x="1374" d="M456 923q0 55 10 107.5t26 70.5q13 18 41 25.5t88 19t157.5 34.5t248.5 74q115 38 194.5 103.5t125.5 140t60 151.5t1.5 138t-50 99.5t-96.5 38.5q-87 0 -157 -20.5t-125.5 -47.5t-93.5 -53.5t-56 -39.5q-31 -20 -45 -19t-18 12.5t1 27t16 22.5q5 5 47 38.5t106 79.5 t145 96t166.5 88.5t170 57.5t153.5 4t119 -73t68 -175q23 -148 -39.5 -263.5t-171.5 -204t-243.5 -151t-253.5 -105t-201 -65.5t-87 -33t45 -15.5t130.5 -8t176.5 -2.5t180.5 -1t144.5 -3.5t71 -10.5q13 -10 -2.5 -46t-44 -77t-60.5 -79.5t-55 -56.5q-15 -10 -80 -17.5 t-156 -12.5t-193.5 -6.5t-192 -1.5t-155 2.5t-78.5 7.5q-20 5 -29 50t-9 100z" />
<glyph unicode="&#xb3;" horiz-adv-x="1256" d="M435 1083q-5 8 0 20.5t15.5 21.5t24.5 9t29 -18q10 -10 28 -32t51.5 -45t87.5 -39.5t135 -16.5q56 0 120.5 36t115.5 93.5t83 125.5t27 134q-5 31 -23 49t-36 28q-23 10 -46 15q-33 0 -53.5 8t-12.5 23q5 13 29 22t58 9q31 0 59 12.5t51 29.5t41 34.5t28 30.5 q49 64 63 130.5t2.5 121.5t-49 91t-93.5 36q-82 0 -148.5 -16.5t-116.5 -39.5t-83 -45t-51 -32q-28 -18 -41 -18t-17 9t1 23t18 22q5 5 68 51t154 100t199.5 101t206 55t173 -38t103.5 -177q18 -92 -7.5 -167.5t-82 -138.5t-136 -114t-166.5 -89q59 -38 102.5 -89.5 t56.5 -115.5t-15.5 -139.5t-110.5 -167.5q-118 -131 -226.5 -176t-200.5 -36t-166.5 55.5t-128 101.5t-85.5 99.5t-35 52.5z" />
<glyph unicode="&#xb4;" horiz-adv-x="1707" d="M1007 1489q-9 14 0 30.5t45 29.5q23 8 98.5 55t176.5 110t215 129.5t211.5 111t166.5 56.5t82 -32q18 -64 -29.5 -121.5t-133 -110t-196 -97.5t-218 -81t-199.5 -62.5t-138 -39.5q-28 -8 -50 0t-31 22z" />
<glyph unicode="&#xb7;" horiz-adv-x="537" d="M438 832q13 38 38.5 71.5t58.5 59t70.5 41t75.5 15.5q74 3 108.5 -50t14.5 -127q-26 -74 -96.5 -128t-144.5 -56q-74 -3 -112.5 48.5t-12.5 125.5z" />
<glyph unicode="&#xb8;" horiz-adv-x="1154" d="M58 -384q9 13 24 14t30.5 -2.5t12.5 -8.5t43.5 -20.5t109 -19.5t128 18t103.5 91q26 46 21 69t-28 30.5t-57.5 5t-69.5 -6.5t-61.5 -5t-34.5 12q-13 18 11.5 56t59 80.5t66.5 78t37 48.5t39.5 17t75.5 6q46 3 103 0q-41 -38 -75 -71q-28 -28 -52 -60t-22 -53 q0 -15 25.5 -7.5t60.5 20.5t72 23t61 -1.5t30.5 -50t-18.5 -122.5q-28 -84 -86 -135.5t-131 -78.5t-152 -33.5t-145.5 1.5t-115.5 24.5t-59 36.5q-15 31 -6 44z" />
<glyph unicode="&#xb9;" horiz-adv-x="1169" d="M614.5 1790.5q-5.5 11.5 3.5 29.5t32 33q15 10 59 43.5t101.5 77t122.5 91t128 87t114 65t82 25.5q44 0 83.5 -24t66.5 -64t34.5 -91t-10.5 -102q-13 -33 -43.5 -128t-73 -218t-89.5 -258.5t-93.5 -252t-84.5 -198.5t-59 -97q-36 -23 -93.5 -18t-113.5 28t-93.5 61.5 t-29.5 81.5q5 28 38.5 113t78 195t93.5 229t84.5 218.5t51 165t-5.5 65.5q-33 0 -76.5 -18t-88 -42t-85.5 -50t-67 -44q-28 -18 -44.5 -16.5t-22 13z" />
<glyph unicode="&#xba;" horiz-adv-x="1359" d="M472 1181.5q-6 113.5 40 244.5t133 244.5t197 198t234 134.5t247 50t214 -50t142 -134.5t57.5 -198t-39.5 -244.5t-133 -244.5t-197 -198t-235.5 -134.5t-248.5 -50t-212.5 50t-141 134.5t-57.5 198zM903 1398q-13 -97 8 -178t64.5 -133.5t109 -75.5t144.5 -5 q77 18 151 70.5t134 128t100 169t52 190.5q10 97 -10 176.5t-66.5 133.5t-111.5 75.5t-142 3.5q-79 -18 -152 -70.5t-132 -126.5t-98.5 -167.5t-50.5 -190.5z" />
<glyph unicode="&#xbb;" horiz-adv-x="1013" d="M248 182q-8 28 43.5 71.5t117 88.5t124 84.5t66.5 62.5q8 20 -23 66.5t-70.5 100t-76.5 103.5t-42 78q-5 31 19 87t65 114t89.5 104t89.5 54q26 5 56.5 -31t57.5 -93.5t51.5 -130.5t41 -139.5t23 -121.5t-1.5 -76q-8 -20 -56.5 -66t-117.5 -100t-147 -109t-146 -93.5 t-114 -56.5t-49 3zM504 182q-8 28 43.5 71.5t117 88.5t124 84.5t66.5 62.5q8 20 -23 66.5t-70.5 100t-76.5 103.5t-42 78q-5 31 19 87t65 114t89.5 104t89.5 54q28 5 57.5 -31t56.5 -93.5t51.5 -130.5t41 -139.5t23 -121.5t-1.5 -76q-8 -20 -56.5 -66t-117.5 -100t-147 -109 t-146 -93.5t-114 -56.5t-49 3z" />
<glyph unicode="&#xbc;" horiz-adv-x="2882" d="M317.5 889.5q-5.5 11.5 3.5 29.5t32 33q15 10 59 43.5t101.5 77t122.5 91t128 87t114 65t82 25.5q44 0 83.5 -24t66.5 -64t34.5 -91t-10.5 -102q-13 -33 -43.5 -128t-73 -218t-89.5 -258.5t-93.5 -252t-84.5 -198.5t-59 -97q-36 -23 -93.5 -18t-113.5 28t-93.5 61.5 t-29.5 81.5q5 28 38.5 113t78 195t93.5 229t84.5 218.5t51 165t-5.5 65.5q-33 0 -76.5 -18t-88 -42t-85.5 -50t-67 -44q-28 -18 -44.5 -16.5t-22 13zM494 -340q246 238 487 479.5t457 463t401.5 408.5t321.5 315q131 128 205 189.5t94.5 68t-11.5 -36t-109 -119.5 q-164 -164 -313.5 -314.5t-299.5 -299t-303.5 -302.5t-322.5 -323q-200 -202 -320 -309.5t-184 -155.5q-74 -59 -103 -64zM1803.5 679.5q11.5 75.5 57.5 152.5t110 148.5t136 135.5t134.5 112.5t106 77t51.5 33.5q13 10 29.5 11.5t24 -6.5t4 -23t-34.5 -41q-18 -13 -55 -41 t-79.5 -73t-84.5 -109t-73 -151q-26 -69 6 -126.5t100 -89.5t161.5 -31t193.5 55q41 108 82 210.5t76.5 183t64 133t43.5 62.5q31 18 84.5 20.5t103.5 -20.5t82 -72t22 -128q-8 -54 -38.5 -158.5t-74 -232.5t-95 -264t-100 -251t-87 -194.5t-58.5 -94.5q-28 -23 -84.5 -20.5 t-113 24t-96 60t-36.5 89.5q3 18 14 61.5t30.5 102.5t45 131t53.5 151q-64 -54 -133 -92.5t-139.5 -56.5t-143.5 -7.5t-142 53.5q-95 59 -127 129.5t-20.5 146z" />
<glyph unicode="&#xbd;" horiz-adv-x="2682" d="M317.5 889.5q-5.5 11.5 3.5 29.5t32 33q15 10 59 43.5t101.5 77t122.5 91t128 87t114 65t82 25.5q44 0 83.5 -24t66.5 -64t34.5 -91t-10.5 -102q-13 -33 -43.5 -128t-73 -218t-89.5 -258.5t-93.5 -252t-84.5 -198.5t-59 -97q-36 -23 -93.5 -18t-113.5 28t-93.5 61.5 t-29.5 81.5q5 28 38.5 113t78 195t93.5 229t84.5 218.5t51 165t-5.5 65.5q-33 0 -76.5 -18t-88 -42t-85.5 -50t-67 -44q-28 -18 -44.5 -16.5t-22 13zM499 -340q246 238 487 479.5t457 463t401.5 408.5t321.5 315q131 128 205 189.5t94.5 68t-11.5 -36t-109 -119.5 q-164 -164 -313.5 -314.5t-299.5 -299t-303.5 -302.5t-322.5 -323q-200 -202 -320 -309.5t-184 -155.5q-74 -59 -103 -64zM1597 73q0 55 10 107.5t26 70.5q13 18 41 25.5t88 19t157.5 34.5t248.5 74q115 38 194.5 103.5t125.5 140t60 151.5t1.5 138t-50 99.5t-96.5 38.5 q-87 0 -157 -20.5t-125.5 -47.5t-93.5 -53.5t-56 -39.5q-31 -20 -45 -19t-18 12.5t1 27t16 22.5q5 5 47 38.5t106 79.5t145 96t166.5 88.5t170 57.5t153.5 4t119 -73t68 -175q23 -148 -39.5 -263.5t-171.5 -204t-243.5 -151t-253.5 -105t-201 -65.5t-87 -33t45 -15.5 t130.5 -8t176.5 -2.5t180.5 -1t144.5 -3.5t71 -10.5q13 -10 -2.5 -46t-44 -77t-60.5 -79.5t-55 -56.5q-15 -10 -80 -17.5t-156 -12.5t-193.5 -6.5t-192 -1.5t-155 2.5t-78.5 7.5q-20 5 -29 50t-9 100z" />
<glyph unicode="&#xbe;" horiz-adv-x="2941" d="M74 187q-5 8 0 20.5t15.5 21.5t24.5 9t29 -18q10 -10 28 -32t51.5 -45t87.5 -39.5t135 -16.5q56 0 120.5 36t115.5 93.5t83 125.5t27 134q-5 31 -23 49t-36 28q-23 10 -46 15q-33 0 -53.5 8t-12.5 23q5 13 29 22t58 9q31 0 59 12.5t51 29.5t41 34.5t28 30.5 q49 64 63 130.5t2.5 121.5t-49 91t-93.5 36q-82 0 -148.5 -16.5t-116.5 -39.5t-83 -45t-51 -32q-28 -18 -41 -18t-17 9t1 23t18 22q5 5 68 51t154 100t199.5 101t206 55t173 -38t103.5 -177q18 -92 -7.5 -167.5t-82 -138.5t-136 -114t-166.5 -89q59 -38 102.5 -89.5 t56.5 -115.5t-15.5 -139.5t-110.5 -167.5q-118 -131 -226.5 -176t-200.5 -36t-166.5 55.5t-128 101.5t-85.5 99.5t-35 52.5zM552 -340q246 238 487 479.5t457 463t401.5 408.5t321.5 315q131 128 205 189.5t94.5 68t-11.5 -36t-109 -119.5q-164 -164 -313.5 -314.5 t-299.5 -299t-303.5 -302.5t-322.5 -323q-200 -202 -320 -309.5t-184 -155.5q-74 -59 -103 -64zM1854.5 679.5q11.5 75.5 57.5 152.5t110 148.5t136 135.5t134.5 112.5t106 77t51.5 33.5q13 10 29.5 11.5t24 -6.5t4 -23t-34.5 -41q-18 -13 -55 -41t-79.5 -73t-84.5 -109 t-73 -151q-26 -69 6 -126.5t100 -89.5t161.5 -31t193.5 55q41 108 82 210.5t76.5 183t64 133t43.5 62.5q31 18 84.5 20.5t103.5 -20.5t82 -72t22 -128q-8 -54 -38.5 -158.5t-74 -232.5t-95 -264t-100 -251t-87 -194.5t-58.5 -94.5q-28 -23 -84.5 -20.5t-113 24t-96 60 t-36.5 89.5q3 18 14 61.5t30.5 102.5t45 131t53.5 151q-64 -54 -133 -92.5t-139.5 -56.5t-143.5 -7.5t-142 53.5q-95 59 -127 129.5t-20.5 146z" />
<glyph unicode="&#xbf;" horiz-adv-x="1423" d="M-99 -584.5q-22 152.5 29 346.5q36 131 94 228t125.5 170t143 123t148.5 84.5t136 55t109 36.5q108 36 200 98.5t159.5 133t110 138t52.5 111.5q8 44 24.5 63t29 19t19 -21t-3.5 -59q-10 -31 -34.5 -103.5t-75.5 -158.5t-135.5 -166.5t-212.5 -123.5 q-169 -59 -292 -184.5t-189.5 -279t-78 -315t38.5 -291t164 -206t295 -63.5q141 13 251 55t192 99.5t141 123t95 121.5q-38 -20 -90 -26q-74 -8 -111 38.5t-19 112.5q23 72 85.5 124.5t136.5 60.5q74 5 110 -40t16 -116q0 -10 -5 -16q0 -15 -8 -36q-18 -64 -79.5 -154.5 t-166.5 -176.5t-257 -151t-350 -81q-246 -20 -416 26t-264.5 147t-116.5 253.5zM1200 1408q-26 -74 9 -126.5t114 -49.5q38 0 75.5 15t70.5 41t57.5 59.5t34.5 71.5q26 74 -10 125t-115 49q-74 -3 -142 -56.5t-94 -128.5z" />
<glyph unicode="&#xc0;" horiz-adv-x="3023" d="M-813 -1092q9 37 53 94q18 23 107.5 136.5t230 291.5t320 404.5t376.5 475.5q-79 5 -139.5 12.5t-103.5 15.5q-192 33 -307.5 96t-181.5 129q-77 74 -110 161q207 -46 496.5 -63.5t611.5 -17.5q123 154 244.5 307t237 299t221.5 280.5t198 249.5q215 271 410 515 q-5 49 0 94q5 38 15 79.5t39 69.5q28 26 88 46.5t126.5 26.5t127 -4t85.5 -43q13 -18 8 -106.5t-13 -228t-15.5 -318.5t0 -379t33.5 -408.5t84 -405.5q133 5 232 9t147 -2q131 -8 186 -55t51 -107t-56.5 -123t-131.5 -104q-64 -28 -246 -43q64 -121 164 -218 q46 -46 50 -89.5t-32 -74t-111.5 -39.5t-190.5 14q-82 15 -168 116t-167 268q-200 -5 -425.5 -6.5t-453 2.5t-444 11.5t-395.5 20.5q-192 -253 -374 -487.5t-330.5 -422.5t-252 -312.5t-139.5 -157.5q-51 -46 -89.5 -59t-56.5 0t-9 50zM707 645q333 5 664 19t618 30 q-46 154 -80.5 325t-53.5 354t-20.5 374t18.5 380q-33 -41 -140.5 -179t-263.5 -339t-348 -450.5t-394 -513.5zM1897 3048.5q-26 48.5 15 97.5q59 67 125.5 72t134.5 -27t132 -91t120.5 -123t98.5 -123t65 -90q13 -18 10.5 -42t-14 -43.5t-29.5 -24.5t-36 16q-13 15 -73 42 t-142 64t-167.5 82t-149.5 93.5t-90 97z" />
<glyph unicode="&#xc1;" horiz-adv-x="3023" d="M-813 -1092q9 37 53 94q18 23 107.5 136.5t230 291.5t320 404.5t376.5 475.5q-79 5 -139.5 12.5t-103.5 15.5q-192 33 -307.5 96t-181.5 129q-77 74 -110 161q207 -46 496.5 -63.5t611.5 -17.5q123 154 244.5 307t237 299t221.5 280.5t198 249.5q215 271 410 515 q-5 49 0 94q5 38 15 79.5t39 69.5q28 26 88 46.5t126.5 26.5t127 -4t85.5 -43q13 -18 8 -106.5t-13 -228t-15.5 -318.5t0 -379t33.5 -408.5t84 -405.5q133 5 232 9t147 -2q131 -8 186 -55t51 -107t-56.5 -123t-131.5 -104q-64 -28 -246 -43q64 -121 164 -218 q46 -46 50 -89.5t-32 -74t-111.5 -39.5t-190.5 14q-82 15 -168 116t-167 268q-200 -5 -425.5 -6.5t-453 2.5t-444 11.5t-395.5 20.5q-192 -253 -374 -487.5t-330.5 -422.5t-252 -312.5t-139.5 -157.5q-51 -46 -89.5 -59t-56.5 0t-9 50zM707 645q333 5 664 19t618 30 q-46 154 -80.5 325t-53.5 354t-20.5 374t18.5 380q-33 -41 -140.5 -179t-263.5 -339t-348 -450.5t-394 -513.5zM1857 2715q-9 14 0 30.5t45 29.5q23 8 98.5 55t176.5 110t215 129.5t211.5 111t166.5 56.5t82 -32q18 -64 -29.5 -121.5t-133 -110t-196 -97.5t-218 -81 t-199.5 -62.5t-138 -39.5q-28 -8 -50 0t-31 22z" />
<glyph unicode="&#xc2;" horiz-adv-x="3023" d="M-813 -1092q9 37 53 94q18 23 107.5 136.5t230 291.5t320 404.5t376.5 475.5q-79 5 -139.5 12.5t-103.5 15.5q-192 33 -307.5 96t-181.5 129q-77 74 -110 161q207 -46 496.5 -63.5t611.5 -17.5q123 154 244.5 307t237 299t221.5 280.5t198 249.5q215 271 410 515 q-5 49 0 94q5 38 15 79.5t39 69.5q28 26 88 46.5t126.5 26.5t127 -4t85.5 -43q13 -18 8 -106.5t-13 -228t-15.5 -318.5t0 -379t33.5 -408.5t84 -405.5q133 5 232 9t147 -2q131 -8 186 -55t51 -107t-56.5 -123t-131.5 -104q-64 -28 -246 -43q64 -121 164 -218 q46 -46 50 -89.5t-32 -74t-111.5 -39.5t-190.5 14q-82 15 -168 116t-167 268q-200 -5 -425.5 -6.5t-453 2.5t-444 11.5t-395.5 20.5q-192 -253 -374 -487.5t-330.5 -422.5t-252 -312.5t-139.5 -157.5q-51 -46 -89.5 -59t-56.5 0t-9 50zM707 645q333 5 664 19t618 30 q-46 154 -80.5 325t-53.5 354t-20.5 374t18.5 380q-33 -41 -140.5 -179t-263.5 -339t-348 -450.5t-394 -513.5zM1774 2813q-15 10 15.5 50t89.5 92.5t133 111.5t144.5 109t128 82t78.5 32q20 0 65 -26t98.5 -65.5t107.5 -88t95 -97t61 -91t5 -68.5q-23 -36 -79 -67.5 t-120 -52t-121.5 -26t-81.5 12.5q-23 15 -53.5 69t-62.5 113t-61.5 105t-49.5 46t-75.5 -43.5t-118 -93.5t-119 -85.5t-79.5 -18.5z" />
<glyph unicode="&#xc3;" horiz-adv-x="3023" d="M-813 -1092q9 37 53 94q18 23 107.5 136.5t230 291.5t320 404.5t376.5 475.5q-79 5 -139.5 12.5t-103.5 15.5q-192 33 -307.5 96t-181.5 129q-77 74 -110 161q207 -46 496.5 -63.5t611.5 -17.5q123 154 244.5 307t237 299t221.5 280.5t198 249.5q215 271 410 515 q-5 49 0 94q5 38 15 79.5t39 69.5q28 26 88 46.5t126.5 26.5t127 -4t85.5 -43q13 -18 8 -106.5t-13 -228t-15.5 -318.5t0 -379t33.5 -408.5t84 -405.5q133 5 232 9t147 -2q131 -8 186 -55t51 -107t-56.5 -123t-131.5 -104q-64 -28 -246 -43q64 -121 164 -218 q46 -46 50 -89.5t-32 -74t-111.5 -39.5t-190.5 14q-82 15 -168 116t-167 268q-200 -5 -425.5 -6.5t-453 2.5t-444 11.5t-395.5 20.5q-192 -253 -374 -487.5t-330.5 -422.5t-252 -312.5t-139.5 -157.5q-51 -46 -89.5 -59t-56.5 0t-9 50zM707 645q333 5 664 19t618 30 q-46 154 -80.5 325t-53.5 354t-20.5 374t18.5 380q-33 -41 -140.5 -179t-263.5 -339t-348 -450.5t-394 -513.5zM1705.5 2854.5q-11.5 7.5 9 30.5t89.5 64q148 87 260 111.5t195 13t146 -46t111.5 -65.5t89.5 -45t84 17q18 15 47.5 21.5t45 1.5t5 -23t-66.5 -51 q-113 -74 -191 -94.5t-138 -12t-107.5 36.5t-96.5 54q-105 49 -197 62t-166 -39q-38 -26 -73 -34.5t-46.5 -1z" />
<glyph unicode="&#xc4;" horiz-adv-x="3023" d="M-813 -1092q9 37 53 94q18 23 107.5 136.5t230 291.5t320 404.5t376.5 475.5q-79 5 -139.5 12.5t-103.5 15.5q-192 33 -307.5 96t-181.5 129q-77 74 -110 161q207 -46 496.5 -63.5t611.5 -17.5q123 154 244.5 307t237 299t221.5 280.5t198 249.5q215 271 410 515 q-5 49 0 94q5 38 15 79.5t39 69.5q28 26 88 46.5t126.5 26.5t127 -4t85.5 -43q13 -18 8 -106.5t-13 -228t-15.5 -318.5t0 -379t33.5 -408.5t84 -405.5q133 5 232 9t147 -2q131 -8 186 -55t51 -107t-56.5 -123t-131.5 -104q-64 -28 -246 -43q64 -121 164 -218 q46 -46 50 -89.5t-32 -74t-111.5 -39.5t-190.5 14q-82 15 -168 116t-167 268q-200 -5 -425.5 -6.5t-453 2.5t-444 11.5t-395.5 20.5q-192 -253 -374 -487.5t-330.5 -422.5t-252 -312.5t-139.5 -157.5q-51 -46 -89.5 -59t-56.5 0t-9 50zM707 645q333 5 664 19t618 30 q-46 154 -80.5 325t-53.5 354t-20.5 374t18.5 380q-33 -41 -140.5 -179t-263.5 -339t-348 -450.5t-394 -513.5zM1864 2965q13 38 38.5 71.5t58.5 59t70.5 41t75.5 15.5q74 3 111 -50t12 -127q-26 -74 -93.5 -128t-147.5 -56q-74 -3 -109.5 48.5t-15.5 125.5zM2322 2965 q13 38 38.5 71.5t59 59t70.5 41t75 15.5q74 3 111.5 -50t11.5 -127t-93.5 -128t-147.5 -56q-74 -3 -109.5 48.5t-15.5 125.5z" />
<glyph unicode="&#xc5;" horiz-adv-x="3023" d="M-813 -1092q9 37 53 94q18 23 107.5 136.5t230 291.5t320 404.5t376.5 475.5q-79 5 -139.5 12.5t-103.5 15.5q-192 33 -307.5 96t-181.5 129q-77 74 -110 161q207 -46 496.5 -63.5t611.5 -17.5q123 154 244.5 307t237 299t221.5 280.5t198 249.5q215 271 410 515 q-5 49 0 94q5 38 15 79.5t39 69.5q28 26 88 46.5t126.5 26.5t127 -4t85.5 -43q13 -18 8 -106.5t-13 -228t-15.5 -318.5t0 -379t33.5 -408.5t84 -405.5q133 5 232 9t147 -2q131 -8 186 -55t51 -107t-56.5 -123t-131.5 -104q-64 -28 -246 -43q64 -121 164 -218 q46 -46 50 -89.5t-32 -74t-111.5 -39.5t-190.5 14q-82 15 -168 116t-167 268q-200 -5 -425.5 -6.5t-453 2.5t-444 11.5t-395.5 20.5q-192 -253 -374 -487.5t-330.5 -422.5t-252 -312.5t-139.5 -157.5q-51 -46 -89.5 -59t-56.5 0t-9 50zM707 645q333 5 664 19t618 30 q-46 154 -80.5 325t-53.5 354t-20.5 374t18.5 380q-33 -41 -140.5 -179t-263.5 -339t-348 -450.5t-394 -513.5zM2032 3039q18 54 56.5 102.5t87 85.5t105 57.5t110.5 20.5q110 0 161 -78t13 -188q-20 -54 -57.5 -102.5t-86 -85.5t-105 -57.5t-109.5 -20.5q-110 0 -161.5 78 t-13.5 188zM2214.5 2897q25.5 -50 84.5 -50t117.5 50t86.5 122q23 72 -2.5 121.5t-84.5 49.5t-117.5 -49.5t-81.5 -121.5q-28 -72 -2.5 -122z" />
<glyph unicode="&#xc6;" horiz-adv-x="3502" d="M-526 -980.5q-9 12.5 21.5 50t110.5 93.5l1034 1147q-38 3 -99.5 6.5t-124.5 7.5t-116.5 6.5t-71.5 7.5q-169 33 -244.5 96t-98.5 129q-28 74 -8 161q87 -23 203.5 -38t252 -25.5t288 -14t313.5 -3.5l1611 1651q26 49 59 94q28 38 66 79.5t85 69.5q31 18 96 20.5 t144.5 -5t161 -22t142 -29.5t90 -28t3.5 -18q-141 -28 -304.5 -146t-311 -320t-261.5 -480t-155 -623l-796 -617q-136 -5 -214 -6.5t-125 0t-76.5 4t-70.5 6t-105 10t-177 14.5l-1142 -1219q-77 -46 -124 -58.5t-56 0zM1098 645q110 0 189.5 2.5t141 5t112.5 5t109 8t128 9 t170 9.5q120 118 174 201t67 148t0 122.5t-24.5 123t-10 146t43.5 194.5t138 267.5t273 363.5zM1310.5 -288q-2.5 193 89.5 413.5t285.5 456t498.5 462.5q-79 189 -55 370t117.5 339.5t240.5 290.5t317.5 226.5t344.5 147t322 52.5q138 0 224 -37t134.5 -94.5t64 -132 t10.5 -150t-24.5 -143t-39.5 -116.5q-3 -10 -3 -19t-7 -22q-15 -46 -47.5 -85.5t-72 -70.5t-87 -47.5t-93.5 -16.5q-92 0 -134.5 64t-11.5 156q18 46 50 87t73 70.5t88.5 47.5t93.5 18q51 0 90 -23q15 69 16 143t-36 133t-119 97.5t-230 38.5q-118 0 -230.5 -60t-211 -157.5 t-179.5 -221.5t-132 -254.5t-69 -253.5t9 -219t104 -153.5t212 -52.5q61 0 85.5 -18t17 -38.5t-43.5 -38.5t-89 -18q-195 0 -361.5 -70.5t-299.5 -184t-231.5 -259.5t-153.5 -298.5t-66.5 -298.5t27 -260t131.5 -184t244 -70q113 0 220.5 55t203.5 142t179.5 192 t147.5 203.5t106 179t60 116.5q23 54 47.5 78t39.5 19t14 -39.5t-32 -98.5q-20 -41 -72.5 -135.5t-132 -210t-182 -239.5t-223 -226.5t-253.5 -168t-271 -65.5q-223 0 -384 84.5t-244.5 229.5t-86 338z" />
<glyph unicode="&#xc7;" horiz-adv-x="2467" d="M180.5 15.5q-16.5 156.5 1.5 326.5t64 339q49 169 144.5 356t229 372.5t298.5 355.5t353 303.5t393 219t417 100.5q172 13 297.5 -11t213.5 -71.5t140.5 -113t79.5 -134.5t28.5 -138t-14.5 -125q-3 -23 -13 -47q-3 -5 -2.5 -11t-4.5 -12q-13 -46 -41 -87t-66.5 -73 t-84.5 -52.5t-92 -22.5q-90 -5 -138.5 54t-25.5 148q15 46 43 87t66.5 73t83.5 52.5t91 23.5q59 5 100 -18q-8 69 -38.5 145.5t-100 138t-186 97.5t-297.5 23q-143 -10 -286.5 -96t-279.5 -225.5t-259 -321t-225 -384t-176.5 -413.5t-115.5 -408t-42 -370t47.5 -298.5 t148.5 -194.5t264 -56q118 8 230.5 47.5t214.5 94.5t189 120.5t156.5 125.5t115.5 108.5t64 71.5q41 46 73 65.5t46 14t3.5 -34.5t-53.5 -78q-31 -33 -90 -99.5t-144.5 -148.5t-197 -169t-246 -161.5t-294.5 -127t-339 -65.5t-312 37t-224 146t-141 230.5t-66.5 291z M416 -1096q9 13 24 14t30.5 -2.5t12.5 -8.5t43.5 -20.5t109 -19.5t128 18t103.5 91q26 46 21 69t-28 30.5t-57.5 5t-69.5 -6.5t-61.5 -5t-34.5 12q-13 18 11.5 56t59 80.5t66.5 78t37 48.5t39.5 17t75.5 6q46 3 103 0q-41 -38 -75 -71q-28 -28 -52 -60t-22 -53 q0 -15 25.5 -7.5t60.5 20.5t72 23t61 -1.5t30.5 -50t-18.5 -122.5q-28 -84 -86 -135.5t-131 -78.5t-152 -33.5t-145.5 1.5t-115.5 24.5t-59 36.5q-15 31 -6 44z" />
<glyph unicode="&#xc8;" horiz-adv-x="2132" d="M-17.5 -288q-2.5 193 89.5 413.5t285 456t498 462.5q-79 189 -55 370t117.5 339.5t241 290.5t317.5 226.5t344 147t323 52.5q138 0 223.5 -37t134.5 -94.5t64 -132t10 -150t-24 -143t-40 -116.5q-3 -10 -2.5 -19t-7.5 -22q-15 -46 -47 -85.5t-72 -70.5t-87 -47.5 t-93 -16.5q-92 0 -134.5 64t-11.5 156q18 46 50 87t73 70.5t88 47.5t93 18q51 0 90 -23q15 69 16.5 143t-35.5 133t-119 97.5t-231 38.5q-118 0 -230.5 -60t-211 -157.5t-179 -221.5t-132 -254.5t-69 -253.5t9 -219t103.5 -153.5t213 -52.5q61 0 85.5 -18t16.5 -38.5 t-43.5 -38.5t-89.5 -18q-195 0 -361 -70.5t-299.5 -184t-232 -259.5t-153.5 -298.5t-66.5 -298.5t27 -260t132 -184t244.5 -70q113 0 220 55t203 142t179.5 192t147.5 203.5t106 179t60 116.5q23 54 47.5 78t40 19t14 -39.5t-32.5 -98.5q-20 -41 -72.5 -135.5t-132 -210 t-182 -239.5t-222.5 -226.5t-253 -168t-272 -65.5q-223 0 -384 84.5t-244 229.5t-85.5 338zM1713 2984.5q-26 48.5 15 97.5q59 67 125.5 72t134.5 -27t132 -91t120.5 -123t98.5 -123t65 -90q13 -18 10.5 -42t-14 -43.5t-29.5 -24.5t-36 16q-13 15 -73 42t-142 64t-167.5 82 t-149.5 93.5t-90 97z" />
<glyph unicode="&#xc9;" horiz-adv-x="2132" d="M-17.5 -288q-2.5 193 89.5 413.5t285 456t498 462.5q-79 189 -55 370t117.5 339.5t241 290.5t317.5 226.5t344 147t323 52.5q138 0 223.5 -37t134.5 -94.5t64 -132t10 -150t-24 -143t-40 -116.5q-3 -10 -2.5 -19t-7.5 -22q-15 -46 -47 -85.5t-72 -70.5t-87 -47.5 t-93 -16.5q-92 0 -134.5 64t-11.5 156q18 46 50 87t73 70.5t88 47.5t93 18q51 0 90 -23q15 69 16.5 143t-35.5 133t-119 97.5t-231 38.5q-118 0 -230.5 -60t-211 -157.5t-179 -221.5t-132 -254.5t-69 -253.5t9 -219t103.5 -153.5t213 -52.5q61 0 85.5 -18t16.5 -38.5 t-43.5 -38.5t-89.5 -18q-195 0 -361 -70.5t-299.5 -184t-232 -259.5t-153.5 -298.5t-66.5 -298.5t27 -260t132 -184t244.5 -70q113 0 220 55t203 142t179.5 192t147.5 203.5t106 179t60 116.5q23 54 47.5 78t40 19t14 -39.5t-32.5 -98.5q-20 -41 -72.5 -135.5t-132 -210 t-182 -239.5t-222.5 -226.5t-253 -168t-272 -65.5q-223 0 -384 84.5t-244 229.5t-85.5 338zM1680 2536q-9 14 0 30.5t45 29.5q23 8 98.5 55t176.5 110t215 129.5t211.5 111t166.5 56.5t82 -32q18 -64 -29.5 -121.5t-133 -110t-196 -97.5t-218 -81t-199.5 -62.5t-138 -39.5 q-28 -8 -50 0t-31 22z" />
<glyph unicode="&#xca;" horiz-adv-x="2132" d="M-17.5 -288q-2.5 193 89.5 413.5t285 456t498 462.5q-79 189 -55 370t117.5 339.5t241 290.5t317.5 226.5t344 147t323 52.5q138 0 223.5 -37t134.5 -94.5t64 -132t10 -150t-24 -143t-40 -116.5q-3 -10 -2.5 -19t-7.5 -22q-15 -46 -47 -85.5t-72 -70.5t-87 -47.5 t-93 -16.5q-92 0 -134.5 64t-11.5 156q18 46 50 87t73 70.5t88 47.5t93 18q51 0 90 -23q15 69 16.5 143t-35.5 133t-119 97.5t-231 38.5q-118 0 -230.5 -60t-211 -157.5t-179 -221.5t-132 -254.5t-69 -253.5t9 -219t103.5 -153.5t213 -52.5q61 0 85.5 -18t16.5 -38.5 t-43.5 -38.5t-89.5 -18q-195 0 -361 -70.5t-299.5 -184t-232 -259.5t-153.5 -298.5t-66.5 -298.5t27 -260t132 -184t244.5 -70q113 0 220 55t203 142t179.5 192t147.5 203.5t106 179t60 116.5q23 54 47.5 78t40 19t14 -39.5t-32.5 -98.5q-20 -41 -72.5 -135.5t-132 -210 t-182 -239.5t-222.5 -226.5t-253 -168t-272 -65.5q-223 0 -384 84.5t-244 229.5t-85.5 338zM1710 2728q-15 10 15.5 50t89.5 92.5t133 111.5t144.5 109t128 82t78.5 32q20 0 65 -26t98.5 -65.5t107.5 -88t95 -97t61 -91t5 -68.5q-23 -36 -79 -67.5t-120 -52t-121.5 -26 t-81.5 12.5q-23 15 -53.5 69t-62.5 113t-61.5 105t-49.5 46t-75.5 -43.5t-118 -93.5t-119 -85.5t-79.5 -18.5z" />
<glyph unicode="&#xcb;" horiz-adv-x="2132" d="M-17.5 -288q-2.5 193 89.5 413.5t285 456t498 462.5q-79 189 -55 370t117.5 339.5t241 290.5t317.5 226.5t344 147t323 52.5q138 0 223.5 -37t134.5 -94.5t64 -132t10 -150t-24 -143t-40 -116.5q-3 -10 -2.5 -19t-7.5 -22q-15 -46 -47 -85.5t-72 -70.5t-87 -47.5 t-93 -16.5q-92 0 -134.5 64t-11.5 156q18 46 50 87t73 70.5t88 47.5t93 18q51 0 90 -23q15 69 16.5 143t-35.5 133t-119 97.5t-231 38.5q-118 0 -230.5 -60t-211 -157.5t-179 -221.5t-132 -254.5t-69 -253.5t9 -219t103.5 -153.5t213 -52.5q61 0 85.5 -18t16.5 -38.5 t-43.5 -38.5t-89.5 -18q-195 0 -361 -70.5t-299.5 -184t-232 -259.5t-153.5 -298.5t-66.5 -298.5t27 -260t132 -184t244.5 -70q113 0 220 55t203 142t179.5 192t147.5 203.5t106 179t60 116.5q23 54 47.5 78t40 19t14 -39.5t-32.5 -98.5q-20 -41 -72.5 -135.5t-132 -210 t-182 -239.5t-222.5 -226.5t-253 -168t-272 -65.5q-223 0 -384 84.5t-244 229.5t-85.5 338zM1777 2811q13 38 38.5 71.5t58.5 59t70.5 41t75.5 15.5q74 3 111 -50t12 -127q-26 -74 -93.5 -128t-147.5 -56q-74 -3 -109.5 48.5t-15.5 125.5zM2235 2811q13 38 38.5 71.5t59 59 t70.5 41t75 15.5q74 3 111.5 -50t11.5 -127t-93.5 -128t-147.5 -56q-74 -3 -109.5 48.5t-15.5 125.5z" />
<glyph unicode="&#xcc;" horiz-adv-x="1205" d="M-121.5 -1084.5q-14.5 139.5 26.5 344.5q18 102 68 284t120.5 411t157.5 491.5t178 523.5t180.5 507t167.5 442t139.5 327.5t94.5 165.5q64 67 137 97.5t127 12.5t75.5 -88.5t-16.5 -203.5q-20 -67 -80.5 -223t-149 -375t-194.5 -484t-217.5 -551.5t-219 -579.5 t-198.5 -566t-156 -511t-91 -415q-64 61 -102 164q-33 87 -47.5 226.5zM934 3041.5q-26 48.5 15 97.5q59 67 125.5 72t134.5 -27t132 -91t120.5 -123t98.5 -123t65 -90q13 -18 10.5 -42t-14 -43.5t-29.5 -24.5t-36 16q-13 15 -73 42t-142 64t-167.5 82t-149.5 93.5t-90 97z " />
<glyph unicode="&#xcd;" horiz-adv-x="1205" d="M-121.5 -1084.5q-14.5 139.5 26.5 344.5q18 102 68 284t120.5 411t157.5 491.5t178 523.5t180.5 507t167.5 442t139.5 327.5t94.5 165.5q64 67 137 97.5t127 12.5t75.5 -88.5t-16.5 -203.5q-20 -67 -80.5 -223t-149 -375t-194.5 -484t-217.5 -551.5t-219 -579.5 t-198.5 -566t-156 -511t-91 -415q-64 61 -102 164q-33 87 -47.5 226.5zM1102 2805q-9 14 0 30.5t45 29.5q23 8 98.5 55t176.5 110t215 129.5t211.5 111t166.5 56.5t82 -32q18 -64 -29.5 -121.5t-133 -110t-196 -97.5t-218 -81t-199.5 -62.5t-138 -39.5q-28 -8 -50 0t-31 22z " />
<glyph unicode="&#xce;" horiz-adv-x="1205" d="M-121.5 -1084.5q-14.5 139.5 26.5 344.5q18 102 68 284t120.5 411t157.5 491.5t178 523.5t180.5 507t167.5 442t139.5 327.5t94.5 165.5q64 67 137 97.5t127 12.5t75.5 -88.5t-16.5 -203.5q-20 -67 -80.5 -223t-149 -375t-194.5 -484t-217.5 -551.5t-219 -579.5 t-198.5 -566t-156 -511t-91 -415q-64 61 -102 164q-33 87 -47.5 226.5zM909 2682q-15 10 15.5 50t89.5 92.5t133 111.5t144.5 109t128 82t78.5 32q20 0 65 -26t98.5 -65.5t107.5 -88t95 -97t61 -91t5 -68.5q-23 -36 -79 -67.5t-120 -52t-121.5 -26t-81.5 12.5 q-23 15 -53.5 69t-62.5 113t-61.5 105t-49.5 46t-75.5 -43.5t-118 -93.5t-119 -85.5t-79.5 -18.5z" />
<glyph unicode="&#xcf;" horiz-adv-x="1205" d="M-121.5 -1084.5q-14.5 139.5 26.5 344.5q18 102 68 284t120.5 411t157.5 491.5t178 523.5t180.5 507t167.5 442t139.5 327.5t94.5 165.5q64 67 137 97.5t127 12.5t75.5 -88.5t-16.5 -203.5q-20 -67 -80.5 -223t-149 -375t-194.5 -484t-217.5 -551.5t-219 -579.5 t-198.5 -566t-156 -511t-91 -415q-64 61 -102 164q-33 87 -47.5 226.5zM907 2770q13 38 38.5 71.5t58.5 59t70.5 41t75.5 15.5q74 3 111 -50t12 -127q-26 -74 -93.5 -128t-147.5 -56q-74 -3 -109.5 48.5t-15.5 125.5zM1365 2770q13 38 38.5 71.5t59 59t70.5 41t75 15.5 q74 3 111.5 -50t11.5 -127t-93.5 -128t-147.5 -56q-74 -3 -109.5 48.5t-15.5 125.5z" />
<glyph unicode="&#xd0;" horiz-adv-x="2526" d="M-774.5 2343.5q6.5 34.5 50.5 50.5q33 10 159.5 16.5t309.5 9t406 0t451 -5.5q535 -10 1190 -28q154 0 298.5 -60t261 -169t194.5 -260t102.5 -330t-16.5 -380t-164 -413.5t-338 -427.5t-540 -420q-207 -133 -402 -203.5t-374 -93.5t-340.5 -5t-304.5 61 q-13 -31 -36 -48.5t-44.5 -16.5t-36 26.5t-8.5 84.5q-177 72 -316.5 166.5t-236.5 181.5q-115 102 -200 208q10 28 25 43q13 13 31 13t44 -28q15 -20 62.5 -79t129.5 -132t199.5 -150t276.5 -136q20 79 78 244.5t133.5 376.5t162.5 446.5t167.5 454.5t148.5 401t106 284 q-261 0 -545 -9t-589 -9q-79 0 -156 24.5t-141 61.5t-111.5 83t-70.5 89.5t-16.5 78zM-54 678q-15 67 3 157q125 -13 255.5 -12t249.5 6.5t221.5 9.5t171.5 -4q69 -5 91 -55t12 -108t-43.5 -105t-74.5 -47h-171.5t-162.5 1t-164 1h-175q-108 0 -155.5 49t-57.5 107z M192 -223q108 -31 234.5 -48.5t272.5 -17.5q164 0 327.5 58.5t317.5 158.5t292 234.5t250.5 285.5t194.5 311t123 312.5t34.5 288t-67.5 237.5q-77 123 -193.5 204t-267.5 128t-334 67.5t-390 25.5q-38 -110 -106 -296.5t-149 -410.5t-166.5 -463.5t-161 -453.5t-132 -379 t-79.5 -242z" />
<glyph unicode="&#xd1;" horiz-adv-x="2378" d="M-276.5 1816.5q-12.5 19.5 33.5 65.5q31 31 93.5 91t139.5 120t162.5 107.5t167.5 57.5q154 18 265 -9t190.5 -83.5t128 -134.5t76.5 -162q67 -197 47 -466q118 238 281 427q69 79 156 156t189.5 137.5t221.5 97.5t255 37q108 0 165.5 -82t74 -223t-1.5 -330t-59 -401.5 t-101 -440.5t-126.5 -444.5t-134.5 -412t-127 -348t-103.5 -250t-62.5 -114.5q-44 -46 -100 -42.5t-101 57.5t-65.5 159t5.5 261q256 671 412 1200q67 225 118 440.5t67.5 384.5t-8 272.5t-111.5 103.5q-177 0 -334 -125.5t-296.5 -330t-261 -467t-225.5 -538t-191 -540.5 t-156 -473.5t-120 -340.5t-85 -139q-69 -15 -94.5 15.5t-38.5 83t-27 115t-55 108.5q-15 18 5.5 107.5t62.5 229t99.5 319t118 375.5t115.5 399.5t92 392.5t48.5 353t-15.5 283t-100 180.5t-203 43.5q-59 -8 -120.5 -38.5t-117.5 -69t-102.5 -78t-74.5 -65.5 q-59 -51 -71.5 -31.5zM1178.5 2449.5q-11.5 7.5 9 30.5t89.5 64q148 87 260 111.5t195 13t146 -46t111.5 -65.5t89.5 -45t84 17q18 15 47.5 21.5t45 1.5t5 -23t-66.5 -51q-113 -74 -191 -94.5t-138 -12t-107.5 36.5t-96.5 54q-105 49 -197 62t-166 -39q-38 -26 -73 -34.5 t-46.5 -1z" />
<glyph unicode="&#xd2;" horiz-adv-x="2787" d="M201 303.5q9 280.5 122 600.5q74 212 184 409t245.5 368.5t289.5 312.5t317.5 242t330 156t325.5 55q238 0 403 -121.5t247 -330t73 -490t-119 -601.5q-77 -212 -187 -409.5t-244.5 -369t-289.5 -311t-317.5 -240.5t-327.5 -156t-324 -55q-238 0 -405.5 121.5t-249.5 330 t-73 489zM653 362.5q33 -221.5 131.5 -374t256 -223t357.5 -34.5q202 36 398 169t361 333t284 448t170 517q49 269 17 490.5t-130.5 372.5t-256 221.5t-357.5 34.5q-202 -36 -398 -169t-361 -333t-285.5 -448t-168.5 -517q-51 -266 -18 -487.5zM1805 2885.5 q-26 48.5 15 97.5q59 67 125.5 72t134.5 -27t132 -91t120.5 -123t98.5 -123t65 -90q13 -18 10.5 -42t-14 -43.5t-29.5 -24.5t-36 16q-13 15 -73 42t-142 64t-167.5 82t-149.5 93.5t-90 97z" />
<glyph unicode="&#xd3;" horiz-adv-x="2787" d="M201 303.5q9 280.5 122 600.5q74 212 184 409t245.5 368.5t289.5 312.5t317.5 242t330 156t325.5 55q238 0 403 -121.5t247 -330t73 -490t-119 -601.5q-77 -212 -187 -409.5t-244.5 -369t-289.5 -311t-317.5 -240.5t-327.5 -156t-324 -55q-238 0 -405.5 121.5t-249.5 330 t-73 489zM653 362.5q33 -221.5 131.5 -374t256 -223t357.5 -34.5q202 36 398 169t361 333t284 448t170 517q49 269 17 490.5t-130.5 372.5t-256 221.5t-357.5 34.5q-202 -36 -398 -169t-361 -333t-285.5 -448t-168.5 -517q-51 -266 -18 -487.5zM1760 2595q-9 14 0 30.5 t45 29.5q23 8 98.5 55t176.5 110t215 129.5t211.5 111t166.5 56.5t82 -32q18 -64 -29.5 -121.5t-133 -110t-196 -97.5t-218 -81t-199.5 -62.5t-138 -39.5q-28 -8 -50 0t-31 22z" />
<glyph unicode="&#xd4;" horiz-adv-x="2787" d="M201 303.5q9 280.5 122 600.5q74 212 184 409t245.5 368.5t289.5 312.5t317.5 242t330 156t325.5 55q238 0 403 -121.5t247 -330t73 -490t-119 -601.5q-77 -212 -187 -409.5t-244.5 -369t-289.5 -311t-317.5 -240.5t-327.5 -156t-324 -55q-238 0 -405.5 121.5t-249.5 330 t-73 489zM653 362.5q33 -221.5 131.5 -374t256 -223t357.5 -34.5q202 36 398 169t361 333t284 448t170 517q49 269 17 490.5t-130.5 372.5t-256 221.5t-357.5 34.5q-202 -36 -398 -169t-361 -333t-285.5 -448t-168.5 -517q-51 -266 -18 -487.5zM1705 2580q-15 10 15.5 50 t89.5 92.5t133 111.5t144.5 109t128 82t78.5 32q20 0 65 -26t98.5 -65.5t107.5 -88t95 -97t61 -91t5 -68.5q-23 -36 -79 -67.5t-120 -52t-121.5 -26t-81.5 12.5q-23 15 -53.5 69t-62.5 113t-61.5 105t-49.5 46t-75.5 -43.5t-118 -93.5t-119 -85.5t-79.5 -18.5z" />
<glyph unicode="&#xd5;" horiz-adv-x="2787" d="M201 303.5q9 280.5 122 600.5q74 212 184 409t245.5 368.5t289.5 312.5t317.5 242t330 156t325.5 55q238 0 403 -121.5t247 -330t73 -490t-119 -601.5q-77 -212 -187 -409.5t-244.5 -369t-289.5 -311t-317.5 -240.5t-327.5 -156t-324 -55q-238 0 -405.5 121.5t-249.5 330 t-73 489zM653 362.5q33 -221.5 131.5 -374t256 -223t357.5 -34.5q202 36 398 169t361 333t284 448t170 517q49 269 17 490.5t-130.5 372.5t-256 221.5t-357.5 34.5q-202 -36 -398 -169t-361 -333t-285.5 -448t-168.5 -517q-51 -266 -18 -487.5zM1567.5 2644.5 q-11.5 7.5 9 30.5t89.5 64q148 87 260 111.5t195 13t146 -46t111.5 -65.5t89.5 -45t84 17q18 15 47.5 21.5t45 1.5t5 -23t-66.5 -51q-113 -74 -191 -94.5t-138 -12t-107.5 36.5t-96.5 54q-105 49 -197 62t-166 -39q-38 -26 -73 -34.5t-46.5 -1z" />
<glyph unicode="&#xd6;" horiz-adv-x="2787" d="M201 303.5q9 280.5 122 600.5q74 212 184 409t245.5 368.5t289.5 312.5t317.5 242t330 156t325.5 55q238 0 403 -121.5t247 -330t73 -490t-119 -601.5q-77 -212 -187 -409.5t-244.5 -369t-289.5 -311t-317.5 -240.5t-327.5 -156t-324 -55q-238 0 -405.5 121.5t-249.5 330 t-73 489zM653 362.5q33 -221.5 131.5 -374t256 -223t357.5 -34.5q202 36 398 169t361 333t284 448t170 517q49 269 17 490.5t-130.5 372.5t-256 221.5t-357.5 34.5q-202 -36 -398 -169t-361 -333t-285.5 -448t-168.5 -517q-51 -266 -18 -487.5zM1733 2778q13 38 38.5 71.5 t58.5 59t70.5 41t75.5 15.5q74 3 111 -50t12 -127q-26 -74 -93.5 -128t-147.5 -56q-74 -3 -109.5 48.5t-15.5 125.5zM2191 2778q13 38 38.5 71.5t59 59t70.5 41t75 15.5q74 3 111.5 -50t11.5 -127t-93.5 -128t-147.5 -56q-74 -3 -109.5 48.5t-15.5 125.5z" />
<glyph unicode="&#xd7;" horiz-adv-x="1167" d="M138 399q131 84 256.5 176.5t236.5 181t206 161.5t164 119t130.5 38.5t97.5 -41t42 -78.5t-35 -73q-84 -64 -162 -121.5t-155 -114t-157.5 -115t-167.5 -122.5q-108 -79 -191 -89.5t-142 7.5q-69 20 -123 71zM425 904q10 41 34.5 80.5t59 73t69 52.5t64 23t42.5 -14 q79 -128 149.5 -238t154.5 -241q49 -77 32.5 -156.5t-57.5 -145.5q-46 -77 -123 -149q-49 102 -110.5 193.5t-121.5 172t-109.5 149.5t-75.5 123q-18 36 -8 77z" />
<glyph unicode="&#xd8;" horiz-adv-x="2787" d="M90 -463q394 351 779.5 706.5t731.5 682t643 602t515 464.5q210 188 328.5 278.5t151.5 100.5t-18.5 -53t-174.5 -176q-263 -242 -502.5 -463.5t-479.5 -440.5t-486 -446t-516 -476q-321 -297 -513 -455.5t-295 -229.5q-118 -87 -164 -94zM201 303.5q9 280.5 122 600.5 q74 212 184 409t245.5 368.5t289.5 312.5t317.5 242t330 156t325.5 55q238 0 403 -121.5t247 -330t73 -490t-119 -601.5q-77 -212 -187 -409.5t-244.5 -369t-289.5 -311t-317.5 -240.5t-327.5 -156t-324 -55q-238 0 -405.5 121.5t-249.5 330t-73 489zM653 362.5 q33 -221.5 131.5 -374t256 -223t357.5 -34.5q202 36 398 169t361 333t284 448t170 517q49 269 17 490.5t-130.5 372.5t-256 221.5t-357.5 34.5q-202 -36 -398 -169t-361 -333t-285.5 -448t-168.5 -517q-51 -266 -18 -487.5z" />
<glyph unicode="&#xd9;" horiz-adv-x="2304" d="M85.5 -261q6.5 223 51.5 471t120.5 510.5t157.5 509.5t162.5 464.5t136.5 376.5q13 38 70.5 101t132 124.5t153.5 112.5t137 67.5t82 -14t-12 -130.5q-10 -31 -52 -133t-102.5 -254.5t-133.5 -343t-143 -400.5t-131.5 -427.5t-102.5 -421.5t-54 -383t15.5 -312t104 -211 t213.5 -78t272.5 82t262.5 224t249.5 330t231.5 400.5t208.5 439t183 441.5t152.5 409.5t116.5 343t77 241t33.5 104.5q10 31 24 44t25.5 10.5t16.5 -17t-2 -37.5q-3 -8 -32.5 -109t-80.5 -266t-125.5 -384t-167.5 -462t-206 -499t-241 -496.5t-270 -455.5t-298 -375 t-322.5 -253.5t-340.5 -93.5q-218 0 -343.5 97t-180.5 263.5t-48.5 389.5zM1707 2987.5q-26 48.5 15 97.5q59 67 125.5 72t134.5 -27t132 -91t120.5 -123t98.5 -123t65 -90q13 -18 10.5 -42t-14 -43.5t-29.5 -24.5t-36 16q-13 15 -73 42t-142 64t-167.5 82t-149.5 93.5 t-90 97z" />
<glyph unicode="&#xda;" horiz-adv-x="2304" d="M85.5 -261q6.5 223 51.5 471t120.5 510.5t157.5 509.5t162.5 464.5t136.5 376.5q13 38 70.5 101t132 124.5t153.5 112.5t137 67.5t82 -14t-12 -130.5q-10 -31 -52 -133t-102.5 -254.5t-133.5 -343t-143 -400.5t-131.5 -427.5t-102.5 -421.5t-54 -383t15.5 -312t104 -211 t213.5 -78t272.5 82t262.5 224t249.5 330t231.5 400.5t208.5 439t183 441.5t152.5 409.5t116.5 343t77 241t33.5 104.5q10 31 24 44t25.5 10.5t16.5 -17t-2 -37.5q-3 -8 -32.5 -109t-80.5 -266t-125.5 -384t-167.5 -462t-206 -499t-241 -496.5t-270 -455.5t-298 -375 t-322.5 -253.5t-340.5 -93.5q-218 0 -343.5 97t-180.5 263.5t-48.5 389.5zM1688 2626q-9 14 0 30.5t45 29.5q23 8 98.5 55t176.5 110t215 129.5t211.5 111t166.5 56.5t82 -32q18 -64 -29.5 -121.5t-133 -110t-196 -97.5t-218 -81t-199.5 -62.5t-138 -39.5q-28 -8 -50 0 t-31 22z" />
<glyph unicode="&#xdb;" horiz-adv-x="2304" d="M85.5 -261q6.5 223 51.5 471t120.5 510.5t157.5 509.5t162.5 464.5t136.5 376.5q13 38 70.5 101t132 124.5t153.5 112.5t137 67.5t82 -14t-12 -130.5q-10 -31 -52 -133t-102.5 -254.5t-133.5 -343t-143 -400.5t-131.5 -427.5t-102.5 -421.5t-54 -383t15.5 -312t104 -211 t213.5 -78t272.5 82t262.5 224t249.5 330t231.5 400.5t208.5 439t183 441.5t152.5 409.5t116.5 343t77 241t33.5 104.5q10 31 24 44t25.5 10.5t16.5 -17t-2 -37.5q-3 -8 -32.5 -109t-80.5 -266t-125.5 -384t-167.5 -462t-206 -499t-241 -496.5t-270 -455.5t-298 -375 t-322.5 -253.5t-340.5 -93.5q-218 0 -343.5 97t-180.5 263.5t-48.5 389.5zM1626 2713q-15 10 15.5 50t89.5 92.5t133 111.5t144.5 109t128 82t78.5 32q20 0 65 -26t98.5 -65.5t107.5 -88t95 -97t61 -91t5 -68.5q-23 -36 -79 -67.5t-120 -52t-121.5 -26t-81.5 12.5 q-23 15 -53.5 69t-62.5 113t-61.5 105t-49.5 46t-75.5 -43.5t-118 -93.5t-119 -85.5t-79.5 -18.5z" />
<glyph unicode="&#xdc;" horiz-adv-x="2304" d="M85.5 -261q6.5 223 51.5 471t120.5 510.5t157.5 509.5t162.5 464.5t136.5 376.5q13 38 70.5 101t132 124.5t153.5 112.5t137 67.5t82 -14t-12 -130.5q-10 -31 -52 -133t-102.5 -254.5t-133.5 -343t-143 -400.5t-131.5 -427.5t-102.5 -421.5t-54 -383t15.5 -312t104 -211 t213.5 -78t272.5 82t262.5 224t249.5 330t231.5 400.5t208.5 439t183 441.5t152.5 409.5t116.5 343t77 241t33.5 104.5q10 31 24 44t25.5 10.5t16.5 -17t-2 -37.5q-3 -8 -32.5 -109t-80.5 -266t-125.5 -384t-167.5 -462t-206 -499t-241 -496.5t-270 -455.5t-298 -375 t-322.5 -253.5t-340.5 -93.5q-218 0 -343.5 97t-180.5 263.5t-48.5 389.5zM1651 2755q13 38 38.5 71.5t58.5 59t70.5 41t75.5 15.5q74 3 111 -50t12 -127q-26 -74 -93.5 -128t-147.5 -56q-74 -3 -109.5 48.5t-15.5 125.5zM2109 2755q13 38 38.5 71.5t59 59t70.5 41t75 15.5 q74 3 111.5 -50t11.5 -127t-93.5 -128t-147.5 -56q-74 -3 -109.5 48.5t-15.5 125.5z" />
<glyph unicode="&#xdd;" horiz-adv-x="2521" d="M223 -1170q-5 8 33 77t105 175t152.5 239.5t177.5 271.5q215 323 489 724q-77 553 -143 999q-28 189 -55 373.5t-49 334t-37 248.5t-18 116q-8 38 5 63t33.5 33.5t46 0t43.5 -39.5q13 -23 29.5 -116.5t36 -232t38.5 -307.5t39.5 -344t38.5 -345.5t34.5 -311t29.5 -236.5 t20 -124q251 422 477.5 731.5t425 528.5t367.5 357.5t307.5 220.5t243.5 116.5t174 44.5q102 15 158.5 8.5t70.5 -27t-11.5 -48.5t-87.5 -59q-125 -15 -279 -121t-325.5 -276.5t-357 -392t-369.5 -467t-364.5 -504t-343 -503t-303.5 -462.5t-247.5 -384t-173 -266 t-81.5 -110q-38 -23 -90.5 -29.5t-102.5 -2.5t-90 16.5t-47 30.5zM1475 2001q-9 14 0 30.5t45 29.5q23 8 98.5 55t176.5 110t215 129.5t211.5 111t166.5 56.5t82 -32q18 -64 -29.5 -121.5t-133 -110t-196 -97.5t-218 -81t-199.5 -62.5t-138 -39.5q-28 -8 -50 0t-31 22z" />
<glyph unicode="&#xde;" horiz-adv-x="1694" d="M-185.5 -712.5q13.5 108.5 61 286.5t122 412t171.5 495t213.5 536.5t248.5 535t275.5 490t293 403.5t302 274t303.5 101q108 0 111.5 -83t-64.5 -219t-189.5 -307.5t-265 -350.5t-290.5 -349.5t-265 -300.5q-36 -102 -66.5 -197t-58.5 -177q69 102 162.5 216t205 210 t236.5 157.5t261 61.5q143 0 222.5 -52.5t106.5 -135.5t5 -188t-80.5 -210t-151 -199.5t-204.5 -158.5q-136 -77 -277 -115.5t-269 -54t-231.5 -14t-162.5 6.5q-13 -26 -39.5 -99t-61.5 -170t-73 -206t-75.5 -208.5t-69.5 -176.5t-52 -110q-51 -79 -100 -128t-95 -73.5 t-84 -28t-69 9.5q-20 8 -6.5 116.5zM591 471q31 -13 78.5 -22t106.5 -9t129 17t147 58q74 38 147 107t133.5 149.5t104 166.5t57.5 161.5t-5.5 129.5t-85.5 71q-54 15 -118 -10t-134.5 -76.5t-139.5 -119t-133 -138t-116.5 -137t-88.5 -112.5q-26 -77 -47.5 -137.5 t-34.5 -98.5zM906 1393q123 141 251 294.5t242 300.5t206 279t147 233t63 160t-46 59q-79 0 -157.5 -55t-154 -150t-149.5 -223t-143 -275t-134.5 -307t-124.5 -316z" />
<glyph unicode="&#xdf;" horiz-adv-x="1707" d="M-2 -201q5 96 34 246t83 339t137 385t194.5 384t255 336.5t320 242t389.5 98.5q282 8 441.5 -57t217 -179t25.5 -261.5t-130.5 -299.5t-252 -299.5t-337.5 -259.5q110 -59 145.5 -155t6.5 -203.5t-117.5 -211.5t-227 -175.5t-320 -98.5t-396.5 19q-36 15 -43.5 33t5 31 t43.5 19.5t69 3.5q41 -5 127 4t180.5 43.5t180.5 103.5t129 190q28 79 24.5 130.5t-28 80.5t-63 40.5t-78 14.5t-78 0t-58.5 -3q-33 0 -50 10.5t-15.5 23.5t21.5 25.5t59 17.5q20 3 98.5 59t184.5 147t224 205t214 234.5t157 234.5t53.5 202t-98.5 143t-298 55 q-159 0 -275.5 -92t-203.5 -236.5t-149.5 -324t-112.5 -351t-92.5 -316t-90.5 -223.5q-72 -120 -145 -214t-138 -155t-120 -86.5t-91 -5.5q-15 10 -10 106z" />
<glyph unicode="&#xe0;" horiz-adv-x="1822" d="M119 337q19 101 76.5 212t153.5 225t230 219q141 113 272.5 169.5t246.5 76.5q102 18 187 11.5t138.5 -24.5t75.5 -42t4 -42q-23 -20 -37 -18t-37.5 13.5t-64 24.5t-117.5 13q-72 0 -156.5 -32t-167.5 -87t-158.5 -129.5t-129.5 -155.5q-82 -123 -104 -216.5t-7.5 -159 t55.5 -98.5t87 -33q84 0 158.5 51t138.5 126.5t117.5 164t99.5 164t84.5 125.5t71.5 50t43.5 -55t14.5 -136t6.5 -177t18 -176.5t51 -135.5t104.5 -55q51 0 102.5 21.5t95.5 50.5q46 31 92 71l115 100q17 23 43 23q33 0 26 -36q-3 -3 -35 -36t-88 -83t-130.5 -107.5 t-160 -106t-175 -82t-176.5 -33.5q-92 0 -145 60.5t-78.5 134.5t-32 137t-6.5 70q-8 -8 -68 -70.5t-149.5 -136.5t-198 -134.5t-213.5 -60.5q-113 0 -179.5 45t-89.5 122t-4 178zM904 1817.5q-26 48.5 15 97.5q59 67 125.5 72t134.5 -27t132 -91t120.5 -123t98.5 -123 t65 -90q13 -18 10.5 -42t-14 -43.5t-29.5 -24.5t-36 16q-13 15 -73 42t-142 64t-167.5 82t-149.5 93.5t-90 97z" />
<glyph unicode="&#xe1;" horiz-adv-x="1822" d="M119 337q19 101 76.5 212t153.5 225t230 219q141 113 272.5 169.5t246.5 76.5q102 18 187 11.5t138.5 -24.5t75.5 -42t4 -42q-23 -20 -37 -18t-37.5 13.5t-64 24.5t-117.5 13q-72 0 -156.5 -32t-167.5 -87t-158.5 -129.5t-129.5 -155.5q-82 -123 -104 -216.5t-7.5 -159 t55.5 -98.5t87 -33q84 0 158.5 51t138.5 126.5t117.5 164t99.5 164t84.5 125.5t71.5 50t43.5 -55t14.5 -136t6.5 -177t18 -176.5t51 -135.5t104.5 -55q51 0 102.5 21.5t95.5 50.5q46 31 92 71l115 100q17 23 43 23q33 0 26 -36q-3 -3 -35 -36t-88 -83t-130.5 -107.5 t-160 -106t-175 -82t-176.5 -33.5q-92 0 -145 60.5t-78.5 134.5t-32 137t-6.5 70q-8 -8 -68 -70.5t-149.5 -136.5t-198 -134.5t-213.5 -60.5q-113 0 -179.5 45t-89.5 122t-4 178zM951 1489q-9 14 0 30.5t45 29.5q23 8 98.5 55t176.5 110t215 129.5t211.5 111t166.5 56.5 t82 -32q18 -64 -29.5 -121.5t-133 -110t-196 -97.5t-218 -81t-199.5 -62.5t-138 -39.5q-28 -8 -50 0t-31 22z" />
<glyph unicode="&#xe2;" horiz-adv-x="1822" d="M119 337q19 101 76.5 212t153.5 225t230 219q141 113 272.5 169.5t246.5 76.5q102 18 187 11.5t138.5 -24.5t75.5 -42t4 -42q-23 -20 -37 -18t-37.5 13.5t-64 24.5t-117.5 13q-72 0 -156.5 -32t-167.5 -87t-158.5 -129.5t-129.5 -155.5q-82 -123 -104 -216.5t-7.5 -159 t55.5 -98.5t87 -33q84 0 158.5 51t138.5 126.5t117.5 164t99.5 164t84.5 125.5t71.5 50t43.5 -55t14.5 -136t6.5 -177t18 -176.5t51 -135.5t104.5 -55q51 0 102.5 21.5t95.5 50.5q46 31 92 71l115 100q17 23 43 23q33 0 26 -36q-3 -3 -35 -36t-88 -83t-130.5 -107.5 t-160 -106t-175 -82t-176.5 -33.5q-92 0 -145 60.5t-78.5 134.5t-32 137t-6.5 70q-8 -8 -68 -70.5t-149.5 -136.5t-198 -134.5t-213.5 -60.5q-113 0 -179.5 45t-89.5 122t-4 178zM855 1492q-15 10 15.5 50t89.5 92.5t133 111.5t144.5 109t128 82t78.5 32q20 0 65 -26 t98.5 -65.5t107.5 -88t95 -97t61 -91t5 -68.5q-23 -36 -79 -67.5t-120 -52t-121.5 -26t-81.5 12.5q-23 15 -53.5 69t-62.5 113t-61.5 105t-49.5 46t-75.5 -43.5t-118 -93.5t-119 -85.5t-79.5 -18.5z" />
<glyph unicode="&#xe3;" horiz-adv-x="1822" d="M119 337q19 101 76.5 212t153.5 225t230 219q141 113 272.5 169.5t246.5 76.5q102 18 187 11.5t138.5 -24.5t75.5 -42t4 -42q-23 -20 -37 -18t-37.5 13.5t-64 24.5t-117.5 13q-72 0 -156.5 -32t-167.5 -87t-158.5 -129.5t-129.5 -155.5q-82 -123 -104 -216.5t-7.5 -159 t55.5 -98.5t87 -33q84 0 158.5 51t138.5 126.5t117.5 164t99.5 164t84.5 125.5t71.5 50t43.5 -55t14.5 -136t6.5 -177t18 -176.5t51 -135.5t104.5 -55q51 0 102.5 21.5t95.5 50.5q46 31 92 71l115 100q17 23 43 23q33 0 26 -36q-3 -3 -35 -36t-88 -83t-130.5 -107.5 t-160 -106t-175 -82t-176.5 -33.5q-92 0 -145 60.5t-78.5 134.5t-32 137t-6.5 70q-8 -8 -68 -70.5t-149.5 -136.5t-198 -134.5t-213.5 -60.5q-113 0 -179.5 45t-89.5 122t-4 178zM807.5 1561.5q-11.5 7.5 9 30.5t89.5 64q148 87 260 111.5t195 13t146 -46t111.5 -65.5 t89.5 -45t84 17q18 15 47.5 21.5t45 1.5t5 -23t-66.5 -51q-113 -74 -191 -94.5t-138 -12t-107.5 36.5t-96.5 54q-105 49 -197 62t-166 -39q-38 -26 -73 -34.5t-46.5 -1z" />
<glyph unicode="&#xe4;" horiz-adv-x="1822" d="M119 337q19 101 76.5 212t153.5 225t230 219q141 113 272.5 169.5t246.5 76.5q102 18 187 11.5t138.5 -24.5t75.5 -42t4 -42q-23 -20 -37 -18t-37.5 13.5t-64 24.5t-117.5 13q-72 0 -156.5 -32t-167.5 -87t-158.5 -129.5t-129.5 -155.5q-82 -123 -104 -216.5t-7.5 -159 t55.5 -98.5t87 -33q84 0 158.5 51t138.5 126.5t117.5 164t99.5 164t84.5 125.5t71.5 50t43.5 -55t14.5 -136t6.5 -177t18 -176.5t51 -135.5t104.5 -55q51 0 102.5 21.5t95.5 50.5q46 31 92 71l115 100q17 23 43 23q33 0 26 -36q-3 -3 -35 -36t-88 -83t-130.5 -107.5 t-160 -106t-175 -82t-176.5 -33.5q-92 0 -145 60.5t-78.5 134.5t-32 137t-6.5 70q-8 -8 -68 -70.5t-149.5 -136.5t-198 -134.5t-213.5 -60.5q-113 0 -179.5 45t-89.5 122t-4 178zM927 1654q13 38 38.5 71.5t58.5 59t70.5 41t75.5 15.5q74 3 111 -50t12 -127 q-26 -74 -93.5 -128t-147.5 -56q-74 -3 -109.5 48.5t-15.5 125.5zM1385 1654q13 38 38.5 71.5t59 59t70.5 41t75 15.5q74 3 111.5 -50t11.5 -127t-93.5 -128t-147.5 -56q-74 -3 -109.5 48.5t-15.5 125.5z" />
<glyph unicode="&#xe5;" horiz-adv-x="1822" d="M119 337q19 101 76.5 212t153.5 225t230 219q141 113 272.5 169.5t246.5 76.5q102 18 187 11.5t138.5 -24.5t75.5 -42t4 -42q-23 -20 -37 -18t-37.5 13.5t-64 24.5t-117.5 13q-72 0 -156.5 -32t-167.5 -87t-158.5 -129.5t-129.5 -155.5q-82 -123 -104 -216.5t-7.5 -159 t55.5 -98.5t87 -33q84 0 158.5 51t138.5 126.5t117.5 164t99.5 164t84.5 125.5t71.5 50t43.5 -55t14.5 -136t6.5 -177t18 -176.5t51 -135.5t104.5 -55q51 0 102.5 21.5t95.5 50.5q46 31 92 71l115 100q17 23 43 23q33 0 26 -36q-3 -3 -35 -36t-88 -83t-130.5 -107.5 t-160 -106t-175 -82t-176.5 -33.5q-92 0 -145 60.5t-78.5 134.5t-32 137t-6.5 70q-8 -8 -68 -70.5t-149.5 -136.5t-198 -134.5t-213.5 -60.5q-113 0 -179.5 45t-89.5 122t-4 178zM1239 1692q18 54 56.5 102.5t87 85.5t105 57.5t110.5 20.5q110 0 161 -78t13 -188 q-20 -54 -57.5 -102.5t-86 -85.5t-105 -57.5t-109.5 -20.5q-110 0 -161.5 78t-13.5 188zM1421.5 1550q25.5 -50 84.5 -50t117.5 50t86.5 122q23 72 -2.5 121.5t-84.5 49.5t-117.5 -49.5t-81.5 -121.5q-28 -72 -2.5 -122z" />
<glyph unicode="&#xe6;" horiz-adv-x="2170" d="M101 337q19 101 77 212t154 225t229 219q141 113 272.5 169.5t246.5 76.5q102 18 170 19.5t104 -9t41 -28.5t-13 -36q-23 -20 -42 -25t-37 -2.5t-34.5 8.5t-39.5 9q-69 5 -153.5 -25.5t-169 -88t-160 -133.5t-129.5 -157q-82 -123 -103.5 -216.5t-7.5 -159t55 -98.5 t87 -33q84 0 158.5 51t138.5 126.5t117.5 164t99.5 164t84.5 125.5t71.5 50l-314 -548q-102 -115 -208 -202q-92 -77 -203.5 -140t-218.5 -63q-113 0 -179.5 45t-89.5 122t-4 178zM976.5 410q3.5 110 39.5 207q33 100 112.5 215t189.5 213.5t246 164t282 65.5 q118 0 178 -34.5t76.5 -88.5t0 -118t-47.5 -123q-38 -64 -111 -139.5t-161.5 -149.5t-179.5 -143t-165 -121q26 -82 81 -133t157 -51q74 0 174 31q84 28 206 88t276 183q26 23 41 25.5t21.5 -7.5t2.5 -25.5t-14 -25.5q-8 -8 -58 -45t-129 -87t-179 -106.5t-210 -103.5 t-220 -78t-210 -31q-151 0 -238 61.5t-125.5 154t-35 202.5zM1421 430q72 46 156 106t163.5 125.5t143.5 131t92 121.5q41 79 45 134t-16.5 88.5t-63 49t-93.5 15.5q-87 0 -169 -78.5t-143 -193.5t-94.5 -249.5t-20.5 -249.5z" />
<glyph unicode="&#xe7;" horiz-adv-x="1336" d="M147 410q4 110 40 207q33 100 112.5 215t189.5 213.5t245.5 164t281.5 65.5q82 0 141 -25.5t96 -68t48.5 -96t-3.5 -110.5q-13 -41 -32 -82t-44.5 -76.5t-57.5 -62.5t-71 -42q-36 -18 -77 -18q-59 0 -84.5 39.5t-4.5 98.5q20 59 76.5 100t115.5 41q54 0 77 -36 q8 26 12.5 69.5t-9.5 85.5t-56 74t-132 32q-87 0 -167.5 -75.5t-140.5 -189.5t-92 -247t-22 -247t70 -189.5t186 -75.5q74 0 174 31q84 28 205.5 88t275.5 183q26 23 41 25.5t21.5 -7.5t3 -25.5t-14.5 -25.5q-8 -8 -57.5 -45t-129 -87t-179.5 -106.5t-210 -103.5t-220 -78 t-210 -31q-151 0 -238 61.5t-125.5 154t-34.5 202.5zM227 -384q9 13 24 14t30.5 -2.5t12.5 -8.5t43.5 -20.5t109 -19.5t128 18t103.5 91q26 46 21 69t-28 30.5t-57.5 5t-69.5 -6.5t-61.5 -5t-34.5 12q-13 18 11.5 56t59 80.5t66.5 78t37 48.5t39.5 17t75.5 6q46 3 103 0 q-41 -38 -75 -71q-28 -28 -52 -60t-22 -53q0 -15 25.5 -7.5t60.5 20.5t72 23t61 -1.5t30.5 -50t-18.5 -122.5q-28 -84 -86 -135.5t-131 -78.5t-152 -33.5t-145.5 1.5t-115.5 24.5t-59 36.5q-15 31 -6 44z" />
<glyph unicode="&#xe8;" horiz-adv-x="1336" d="M150 410q4 110 39 207q33 100 112.5 215t190 213.5t246 164t281.5 65.5q118 0 178 -34.5t76.5 -88.5t0 -118t-47.5 -123q-38 -64 -111 -139.5t-161.5 -149.5t-179 -143t-165.5 -121q26 -82 81 -133t157 -51q74 0 174 31q84 28 206 88t276 183q26 23 41 25.5t21.5 -7.5 t2.5 -25.5t-14 -25.5q-8 -8 -58 -45t-129 -87t-179 -106.5t-210 -103.5t-220 -78t-210 -31q-151 0 -238 61.5t-125.5 154t-34.5 202.5zM594 430q72 46 156.5 106t163.5 125.5t143 131t92 121.5q41 79 45 134t-16.5 88.5t-63 49t-93.5 15.5q-87 0 -168.5 -78.5t-143 -193.5 t-95 -249.5t-20.5 -249.5zM663 1817.5q-26 48.5 15 97.5q59 67 125.5 72t134.5 -27t132 -91t120.5 -123t98.5 -123t65 -90q13 -18 10.5 -42t-14 -43.5t-29.5 -24.5t-36 16q-13 15 -73 42t-142 64t-167.5 82t-149.5 93.5t-90 97z" />
<glyph unicode="&#xe9;" horiz-adv-x="1336" d="M150 410q4 110 39 207q33 100 112.5 215t190 213.5t246 164t281.5 65.5q118 0 178 -34.5t76.5 -88.5t0 -118t-47.5 -123q-38 -64 -111 -139.5t-161.5 -149.5t-179 -143t-165.5 -121q26 -82 81 -133t157 -51q74 0 174 31q84 28 206 88t276 183q26 23 41 25.5t21.5 -7.5 t2.5 -25.5t-14 -25.5q-8 -8 -58 -45t-129 -87t-179 -106.5t-210 -103.5t-220 -78t-210 -31q-151 0 -238 61.5t-125.5 154t-34.5 202.5zM594 430q72 46 156.5 106t163.5 125.5t143 131t92 121.5q41 79 45 134t-16.5 88.5t-63 49t-93.5 15.5q-87 0 -168.5 -78.5t-143 -193.5 t-95 -249.5t-20.5 -249.5zM707 1489q-9 14 0 30.5t45 29.5q23 8 98.5 55t176.5 110t215 129.5t211.5 111t166.5 56.5t82 -32q18 -64 -29.5 -121.5t-133 -110t-196 -97.5t-218 -81t-199.5 -62.5t-138 -39.5q-28 -8 -50 0t-31 22z" />
<glyph unicode="&#xea;" horiz-adv-x="1336" d="M150 410q4 110 39 207q33 100 112.5 215t190 213.5t246 164t281.5 65.5q118 0 178 -34.5t76.5 -88.5t0 -118t-47.5 -123q-38 -64 -111 -139.5t-161.5 -149.5t-179 -143t-165.5 -121q26 -82 81 -133t157 -51q74 0 174 31q84 28 206 88t276 183q26 23 41 25.5t21.5 -7.5 t2.5 -25.5t-14 -25.5q-8 -8 -58 -45t-129 -87t-179 -106.5t-210 -103.5t-220 -78t-210 -31q-151 0 -238 61.5t-125.5 154t-34.5 202.5zM594 430q72 46 156.5 106t163.5 125.5t143 131t92 121.5q41 79 45 134t-16.5 88.5t-63 49t-93.5 15.5q-87 0 -168.5 -78.5t-143 -193.5 t-95 -249.5t-20.5 -249.5zM617 1492q-15 10 15.5 50t89.5 92.5t133 111.5t144.5 109t128 82t78.5 32q20 0 65 -26t98.5 -65.5t107.5 -88t95 -97t61 -91t5 -68.5q-23 -36 -79 -67.5t-120 -52t-121.5 -26t-81.5 12.5q-23 15 -53.5 69t-62.5 113t-61.5 105t-49.5 46 t-75.5 -43.5t-118 -93.5t-119 -85.5t-79.5 -18.5z" />
<glyph unicode="&#xeb;" horiz-adv-x="1336" d="M150 410q4 110 39 207q33 100 112.5 215t190 213.5t246 164t281.5 65.5q118 0 178 -34.5t76.5 -88.5t0 -118t-47.5 -123q-38 -64 -111 -139.5t-161.5 -149.5t-179 -143t-165.5 -121q26 -82 81 -133t157 -51q74 0 174 31q84 28 206 88t276 183q26 23 41 25.5t21.5 -7.5 t2.5 -25.5t-14 -25.5q-8 -8 -58 -45t-129 -87t-179 -106.5t-210 -103.5t-220 -78t-210 -31q-151 0 -238 61.5t-125.5 154t-34.5 202.5zM594 430q72 46 156.5 106t163.5 125.5t143 131t92 121.5q41 79 45 134t-16.5 88.5t-63 49t-93.5 15.5q-87 0 -168.5 -78.5t-143 -193.5 t-95 -249.5t-20.5 -249.5zM686 1654q13 38 38.5 71.5t58.5 59t70.5 41t75.5 15.5q74 3 111 -50t12 -127q-26 -74 -93.5 -128t-147.5 -56q-74 -3 -109.5 48.5t-15.5 125.5zM1144 1654q13 38 38.5 71.5t59 59t70.5 41t75 15.5q74 3 111.5 -50t11.5 -127t-93.5 -128t-147.5 -56 q-74 -3 -109.5 48.5t-15.5 125.5z" />
<glyph unicode="&#xec;" horiz-adv-x="1221" d="M84 376.5q0 12.5 21 30.5q151 141 280.5 296t242 285.5t213.5 216t198 85.5q41 0 46.5 -46t-11.5 -123t-50 -173t-69 -198t-66.5 -198t-42 -173t1 -123t63.5 -46t112.5 21.5t115.5 50.5q64 31 126 71l112 100q18 23 44 23q33 0 25 -36q0 -3 -35.5 -36t-96 -83 t-138.5 -107.5t-166 -106t-180.5 -82t-179.5 -33.5q-95 0 -143.5 37.5t-65 98.5t-7.5 140.5t30.5 160t51 160t54 141t36 98.5t1.5 37q-54 -64 -128.5 -146t-141 -154.5t-117.5 -126.5t-59 -62q-18 -18 -35.5 -21.5t-29.5 3t-12 19zM604.5 1817.5q-25.5 48.5 15.5 97.5 q59 67 125.5 72t134 -27t131.5 -91t120.5 -123t98.5 -123t65 -90q13 -18 10.5 -42t-14 -43.5t-29.5 -24.5t-36 16q-13 15 -73 42t-142 64t-167.5 82t-149.5 93.5t-89.5 97z" />
<glyph unicode="&#xed;" horiz-adv-x="1221" d="M84 376.5q0 12.5 21 30.5q151 141 280.5 296t242 285.5t213.5 216t198 85.5q41 0 46.5 -46t-11.5 -123t-50 -173t-69 -198t-66.5 -198t-42 -173t1 -123t63.5 -46t112.5 21.5t115.5 50.5q64 31 126 71l112 100q18 23 44 23q33 0 25 -36q0 -3 -35.5 -36t-96 -83 t-138.5 -107.5t-166 -106t-180.5 -82t-179.5 -33.5q-95 0 -143.5 37.5t-65 98.5t-7.5 140.5t30.5 160t51 160t54 141t36 98.5t1.5 37q-54 -64 -128.5 -146t-141 -154.5t-117.5 -126.5t-59 -62q-18 -18 -35.5 -21.5t-29.5 3t-12 19zM646 1489q-9 14 0 30.5t45 29.5 q23 8 98.5 55t177 110t215 129.5t211 111t166.5 56.5t82 -32q18 -64 -29.5 -121.5t-133 -110t-196 -97.5t-218 -81t-199.5 -62.5t-138 -39.5q-28 -8 -50 0t-31 22z" />
<glyph unicode="&#xee;" horiz-adv-x="1221" d="M84.5 376.5q-0.5 -12.5 11.5 -19t29.5 -3t35.5 21.5q8 8 59 62t117.5 126.5t141 154.5t128.5 146q10 0 -1.5 -37t-36 -98.5t-54 -141t-51 -160t-30.5 -160t7.5 -140.5t65.5 -98.5t143 -37.5q87 0 179.5 33.5t180.5 82t166 106t138.5 107.5t96 83.5t35.5 35.5q8 36 -25 36 q-26 0 -44 -23l-112 -100q-61 -41 -126 -71q-54 -28 -115 -50t-113 -22q-51 0 -63.5 46t-1 123t42 173t66.5 198t69 198t50 173t11.5 123t-46.5 46q-97 0 -198 -85.5t-213.5 -216t-242 -285.5t-280.5 -296q-20 -18 -20.5 -30.5zM686 1492q-15 10 15.5 50t89.5 92.5 t133 111.5t144.5 109t128 82t78.5 32q20 0 65 -26t98.5 -65.5t107.5 -88t95 -97t61.5 -91t5.5 -68.5q-23 -36 -79.5 -67.5t-120.5 -52t-121.5 -26t-80.5 12.5q-23 15 -54 69t-63 113t-61.5 105t-49.5 46t-75.5 -43.5t-118 -93.5t-119 -85.5t-79.5 -18.5z" />
<glyph unicode="&#xef;" horiz-adv-x="1221" d="M84 376.5q0 12.5 21 30.5q151 141 280.5 296t242 285.5t213.5 216t198 85.5q41 0 46.5 -46t-11.5 -123t-50 -173t-69 -198t-66.5 -198t-42 -173t1 -123t63.5 -46t112.5 21.5t115.5 50.5q64 31 126 71l112 100q18 23 44 23q33 0 25 -36q0 -3 -35.5 -36t-96 -83 t-138.5 -107.5t-166 -106t-180.5 -82t-179.5 -33.5q-95 0 -143.5 37.5t-65 98.5t-7.5 140.5t30.5 160t51 160t54 141t36 98.5t1.5 37q-54 -64 -128.5 -146t-141 -154.5t-117.5 -126.5t-59 -62q-18 -18 -35.5 -21.5t-29.5 3t-12 19zM699 1654q13 38 38.5 71.5t58.5 59 t70.5 41t75.5 15.5q74 3 111.5 -50t11.5 -127t-93.5 -128t-147.5 -56q-74 -3 -109.5 48.5t-15.5 125.5zM1157 1654q13 38 38.5 71.5t59 59t70.5 41t75 15.5q74 3 111.5 -50t11.5 -127t-93.5 -128t-146.5 -56q-74 -3 -110 48.5t-16 125.5z" />
<glyph unicode="&#xf0;" horiz-adv-x="1482" d="M184.5 369q-10.5 110 33.5 235q41 115 117.5 216.5t177.5 182t220 133t242 70.5q-20 31 -34 61.5t-27 58.5q-41 -13 -74.5 -22t-56.5 -14q-26 -8 -47.5 0t-29 22t1.5 30.5t45 29.5q13 5 42 20.5t70 43.5q-20 51 -34 96t-17 78q-5 84 32 155t88.5 120.5t104 74t80.5 16.5 q18 -5 60 -88t88 -206q77 44 151 81t133 56t99 16.5t52 -33.5q13 -46 -11 -90.5t-74 -85.5t-120.5 -79.5t-149.5 -71.5q28 -77 53.5 -155t47 -150t38.5 -132t27 -101q23 -74 23 -157.5t-36 -175.5q-44 -125 -133.5 -235t-206 -193.5t-250.5 -131t-267 -47.5t-233 47.5 t-157.5 131t-68 193.5zM264.5 475q-8.5 -86 13.5 -152.5t70.5 -110t122.5 -53.5q74 -8 156 19t159 80.5t142 131.5t106 171q44 92 44 189t-18 179q-20 95 -62 185q-79 13 -179 -23t-196 -102.5t-179 -155t-127 -180.5t-52.5 -178z" />
<glyph unicode="&#xf1;" horiz-adv-x="1843" d="M128 387q3 174 51 396q36 141 105 254q31 49 70.5 95t92 81.5t119 57.5t148.5 22q97 0 114 -50t-19 -130.5t-111.5 -179t-162.5 -198.5q10 -77 25.5 -147.5t36 -124t42 -87t42.5 -33.5q23 0 78 70.5t128 175.5t156 228t164 227.5t152.5 175t117.5 70.5q41 0 57.5 -46 t16.5 -123t-10 -173t-23 -198t-20.5 -198t-2.5 -173t29.5 -123t75.5 -46t102.5 21.5t94.5 50.5q46 31 92 71l115 100q18 23 44 23q33 0 26 -36q-3 -3 -35 -36t-88.5 -83t-130.5 -107.5t-160 -106t-175.5 -82t-176.5 -33.5q-95 0 -142 56.5t-62.5 139.5t-9 181.5t16.5 182 t18 140t-8 56.5q-23 0 -67.5 -56.5t-106 -140t-133.5 -182t-150 -181.5t-156 -139.5t-150 -56.5q-69 0 -115 33.5t-71.5 90t-34.5 126.5t-9 145zM536.5 968.5q-6.5 -75.5 1.5 -156.5q69 79 126.5 155.5t88 135.5t23 95t-68.5 36q-51 0 -87 -36t-56.5 -95t-27 -134.5z M817.5 1561.5q-11.5 7.5 9 30.5t89.5 64q148 87 260 111.5t195 13t146 -46t111.5 -65.5t89.5 -45t84 17q18 15 47.5 21.5t45 1.5t5 -23t-66.5 -51q-113 -74 -191 -94.5t-138 -12t-107.5 36.5t-96.5 54q-105 49 -197 62t-166 -39q-38 -26 -73 -34.5t-46.5 -1z" />
<glyph unicode="&#xf2;" horiz-adv-x="1359" d="M142 372.5q-6 113.5 40 244.5t133 244.5t197 198t234 134.5t247 50t214 -50t142 -134.5t57.5 -198t-39.5 -244.5t-133 -244.5t-197 -198t-235.5 -134.5t-248.5 -50t-212.5 50t-141 134.5t-57.5 198zM573 589q-13 -97 8 -178t64.5 -133.5t109 -75.5t144.5 -5 q77 18 151 70.5t134 128t100 169t52 190.5q10 97 -10 176.5t-66.5 133.5t-111.5 75.5t-142 3.5q-79 -18 -152 -70.5t-132 -126.5t-98.5 -167.5t-50.5 -190.5zM676 1817.5q-26 48.5 15 97.5q59 67 125.5 72t134.5 -27t132 -91t120.5 -123t98.5 -123t65 -90q13 -18 10.5 -42 t-14 -43.5t-29.5 -24.5t-36 16q-13 15 -73 42t-142 64t-167.5 82t-149.5 93.5t-90 97z" />
<glyph unicode="&#xf3;" horiz-adv-x="1359" d="M142 372.5q-6 113.5 40 244.5t133 244.5t197 198t234 134.5t247 50t214 -50t142 -134.5t57.5 -198t-39.5 -244.5t-133 -244.5t-197 -198t-235.5 -134.5t-248.5 -50t-212.5 50t-141 134.5t-57.5 198zM573 589q-13 -97 8 -178t64.5 -133.5t109 -75.5t144.5 -5 q77 18 151 70.5t134 128t100 169t52 190.5q10 97 -10 176.5t-66.5 133.5t-111.5 75.5t-142 3.5q-79 -18 -152 -70.5t-132 -126.5t-98.5 -167.5t-50.5 -190.5zM718 1489q-9 14 0 30.5t45 29.5q23 8 98.5 55t176.5 110t215 129.5t211.5 111t166.5 56.5t82 -32 q18 -64 -29.5 -121.5t-133 -110t-196 -97.5t-218 -81t-199.5 -62.5t-138 -39.5q-28 -8 -50 0t-31 22z" />
<glyph unicode="&#xf4;" horiz-adv-x="1359" d="M142 372.5q-6 113.5 40 244.5t133 244.5t197 198t234 134.5t247 50t214 -50t142 -134.5t57.5 -198t-39.5 -244.5t-133 -244.5t-197 -198t-235.5 -134.5t-248.5 -50t-212.5 50t-141 134.5t-57.5 198zM573 589q-13 -97 8 -178t64.5 -133.5t109 -75.5t144.5 -5 q77 18 151 70.5t134 128t100 169t52 190.5q10 97 -10 176.5t-66.5 133.5t-111.5 75.5t-142 3.5q-79 -18 -152 -70.5t-132 -126.5t-98.5 -167.5t-50.5 -190.5zM627 1492q-15 10 15.5 50t89.5 92.5t133 111.5t144.5 109t128 82t78.5 32q20 0 65 -26t98.5 -65.5t107.5 -88 t95 -97t61 -91t5 -68.5q-23 -36 -79 -67.5t-120 -52t-121.5 -26t-81.5 12.5q-23 15 -53.5 69t-62.5 113t-61.5 105t-49.5 46t-75.5 -43.5t-118 -93.5t-119 -85.5t-79.5 -18.5z" />
<glyph unicode="&#xf5;" horiz-adv-x="1359" d="M142 372.5q-6 113.5 40 244.5t133 244.5t197 198t234 134.5t247 50t214 -50t142 -134.5t57.5 -198t-39.5 -244.5t-133 -244.5t-197 -198t-235.5 -134.5t-248.5 -50t-212.5 50t-141 134.5t-57.5 198zM573 589q-13 -97 8 -178t64.5 -133.5t109 -75.5t144.5 -5 q77 18 151 70.5t134 128t100 169t52 190.5q10 97 -10 176.5t-66.5 133.5t-111.5 75.5t-142 3.5q-79 -18 -152 -70.5t-132 -126.5t-98.5 -167.5t-50.5 -190.5zM579.5 1561.5q-11.5 7.5 9 30.5t89.5 64q148 87 260 111.5t195 13t146 -46t111.5 -65.5t89.5 -45t84 17 q18 15 47.5 21.5t45 1.5t5 -23t-66.5 -51q-113 -74 -191 -94.5t-138 -12t-107.5 36.5t-96.5 54q-105 49 -197 62t-166 -39q-38 -26 -73 -34.5t-46.5 -1z" />
<glyph unicode="&#xf6;" horiz-adv-x="1359" d="M142 372.5q-6 113.5 40 244.5t133 244.5t197 198t234 134.5t247 50t214 -50t142 -134.5t57.5 -198t-39.5 -244.5t-133 -244.5t-197 -198t-235.5 -134.5t-248.5 -50t-212.5 50t-141 134.5t-57.5 198zM573 589q-13 -97 8 -178t64.5 -133.5t109 -75.5t144.5 -5 q77 18 151 70.5t134 128t100 169t52 190.5q10 97 -10 176.5t-66.5 133.5t-111.5 75.5t-142 3.5q-79 -18 -152 -70.5t-132 -126.5t-98.5 -167.5t-50.5 -190.5zM763 1654q13 38 38.5 71.5t58.5 59t70.5 41t75.5 15.5q74 3 111 -50t12 -127q-26 -74 -93.5 -128t-147.5 -56 q-74 -3 -109.5 48.5t-15.5 125.5zM1221 1654q13 38 38.5 71.5t59 59t70.5 41t75 15.5q74 3 111.5 -50t11.5 -127t-93.5 -128t-147.5 -56q-74 -3 -109.5 48.5t-15.5 125.5z" />
<glyph unicode="&#xf7;" horiz-adv-x="537" d="M5 678q-15 67 3 157q128 -13 258.5 -12t251 6.5t223 9.5t171.5 -4q69 -5 90.5 -55t11.5 -108t-43.5 -105t-74.5 -47h-171.5t-162 1t-164 1h-175.5q-110 0 -157.5 49t-60.5 107zM245 353q13 38 38.5 71.5t59 59t70.5 41t75 15.5q74 3 109 -49.5t14 -127.5 q-26 -74 -96 -127.5t-144 -56.5t-113 48.5t-13 125.5zM471 993q13 38 38.5 71.5t58.5 59t70 41t76 15.5q74 3 111 -49.5t12 -127.5q-26 -74 -96.5 -127.5t-144.5 -56.5t-112.5 48.5t-12.5 125.5z" />
<glyph unicode="&#xf8;" horiz-adv-x="1359" d="M-38 -257q199 195 393.5 392.5t369.5 378.5t324.5 334.5t259.5 257.5q106 105 166 155.5t76.5 55.5t-9.5 -29.5t-88 -97.5q-132 -134 -253 -257.5t-242.5 -245t-245.5 -247.5t-260 -264q-162 -166 -259 -254t-149 -127q-60 -48 -83 -52zM142 372.5q-6 113.5 40 244.5 t133 244.5t197 198t234 134.5t247 50t214 -50t142 -134.5t57.5 -198t-39.5 -244.5t-133 -244.5t-197 -198t-235.5 -134.5t-248.5 -50t-212.5 50t-141 134.5t-57.5 198zM573 589q-13 -97 8 -178t64.5 -133.5t109 -75.5t144.5 -5q77 18 151 70.5t134 128t100 169t52 190.5 q10 97 -10 176.5t-66.5 133.5t-111.5 75.5t-142 3.5q-79 -18 -152 -70.5t-132 -126.5t-98.5 -167.5t-50.5 -190.5z" />
<glyph unicode="&#xf9;" horiz-adv-x="1766" d="M152.5 343q-1.5 102 17.5 213.5t52.5 224t77.5 212.5q41 92 104.5 161.5t120 105t92.5 33t18 -48.5q-28 -82 -53.5 -181.5t-42.5 -201t-23.5 -196t0 -167.5t29.5 -118t67 -45q82 0 164 70.5t158.5 177t147 230.5t130.5 230t107.5 176.5t80.5 70.5q41 0 58 -46t17 -123 t-11.5 -173t-23.5 -198t-20.5 -198t-3.5 -173t29 -123t76 -46q51 0 103.5 21.5t95.5 50.5q49 31 92 71l113 100q18 23 46 23q31 0 23 -36q0 -3 -33 -36t-89.5 -83t-130.5 -107.5t-158.5 -106t-174.5 -82t-177 -33.5q-95 0 -142 46t-63.5 115.5t-11.5 148.5t14 148.5 t15.5 115.5t-9.5 46q-102 -174 -207 -310q-46 -59 -97.5 -114t-105 -98.5t-110 -70.5t-110.5 -27q-90 0 -143.5 46t-80 124.5t-28 180.5zM732 1817.5q-26 48.5 15 97.5q59 67 125.5 72t134.5 -27t132 -91t120.5 -123t98.5 -123t65 -90q13 -18 10.5 -42t-14 -43.5 t-29.5 -24.5t-36 16q-13 15 -73 42t-142 64t-167.5 82t-149.5 93.5t-90 97z" />
<glyph unicode="&#xfa;" horiz-adv-x="1766" d="M152.5 343q-1.5 102 17.5 213.5t52.5 224t77.5 212.5q41 92 104.5 161.5t120 105t92.5 33t18 -48.5q-28 -82 -53.5 -181.5t-42.5 -201t-23.5 -196t0 -167.5t29.5 -118t67 -45q82 0 164 70.5t158.5 177t147 230.5t130.5 230t107.5 176.5t80.5 70.5q41 0 58 -46t17 -123 t-11.5 -173t-23.5 -198t-20.5 -198t-3.5 -173t29 -123t76 -46q51 0 103.5 21.5t95.5 50.5q49 31 92 71l113 100q18 23 46 23q31 0 23 -36q0 -3 -33 -36t-89.5 -83t-130.5 -107.5t-158.5 -106t-174.5 -82t-177 -33.5q-95 0 -142 46t-63.5 115.5t-11.5 148.5t14 148.5 t15.5 115.5t-9.5 46q-102 -174 -207 -310q-46 -59 -97.5 -114t-105 -98.5t-110 -70.5t-110.5 -27q-90 0 -143.5 46t-80 124.5t-28 180.5zM923 1489q-9 14 0 30.5t45 29.5q23 8 98.5 55t176.5 110t215 129.5t211.5 111t166.5 56.5t82 -32q18 -64 -29.5 -121.5t-133 -110 t-196 -97.5t-218 -81t-199.5 -62.5t-138 -39.5q-28 -8 -50 0t-31 22z" />
<glyph unicode="&#xfb;" horiz-adv-x="1766" d="M152.5 343q-1.5 102 17.5 213.5t52.5 224t77.5 212.5q41 92 104.5 161.5t120 105t92.5 33t18 -48.5q-28 -82 -53.5 -181.5t-42.5 -201t-23.5 -196t0 -167.5t29.5 -118t67 -45q82 0 164 70.5t158.5 177t147 230.5t130.5 230t107.5 176.5t80.5 70.5q41 0 58 -46t17 -123 t-11.5 -173t-23.5 -198t-20.5 -198t-3.5 -173t29 -123t76 -46q51 0 103.5 21.5t95.5 50.5q49 31 92 71l113 100q18 23 46 23q31 0 23 -36q0 -3 -33 -36t-89.5 -83t-130.5 -107.5t-158.5 -106t-174.5 -82t-177 -33.5q-95 0 -142 46t-63.5 115.5t-11.5 148.5t14 148.5 t15.5 115.5t-9.5 46q-102 -174 -207 -310q-46 -59 -97.5 -114t-105 -98.5t-110 -70.5t-110.5 -27q-90 0 -143.5 46t-80 124.5t-28 180.5zM637 1492q-15 10 15.5 50t89.5 92.5t133 111.5t144.5 109t128 82t78.5 32q20 0 65 -26t98.5 -65.5t107.5 -88t95 -97t61 -91t5 -68.5 q-23 -36 -79 -67.5t-120 -52t-121.5 -26t-81.5 12.5q-23 15 -53.5 69t-62.5 113t-61.5 105t-49.5 46t-75.5 -43.5t-118 -93.5t-119 -85.5t-79.5 -18.5z" />
<glyph unicode="&#xfc;" horiz-adv-x="1766" d="M152.5 343q-1.5 102 17.5 213.5t52.5 224t77.5 212.5q41 92 104.5 161.5t120 105t92.5 33t18 -48.5q-28 -82 -53.5 -181.5t-42.5 -201t-23.5 -196t0 -167.5t29.5 -118t67 -45q82 0 164 70.5t158.5 177t147 230.5t130.5 230t107.5 176.5t80.5 70.5q41 0 58 -46t17 -123 t-11.5 -173t-23.5 -198t-20.5 -198t-3.5 -173t29 -123t76 -46q51 0 103.5 21.5t95.5 50.5q49 31 92 71l113 100q18 23 46 23q31 0 23 -36q0 -3 -33 -36t-89.5 -83t-130.5 -107.5t-158.5 -106t-174.5 -82t-177 -33.5q-95 0 -142 46t-63.5 115.5t-11.5 148.5t14 148.5 t15.5 115.5t-9.5 46q-102 -174 -207 -310q-46 -59 -97.5 -114t-105 -98.5t-110 -70.5t-110.5 -27q-90 0 -143.5 46t-80 124.5t-28 180.5zM707 1654q13 38 38.5 71.5t58.5 59t70.5 41t75.5 15.5q74 3 111 -50t12 -127q-26 -74 -93.5 -128t-147.5 -56q-74 -3 -109.5 48.5 t-15.5 125.5zM1165 1654q13 38 38.5 71.5t59 59t70.5 41t75 15.5q74 3 111.5 -50t11.5 -127t-93.5 -128t-147.5 -56q-74 -3 -109.5 48.5t-15.5 125.5z" />
<glyph unicode="&#xfd;" horiz-adv-x="1461" d="M-188.5 -508.5q-21.5 78.5 12 165.5t114 180.5t189.5 188t238 187t262 176.5q72 46 113 68t59 28.5t16.5 0t-14.5 -22.5q-28 -33 -115 -105l174 95q8 3 -33 -30.5t-95 -74.5l-143 -107q-110 -46 -219 -116.5t-197.5 -151.5t-144.5 -162.5t-62.5 -147t44.5 -106.5t182 -41 q202 0 343 96t239.5 252t167.5 353.5t131 399.5q-102 -115 -208 -205q-46 -38 -97 -74t-105 -65.5t-110 -46t-110 -16.5q-169 0 -233 82t-42.5 216.5t120.5 302t260 341.5q61 64 106 88.5t63 11.5t5 -61.5t-67 -130.5q-108 -159 -128 -269t5.5 -178t82 -98.5t102.5 -30.5 q84 0 159.5 55t141 138t122 180.5t105 180.5t88 138t72.5 55q23 0 33.5 -34.5t10.5 -90.5t-7.5 -129t-20.5 -148q-28 -176 -82 -399q-38 -297 -131.5 -510.5t-218 -354.5t-270.5 -215t-289 -94.5t-273.5 6t-228.5 90.5q-95 61 -116.5 139.5zM769 1489q-9 14 0 30.5t45 29.5 q23 8 98.5 55t176.5 110t215 129.5t211.5 111t166.5 56.5t82 -32q18 -64 -29.5 -121.5t-133 -110t-196 -97.5t-218 -81t-199.5 -62.5t-138 -39.5q-28 -8 -50 0t-31 22z" />
<glyph unicode="&#xfe;" horiz-adv-x="1694" d="M-128 -551.5q10 95.5 48.5 250.5t102.5 361t150 434t189.5 468.5t224 467t253.5 429t273.5 352t289 238t299.5 88.5q108 0 112 -83t-64 -219t-189.5 -307.5t-265 -350.5t-290.5 -349.5t-265 -300.5q-36 -102 -65.5 -197t-54.5 -177q69 102 162.5 216t203.5 210t234 157.5 t260 61.5q143 0 222.5 -52.5t106.5 -135.5t5 -188t-81 -210t-151 -200t-205 -159q-136 -77 -276.5 -115t-267 -53.5t-229 -14t-161.5 6.5q-20 -38 -43.5 -105t-51.5 -141t-57.5 -146t-60.5 -120q-51 -79 -99.5 -128t-94.5 -73t-84.5 -28t-69.5 9q-20 8 -10 103.5zM489 187 q31 -13 78 -22t107.5 -9t129.5 16.5t146 57.5q74 38 147 107.5t134.5 150t105 166.5t59 161.5t-4 129t-85.5 71.5q-54 15 -119.5 -10.5t-134.5 -76.5t-139.5 -119t-134.5 -138t-116.5 -137t-85.5 -113q-26 -77 -47.5 -137t-39.5 -98zM809 1108q123 141 251 294.5t240.5 301 t204.5 279.5t146 233t62 160t-46 59q-79 0 -157.5 -55.5t-154 -150t-149.5 -222.5t-142 -275t-132 -307t-123 -317z" />
<glyph unicode="&#xff;" horiz-adv-x="1461" d="M-188.5 -508.5q-21.5 78.5 12 165.5t114 180.5t189.5 188t238 187t262 176.5q72 46 113 68t59 28.5t16.5 0t-14.5 -22.5q-28 -33 -115 -105l174 95q8 3 -33 -30.5t-95 -74.5l-143 -107q-110 -46 -219 -116.5t-197.5 -151.5t-144.5 -162.5t-62.5 -147t44.5 -106.5t182 -41 q202 0 343 96t239.5 252t167.5 353.5t131 399.5q-102 -115 -208 -205q-46 -38 -97 -74t-105 -65.5t-110 -46t-110 -16.5q-169 0 -233 82t-42.5 216.5t120.5 302t260 341.5q61 64 106 88.5t63 11.5t5 -61.5t-67 -130.5q-108 -159 -128 -269t5.5 -178t82 -98.5t102.5 -30.5 q84 0 159.5 55t141 138t122 180.5t105 180.5t88 138t72.5 55q23 0 33.5 -34.5t10.5 -90.5t-7.5 -129t-20.5 -148q-28 -176 -82 -399q-38 -297 -131.5 -510.5t-218 -354.5t-270.5 -215t-289 -94.5t-273.5 6t-228.5 90.5q-95 61 -116.5 139.5zM750 1654q13 38 38.5 71.5 t58.5 59t70.5 41t75.5 15.5q74 3 111 -50t12 -127q-26 -74 -93.5 -128t-147.5 -56q-74 -3 -109.5 48.5t-15.5 125.5zM1208 1654q13 38 38.5 71.5t59 59t70.5 41t75 15.5q74 3 111.5 -50t11.5 -127t-93.5 -128t-147.5 -56q-74 -3 -109.5 48.5t-15.5 125.5z" />
<glyph unicode="&#x152;" horiz-adv-x="3522" d="M201 303.5q9 280.5 122 600.5q74 212 184 409t245.5 368.5t289.5 312.5t317.5 242t330 156t325.5 55q225 0 385 -110t247 -300.5t92 -449t-79 -555.5h-87q10 41 19 82t19 84q49 269 17 490.5t-130.5 372.5t-256 221.5t-357.5 34.5q-202 -36 -398 -169t-361 -333 t-285.5 -448t-168.5 -517q-51 -266 -18 -487.5t131.5 -374t256 -223t357.5 -34.5q97 18 188 56.5t186 97.5l-88 -241q-187 -133 -378.5 -207t-376.5 -74q-238 0 -405.5 121.5t-249.5 330t-73 489zM1477.5 -288q-2.5 193 89.5 413.5t285 456t498 462.5q-79 189 -55 370 t117.5 339.5t241 290.5t317.5 226.5t344 147t323 52.5q138 0 224 -37t134.5 -94.5t64 -132t10 -150t-24.5 -143t-40 -116.5q-3 -10 -2.5 -19t-7.5 -22q-15 -46 -47 -85.5t-72 -70.5t-87 -47.5t-93 -16.5q-92 0 -134.5 64t-11.5 156q18 46 50 87t73 70.5t88 47.5t93 18 q51 0 90 -23q15 69 16.5 143t-35.5 133t-119 97.5t-231 38.5q-118 0 -230.5 -60t-211 -157.5t-179 -221.5t-132 -254.5t-69 -253.5t9 -219t103.5 -153.5t213 -52.5q61 0 85.5 -18t16.5 -38.5t-43.5 -38.5t-89.5 -18q-195 0 -361 -70.5t-299.5 -184t-232 -259.5 t-153.5 -298.5t-66.5 -298.5t27 -260t132 -184t244.5 -70q113 0 220.5 55t203.5 142t179 192t147 203.5t106 179t60 116.5q23 54 47.5 78t40 19t14 -39.5t-32.5 -98.5q-20 -41 -72.5 -135.5t-132 -210t-182 -239.5t-222.5 -226.5t-253 -168t-272 -65.5q-223 0 -384 84.5 t-244 229.5t-85.5 338z" />
<glyph unicode="&#x153;" horiz-adv-x="2209" d="M142 372.5q-6 113.5 40 244.5t133 244.5t197 198t234 134.5t247 50t214 -50t142 -134.5t57.5 -198t-39.5 -244.5t-133 -244.5t-197 -198t-235.5 -134.5t-248.5 -50t-212.5 50t-141 134.5t-57.5 198zM573 589q-13 -97 8 -178t64.5 -133.5t109 -75.5t144.5 -5 q77 18 151 70.5t134 128t100 169t52 190.5q10 97 -10 176.5t-66.5 133.5t-111.5 75.5t-142 3.5q-79 -18 -152 -70.5t-132 -126.5t-98.5 -167.5t-50.5 -190.5zM1026 410q4 110 39 207q33 100 112.5 215t190 213.5t246 164t281.5 65.5q118 0 178 -34.5t76.5 -88.5t0 -118 t-47.5 -123q-38 -64 -111 -139.5t-161.5 -149.5t-179 -143t-165.5 -121q26 -82 81 -133t157 -51q74 0 174 31q84 28 206 88t276 183q26 23 41 25.5t21.5 -7.5t2.5 -25.5t-14 -25.5q-8 -8 -58 -45t-129 -87t-179 -106.5t-210 -103.5t-220 -78t-210 -31q-151 0 -238 61.5 t-125.5 154t-34.5 202.5zM1470 430q72 46 156.5 106t163.5 125.5t143 131t92 121.5q41 79 45 134t-16.5 88.5t-63 49t-93.5 15.5q-87 0 -168.5 -78.5t-143 -193.5t-95 -249.5t-20.5 -249.5z" />
<glyph unicode="&#x178;" horiz-adv-x="2521" d="M223 -1170q-5 8 33 77t105 175t152.5 239.5t177.5 271.5q215 323 489 724q-77 553 -143 999q-28 189 -55 373.5t-49 334t-37 248.5t-18 116q-8 38 5 63t33.5 33.5t46 0t43.5 -39.5q13 -23 29.5 -116.5t36 -232t38.5 -307.5t39.5 -344t38.5 -345.5t34.5 -311t29.5 -236.5 t20 -124q251 422 477.5 731.5t425 528.5t367.5 357.5t307.5 220.5t243.5 116.5t174 44.5q102 15 158.5 8.5t70.5 -27t-11.5 -48.5t-87.5 -59q-125 -15 -279 -121t-325.5 -276.5t-357 -392t-369.5 -467t-364.5 -504t-343 -503t-303.5 -462.5t-247.5 -384t-173 -266 t-81.5 -110q-38 -23 -90.5 -29.5t-102.5 -2.5t-90 16.5t-47 30.5zM1454 2166q13 38 38.5 71.5t58.5 59t70.5 41t75.5 15.5q74 3 111 -50t12 -127q-26 -74 -93.5 -128t-147.5 -56q-74 -3 -109.5 48.5t-15.5 125.5zM1912 2166q13 38 38.5 71.5t59 59t70.5 41t75 15.5 q74 3 111.5 -50t11.5 -127t-93.5 -128t-147.5 -56q-74 -3 -109.5 48.5t-15.5 125.5z" />
<glyph unicode="&#x2c6;" horiz-adv-x="1323" d="M681 1492q-15 10 15.5 50t89.5 92.5t133 111.5t144.5 109t128 82t78.5 32q20 0 65 -26t98.5 -65.5t107.5 -88t95 -97t61 -91t5 -68.5q-23 -36 -79 -67.5t-120 -52t-121.5 -26t-81.5 12.5q-23 15 -53.5 69t-62.5 113t-61.5 105t-49.5 46t-75.5 -43.5t-118 -93.5 t-119 -85.5t-79.5 -18.5z" />
<glyph unicode="&#x2dc;" horiz-adv-x="1707" d="M753.5 1561.5q-11.5 7.5 9 30.5t89.5 64q148 87 260 111.5t195 13t146 -46t111.5 -65.5t89.5 -45t84 17q18 15 47.5 21.5t45 1.5t5 -23t-66.5 -51q-113 -74 -191 -94.5t-138 -12t-107.5 36.5t-96.5 54q-105 49 -197 62t-166 -39q-38 -26 -73 -34.5t-46.5 -1z" />
<glyph unicode="&#x2000;" horiz-adv-x="1664" />
<glyph unicode="&#x2001;" horiz-adv-x="3329" />
<glyph unicode="&#x2002;" horiz-adv-x="1664" />
<glyph unicode="&#x2003;" horiz-adv-x="3329" />
<glyph unicode="&#x2004;" horiz-adv-x="1109" />
<glyph unicode="&#x2005;" horiz-adv-x="832" />
<glyph unicode="&#x2006;" horiz-adv-x="554" />
<glyph unicode="&#x2007;" horiz-adv-x="554" />
<glyph unicode="&#x2008;" horiz-adv-x="416" />
<glyph unicode="&#x2009;" horiz-adv-x="665" />
<glyph unicode="&#x200a;" horiz-adv-x="184" />
<glyph unicode="&#x2010;" d="M230 678q-15 67 3 157q128 -13 258.5 -12t251 6.5t223 9.5t171.5 -4q69 -5 90.5 -55t11.5 -108t-43.5 -105t-74.5 -47h-171.5t-162 1t-164 1h-175.5q-110 0 -157.5 49t-60.5 107z" />
<glyph unicode="&#x2011;" d="M230 678q-15 67 3 157q128 -13 258.5 -12t251 6.5t223 9.5t171.5 -4q69 -5 90.5 -55t11.5 -108t-43.5 -105t-74.5 -47h-171.5t-162 1t-164 1h-175.5q-110 0 -157.5 49t-60.5 107z" />
<glyph unicode="&#x2012;" d="M230 678q-15 67 3 157q128 -13 258.5 -12t251 6.5t223 9.5t171.5 -4q69 -5 90.5 -55t11.5 -108t-43.5 -105t-74.5 -47h-171.5t-162 1t-164 1h-175.5q-110 0 -157.5 49t-60.5 107z" />
<glyph unicode="&#x2013;" d="M230 678q-15 67 3 157q128 -13 258.5 -12t251 6.5t223 9.5t171.5 -4q69 -5 90.5 -55t11.5 -108t-43.5 -105t-74.5 -47h-171.5t-162 1t-164 1h-175.5q-110 0 -157.5 49t-60.5 107z" />
<glyph unicode="&#x2014;" d="M230 678q-15 67 3 157q128 -13 258.5 -12t251 6.5t223 9.5t171.5 -4q69 -5 90.5 -55t11.5 -108t-43.5 -105t-74.5 -47h-171.5t-162 1t-164 1h-175.5q-110 0 -157.5 49t-60.5 107z" />
<glyph unicode="&#x2018;" horiz-adv-x="414" d="M469.5 1219.5q-29.5 60.5 9.5 134.5q23 61 65 120t89.5 109t91 88.5t71.5 59.5q26 20 50 21.5t34.5 -11.5t1.5 -36t-45 -51q-36 -31 -46 -76t-13 -83q56 -20 69 -74t-20 -121q-20 -36 -49.5 -66.5t-64.5 -51t-72 -29.5t-73 -4q-69 10 -98.5 70.5z" />
<glyph unicode="&#x2019;" horiz-adv-x="414" d="M518.5 1219q6.5 23 42.5 51q41 31 48.5 75.5t10.5 82.5q-51 20 -66.5 74t17.5 121q18 36 48.5 66.5t66.5 51t74.5 29.5t74.5 4q69 -10 95.5 -70t-6.5 -135q-26 -61 -69 -121t-89.5 -110t-90 -87.5t-68.5 -57.5q-28 -20 -51.5 -21.5t-33.5 11.5t-3.5 36z" />
<glyph unicode="&#x201a;" horiz-adv-x="558" d="M231.5 -67q6.5 23 42.5 52q41 31 51 75.5t8 82.5q-51 20 -64 74t20 121q18 36 47.5 66.5t64 51t73 29.5t74.5 4q69 -10 98.5 -70.5t-9.5 -134.5q-23 -61 -65 -121.5t-89.5 -110t-92 -87t-70.5 -57.5q-28 -20 -51 -21.5t-33.5 11t-4 35.5z" />
<glyph unicode="&#x201c;" horiz-adv-x="652" d="M433.5 1219.5q-29.5 60.5 9.5 134.5q23 61 65 120t89.5 109t91 88.5t71.5 59.5q26 20 50.5 21.5t34.5 -11.5t1 -36t-45 -51q-36 -31 -46 -76t-13 -83q38 -15 54 -43q31 49 69.5 92t76.5 79t71.5 64t54.5 44q26 20 50 21.5t34 -11.5t1 -36t-45 -51q-36 -31 -46 -76 t-12 -83q56 -20 68.5 -74t-20.5 -121q-20 -36 -49.5 -66.5t-64 -51t-71.5 -29.5t-73 -4q-79 10 -105 77q-44 -41 -97.5 -62.5t-105.5 -14.5q-69 10 -98.5 70.5z" />
<glyph unicode="&#x201d;" horiz-adv-x="652" d="M482.5 1219q6.5 23 42.5 51q41 31 48.5 75.5t10.5 82.5q-51 20 -66.5 74t17.5 121q18 36 48.5 66.5t66.5 51t74.5 29.5t74.5 4q74 -13 100 -77q44 41 98.5 63t108.5 14q69 -10 96 -70t-6 -135q-26 -61 -69.5 -121t-89.5 -110t-89.5 -87.5t-69.5 -57.5q-28 -20 -51 -21.5 t-33.5 11.5t-4 36t42.5 51q41 31 48.5 75.5t10.5 82.5q-28 15 -54 44q-31 -49 -68 -92.5t-74 -79t-70.5 -64t-53.5 -43.5q-28 -20 -51 -21.5t-33.5 11.5t-4 36z" />
<glyph unicode="&#x201e;" horiz-adv-x="652" d="M19.5 -102q6.5 23 39.5 51q41 31 48.5 75.5t10.5 83.5q-51 20 -65.5 73.5t16.5 120.5q18 36 48.5 66.5t66.5 51t74.5 29.5t74.5 4q74 -13 100 -77q44 41 98.5 63t108.5 14q69 -10 96 -70t-6 -135q-26 -61 -69.5 -121t-89.5 -110t-89.5 -87.5t-69.5 -57.5 q-28 -20 -51 -21.5t-33.5 11.5t-4 36t42.5 51q41 31 48.5 75.5t10.5 83.5q-28 15 -54 43q-31 -49 -68 -92.5t-74 -79t-70.5 -64t-53.5 -43.5q-28 -20 -50 -21.5t-32 11.5t-3.5 36z" />
<glyph unicode="&#x2022;" horiz-adv-x="896" d="M474 818q-5 58 18 122t67.5 121.5t102 99.5t124 66.5t130.5 24.5t113 -24.5t76 -66.5t30.5 -99.5t-19.5 -121.5t-67.5 -122t-101 -100t-122 -66.5t-129.5 -24.5t-112.5 24.5t-76.5 66.5t-33 100z" />
<glyph unicode="&#x2026;" horiz-adv-x="1612" d="M289 412q13 38 38.5 71.5t59 59t70.5 41t75 15.5q74 3 109 -49.5t14 -127.5q-26 -74 -96 -127.5t-144 -56.5t-113 48.5t-13 125.5zM827 412q13 38 38.5 71.5t58.5 59t70.5 41t75.5 15.5q74 3 108.5 -49.5t14.5 -127.5q-26 -74 -96 -127.5t-145 -56.5q-74 -3 -112.5 48.5 t-12.5 125.5zM1364 412q13 38 38.5 71.5t59 59t70.5 41t76 15.5q74 3 108.5 -49.5t14.5 -127.5q-26 -74 -96.5 -127.5t-144.5 -56.5t-113 48.5t-13 125.5z" />
<glyph unicode="&#x202f;" horiz-adv-x="665" />
<glyph unicode="&#x2039;" horiz-adv-x="732" d="M266 602q8 20 51.5 74t107.5 121.5t138 139.5t143.5 129.5t123 92t76.5 29.5q33 -8 50 -54t17 -103.5t-15.5 -112.5t-41.5 -86q-18 -18 -56 -47.5t-87 -62.5t-101 -70.5t-98.5 -69.5t-77 -57.5t-35.5 -38.5q-8 -20 21.5 -59.5t64 -84.5t54 -88.5t-6.5 -71.5 q-18 -20 -50 -2.5t-71.5 57t-79.5 93.5t-70.5 106.5t-47 98.5t-9.5 67z" />
<glyph unicode="&#x203a;" horiz-adv-x="732" d="M248 182q-8 28 43.5 71.5t117 88.5t124 84.5t66.5 62.5q8 20 -23 66.5t-70.5 100t-76.5 103.5t-42 78q-5 31 19 87t65 114t89.5 104t89.5 54q26 5 56.5 -31t57.5 -93.5t51.5 -130.5t41 -139.5t23 -121.5t-1.5 -76q-8 -20 -56.5 -66t-117.5 -100t-147 -109t-146 -93.5 t-114 -56.5t-49 3z" />
<glyph unicode="&#x205f;" horiz-adv-x="832" />
<glyph unicode="&#x20ac;" horiz-adv-x="1354" d="M189.5 291.5q2.5 194.5 56.5 386.5q36 128 109 273t175 287t229 271t270 231.5t300.5 168t319.5 78.5q197 15 318.5 -31t184 -119t75.5 -156.5t-5 -147.5q-3 -13 -5.5 -20.5t-2.5 -14.5q-3 -5 -2.5 -9t-4.5 -9q-8 -36 -31 -67t-52.5 -56.5t-65.5 -41t-69 -17.5 q-69 -5 -106 41t-17 115q18 72 82 123t133 56q49 5 77 -13q-5 54 -29.5 113t-78 106.5t-143 74t-230.5 16.5q-136 -10 -273 -108.5t-261 -253.5t-227.5 -348t-175.5 -391.5t-102.5 -387t-9 -333t105 -227.5t239.5 -70q136 10 261 69t225 131.5t168 140.5t88 94 q31 36 56.5 50t37 10t4 -25.5t-40.5 -60.5q-26 -26 -72 -77t-111.5 -113.5t-150 -129t-188 -124.5t-225 -97.5t-260.5 -49.5q-207 -15 -333.5 75.5t-185.5 241.5t-56.5 345.5zM356 525q-15 67 0 156q128 -13 260 -11.5t252 6.5t222.5 9t169.5 -4q69 -5 92 -55t14 -107.5 t-42.5 -105t-74.5 -47.5h-171.5t-162 1.5t-164 1.5h-175.5q-110 0 -158.5 48.5t-61.5 107.5zM484 883q-15 67 0 156q128 -13 258.5 -11.5t251 6.5t223 9t171.5 -4q69 -5 90.5 -55t11.5 -107.5t-43.5 -105t-74.5 -47.5h-170.5t-161 1.5t-162.5 1.5h-174q-110 0 -158.5 48.5 t-61.5 107.5z" />
<glyph unicode="&#x2122;" horiz-adv-x="1472" d="M394 1779q54 -13 129.5 -16.5t158.5 -3.5t169 3.5t159 7.5t126.5 6.5t76.5 2.5q33 -3 46 -14t12 -25.5t-14 -29.5t-31 -26q-13 -5 -51 -8.5t-92 -6t-119 -2.5t-129 2q-13 -36 -38.5 -110t-56.5 -162.5t-64 -183t-60 -174t-46.5 -134.5t-21.5 -65q0 -15 -8 -27t-14 -12 t-8.5 13t4.5 46q5 18 24.5 77t46.5 137t59 169t61 174t52 151t36 101q-82 3 -153.5 6.5t-107.5 8.5q-49 8 -77 24.5t-43 32.5q-18 18 -26 38zM865 1014q95 215 138.5 354.5t48.5 222.5t-24.5 115t-77.5 32q74 0 112.5 -34.5t53.5 -75.5q18 -46 16 -107q28 61 71 107 q36 41 88.5 75.5t121.5 34.5q54 0 59 -84q23 20 61.5 49.5t74.5 34.5q79 10 117.5 -11.5t54 -58.5t14 -78t-4.5 -69q0 -18 -10 -67t-28 -110t-39.5 -129t-44.5 -127t-46.5 -102.5t-40.5 -53.5q-15 -10 -23 -2.5t-12 23t-8 32t-14 29.5q-8 8 12.5 64t49 135.5t56.5 169 t38.5 163.5t-10 119t-87.5 35q-31 -5 -59 -27t-48 -35q3 -51 -9 -118.5t-31 -142t-41 -146t-43.5 -129.5t-37 -96t-20.5 -43q-10 -13 -25.5 -12t-27 15t-18 41t1.5 66q67 169 107 304q18 56 31 112.5t18 99t-1.5 69t-29.5 26.5q-59 0 -111.5 -55t-96 -138t-79 -179 t-62.5 -180.5t-46.5 -141t-29.5 -58.5q-36 -8 -55 19t-4 63z" />
<glyph unicode="&#xe000;" horiz-adv-x="1292" d="M0 0v1293h1293v-1293h-1293z" />
<glyph unicode="&#xfb01;" horiz-adv-x="2009" d="M-208.5 -772q11.5 101 53.5 269t111.5 386.5t160 464.5t201 503t235.5 500.5t262 458.5t283 376.5t296 256t301 94.5q97 0 108.5 -68t-36 -179t-144.5 -258.5t-217.5 -306t-255 -320t-254.5 -299.5q28 20 57.5 35.5t57.5 30.5q64 33 139.5 18t143.5 -45.5t119 -61.5 t67 -33q15 0 26.5 6t22 12.5t18 8t12.5 -8.5q8 -10 2.5 -24.5t-28.5 -40t-67.5 -68t-121.5 -106.5q-51 -44 -98.5 -46t-92.5 17t-88.5 51t-84 61.5t-78 47.5t-73.5 5q-61 -23 -97 -59q-90 -236 -166.5 -457t-138 -404t-102.5 -310t-59 -168q-54 -115 -112.5 -208.5 t-120 -153.5t-120.5 -84.5t-113 -1.5q-20 8 -8.5 109zM817 1129q123 141 248 292t236.5 295.5t201 275t142 229t60.5 156.5t-46 58q-100 0 -206 -109t-213.5 -291t-215.5 -417.5t-207 -488.5zM1230 268.5q9 79.5 31 160t51 160t53.5 141t36 98.5t1.5 37q-87 -54 -123 -62.5 t-33.5 10.5t37 62.5t87 96t118 109t130.5 103.5t123 76.5t94 29.5q41 0 46 -46t-12 -123t-50 -173t-69 -198t-66.5 -198t-42 -173t1 -123t64.5 -46q51 0 112.5 21.5t114.5 50.5q64 31 126 71l112 100q18 23 44 23q33 0 26 -36q-3 -3 -37.5 -36t-94.5 -83t-138.5 -107.5 t-166.5 -106t-180.5 -82t-179.5 -33.5q-95 0 -143.5 37.5t-65 98.5t-7.5 140.5zM1720 1702q-31 -90 7.5 -151t128.5 -61q44 0 88.5 16.5t84 45t70.5 68t46 82.5q31 87 -10 148.5t-131 61.5q-44 0 -88.5 -16.5t-82.5 -44.5t-67.5 -66.5t-45.5 -82.5z" />
<glyph unicode="&#xfb02;" horiz-adv-x="2224" d="M-208.5 -772q11.5 101 53.5 269t111.5 386.5t160 464.5t201 503t235.5 500.5t262 458.5t283 376.5t296 256t301 94.5q97 0 108.5 -68t-36 -179t-144.5 -258.5t-217.5 -306t-255 -320t-254.5 -299.5q28 20 57.5 35.5t57.5 30.5q64 33 139.5 18t143.5 -45.5t119 -61.5 t67 -33q15 0 26.5 6t22 12.5t18 8t12.5 -8.5q8 -10 2.5 -24.5t-28.5 -40t-67.5 -68t-121.5 -106.5q-51 -44 -98.5 -46t-92.5 17t-88.5 51t-84 61.5t-78 47.5t-73.5 5q-61 -23 -97 -59q-90 -236 -166.5 -457t-138 -404t-102.5 -310t-59 -168q-54 -115 -112.5 -208.5 t-120 -153.5t-120.5 -84.5t-113 -1.5q-20 8 -8.5 109zM817 1129q123 141 248 292t236.5 295.5t201 275t142 229t60.5 156.5t-46 58q-100 0 -206 -109t-213.5 -291t-215.5 -417.5t-207 -488.5zM1410.5 439q7.5 129 36 270t69 282t84.5 261q159 358 356 642 q84 120 182.5 235.5t210 206.5t235.5 146t255 55t157.5 -57.5t-19.5 -152.5t-149.5 -215t-231.5 -246q-300 -294 -768 -670l-69 20q420 338 699 604q118 113 219 221.5t154.5 194.5t46 138.5t-102.5 52.5t-200 -95t-207 -251t-197 -355.5t-169 -407t-123 -407t-60.5 -356 t20.5 -251t119 -94.5q41 -5 105 20q54 20 133.5 73t191.5 160q15 13 28 14.5t22 -5t11.5 -19.5t-7.5 -25q-8 -10 -43.5 -45t-93 -83.5t-130.5 -102.5t-157.5 -100t-174 -75.5t-176.5 -29.5q-105 0 -163 59t-79.5 159t-14 229z" />
</font>
</defs>
</svg>
